<?xml version="1.0" encoding="UTF-8" standalone="no"?>
<!DOCTYPE svg PUBLIC "-//W3C//DTD SVG 1.1//EN" "http://www.w3.org/Graphics/SVG/1.1/DTD/svg11.dtd">
<svg xmlns="http://www.w3.org/2000/svg" xmlns:xlink="http://www.w3.org/1999/xlink" version="1.1" width="311pt" height="224pt" viewBox="0 0 311 224">
<g enable-background="new">
<clipPath id="cp0">
<path transform="matrix(1,0,0,-1,-71,5598)" d="M 0 0 L 453.543 0 L 453.543 5669.291 L 0 5669.291 Z "/>
</clipPath>
<g clip-path="url(#cp0)">
<symbol id="font_1_9">
<path d="M 0 .45600004 C 0 .411 .003999997 .18 .21200001 0 C .222 .002000004 .23000002 .009000003 .23300001 .017000005 C .20000002 .055000009 .083000008 .193 .083000008 .45600004 C .083000008 .71900007 .201 .85700008 .23300001 .893 C .229 .90300008 .22300002 .91 .21200001 .911 C .09300001 .809 0 .642 0 .45600004 Z "/>
</symbol>
<symbol id="font_1_39">
<path d="M .53700008 .104 L .38400004 .314 C .37400005 .32700003 .36800004 .337 .36800004 .34700004 C .36800004 .356 .36800004 .365 .37800003 .37700004 L .51500007 .554 C .549 .598 .58100005 .611 .62600007 .616 C .632 .622 .632 .643 .62600007 .649 C .596 .648 .559 .647 .536 .647 C .513 .647 .47100006 .648 .43100003 .649 C .42500005 .643 .42500005 .622 .43100003 .616 C .47500003 .613 .49300004 .607 .47000004 .574 L .34700004 .39900003 C .34100003 .39000003 .33500005 .38700003 .33100004 .38700003 C .32800005 .38700003 .323 .39100004 .31900005 .39800004 L .208 .561 C .18 .601 .176 .613 .23200001 .616 C .238 .622 .238 .643 .23200001 .649 C .19500001 .648 .158 .647 .118 .647 C .079 .647 .046000005 .648 .016 .649 C .010000001 .643 .011 .622 .017 .616 C .059000005 .613 .077 .607 .118 .549 L .26100005 .34600003 C .26900003 .33400003 .27500005 .326 .27500005 .316 C .27500005 .31000004 .27000005 .3 .26500003 .293 L .117000009 .095 C .082 .049000004 .050000006 .037 .006 .033 C 0 .027 0 .006 .006 0 C .036000004 .001 .073 .002 .096 .002 C .119 .002 .161 .001 .201 0 C .207 .006 .207 .027 .201 .033 C .156 .036000004 .13700001 .041 .162 .075 L .29400004 .26000003 C .29900003 .268 .30600003 .27400003 .30900003 .27400003 C .31300003 .27400003 .31700004 .27100004 .323 .263 L .44600005 .087 C .47400005 .046000005 .47900004 .036000004 .42300005 .033 C .41700004 .027 .41700004 .006 .42300005 0 C .46000005 .001 .49700005 .002 .53700008 .002 C .57600006 .002 .609 .001 .63900008 0 C .64500007 .006 .64400008 .027 .6380001 .033 C .596 .036000004 .57900008 .045 .53700008 .104 Z "/>
</symbol>
<symbol id="font_1_f">
<path d="M 0 .053000004 C 0 .024 .023999997 0 .053000004 0 C .08200001 0 .106 .024 .106 .053000004 C .106 .082 .08200001 .106 .053000004 .106 C .023999997 .106 0 .082 0 .053000004 Z "/>
</symbol>
<symbol id="font_1_a">
<path d="M .23300001 .455 C .23300001 .5 .229 .731 .021000002 .911 C .011 .90900006 .0029999987 .90200009 0 .89400008 C .033 .85600009 .15 .71800008 .15 .455 C .15 .192 .032 .054000006 0 .018000007 C .0029999987 .0069999995 .009 0 .021000002 0 C .14000002 .102000009 .23300001 .269 .23300001 .455 Z "/>
</symbol>
<symbol id="font_1_2a">
<path d="M .17800002 .124000009 L .17800002 .525 C .17800002 .608 .19500001 .613 .26500003 .616 C .271 .622 .271 .643 .26500003 .649 C .22100002 .648 .17300001 .647 .135 .647 C .10100001 .647 .053 .648 .006000001 .649 C 0 .643 0 .622 .006000001 .616 C .076000008 .613 .09300001 .608 .09300001 .525 L .09300001 .124000009 C .09300001 .041 .076000008 .036000004 .006000001 .033 C 0 .027 0 .006 .006000001 0 C .051000004 .001 .09900001 .002 .136 .002 C .17100002 .002 .22000002 .001 .26500003 0 C .271 .006 .271 .027 .26500003 .033 C .19500001 .036000004 .17800002 .041 .17800002 .124000009 Z "/>
</symbol>
<symbol id="font_1_54">
<path d="M 0 .14800002 C .0040000008 .099 .007000003 .052000006 .007000003 .010000001 C .017000005 .012000001 .027000003 .013 .032000007 .013 C .039000006 .013 .045 .013 .052 .011000001 C .079 .0040000008 .10600001 0 .143 0 C .199 0 .30200003 .027000003 .30200003 .126 C .30200003 .19400002 .25300003 .23400001 .185 .259 C .124000009 .28100003 .085 .297 .085 .352 C .085 .393 .121000017 .416 .155 .416 C .17700002 .416 .23500002 .40800003 .248 .323 C .254 .317 .27400003 .31800003 .28 .324 C .28300003 .36 .285 .397 .286 .43 C .255 .435 .20700002 .449 .155 .449 C .08100001 .449 .014000002 .40100003 .014000002 .337 C .014000002 .264 .047000007 .23300001 .124000009 .20100002 C .20700002 .16700001 .22600001 .14600002 .22600001 .103 C .22600001 .054000006 .178 .033000005 .141 .033000005 C .102000009 .033000005 .080000009 .046000005 .07000001 .057000005 C .048 .08 .037 .124000009 .031000004 .14900002 C .025000006 .15500002 .006000001 .15400002 0 .14800002 Z "/>
</symbol>
<use xlink:href="#font_1_9" transform="matrix(10.90909,0,0,-10.90909,263.492,10.657583)"/>
<use xlink:href="#font_1_39" transform="matrix(10.90909,0,0,-10.90909,266.2738,8.453947)"/>
<use xlink:href="#font_1_f" transform="matrix(10.90909,0,0,-10.90909,274.08476,8.54122)"/>
<use xlink:href="#font_1_a" transform="matrix(10.90909,0,0,-10.90909,276.092,10.646674)"/>
<use xlink:href="#font_1_39" transform="matrix(10.90909,0,0,-10.90909,281.852,8.453947)"/>
<use xlink:href="#font_1_2a" transform="matrix(10.90909,0,0,-10.90909,289.18293,8.453947)"/>
<use xlink:href="#font_1_2a" transform="matrix(10.90909,0,0,-10.90909,292.4229,8.453947)"/>
<use xlink:href="#font_1_2a" transform="matrix(10.90909,0,0,-10.90909,295.6629,8.453947)"/>
<use xlink:href="#font_1_f" transform="matrix(10.90909,0,0,-10.90909,299.3829,8.54122)"/>
<use xlink:href="#font_1_54" transform="matrix(10.90909,0,0,-10.90909,304.412,8.54122)"/>
<use xlink:href="#font_1_f" transform="matrix(10.90909,0,0,-10.90909,308.7647,8.54122)"/>
<symbol id="font_1_22">
<path d="M .26200003 .28500004 C .24000001 .28500004 .23300001 .28800003 .23600002 .298 L .33900003 .557 L .34500004 .557 L .43900005 .28500004 L .26200003 .28500004 M .154 .081 L .209 .22600001 C .214 .23900002 .22000002 .24300002 .244 .24300002 L .45500005 .24300002 L .513 .074 C .52400007 .039 .48600004 .036000004 .43900005 .033 C .43300004 .027 .43300004 .006 .43900005 0 C .47600005 .001 .531 .002 .57000008 .002 C .61100009 .002 .64900007 .001 .6840001 0 C .69000008 .006 .69000008 .027 .6840001 .033 C .64500007 .036000004 .61100009 .039 .59400007 .088 L .38800005 .66 C .37300004 .651 .34600003 .64 .33300004 .64 L .106000009 .104 C .08 .042000005 .049000004 .036000004 .006 .033 C 0 .027 0 .006 .006 0 C .032 .001 .064 .002 .095 .002 C .136 .002 .186 .001 .223 0 C .229 .006 .229 .027 .223 .033 C .185 .035 .13800001 .039 .154 .081 Z "/>
</symbol>
<use xlink:href="#font_1_22" transform="matrix(37.85803,0,0,-37.85803,7.273858,56.169958)"/>
<symbol id="font_2_16">
<path d="M .27100004 .19800002 C .27100004 .1 .23600002 .044000005 .18100001 .044000005 C .16100002 .044000005 .142 .064 .126 .089 C .113000009 .109000008 .088 .128 .051000008 .128 C .015000001 .128 0 .103 0 .081 C 0 .063 .013999999 .041 .040000008 .028 C .07800001 .0070000009 .13900002 0 .187 0 C .32 0 .407 .109000008 .407 .22900002 C .407 .329 .33500005 .404 .21700002 .404 C .186 .404 .12300001 .397 .09900001 .391 C .106000009 .44300003 .112 .49100004 .118 .523 C .15 .52000007 .221 .518 .263 .518 C .29900003 .518 .31700004 .52000007 .37800003 .524 L .397 .61 L .374 .623 C .301 .616 .264 .61 .20400001 .61 C .163 .61 .13100001 .616 .074 .62 L .034 .322 L .047000007 .314 C .120000008 .34100003 .13800001 .34800003 .18800001 .34800003 C .235 .34800003 .27100004 .298 .27100004 .19800002 Z "/>
</symbol>
<symbol id="font_2_f">
<path d="M 0 .068 C 0 .030000002 .031999999 0 .072000008 0 C .11200001 0 .146 .032 .146 .07 C .146 .109000008 .114 .13900002 .074 .13900002 C .034 .13900002 0 .107 0 .068 Z "/>
</symbol>
<use xlink:href="#font_2_16" transform="matrix(10.90909,0,0,-10.90909,16.824276,19.880087)"/>
<use xlink:href="#font_2_f" transform="matrix(10.90909,0,0,-10.90909,22.398819,19.880087)"/>
<path transform="matrix(1,0,0,-1,39.783998,14.294922)" stroke-width=".388" stroke-linecap="butt" stroke-miterlimit="10" stroke-linejoin="miter" fill="none" stroke="#000000" d="M 0 0 L 270.76 0 "/>
<path transform="matrix(1,0,0,-1,39.783998,22.436036)" stroke-width=".388" stroke-linecap="butt" stroke-miterlimit="10" stroke-linejoin="miter" fill="none" stroke="#000000" d="M 0 0 L 270.76 0 "/>
<path transform="matrix(1,0,0,-1,39.783998,30.576172)" stroke-width=".388" stroke-linecap="butt" stroke-miterlimit="10" stroke-linejoin="miter" fill="none" stroke="#000000" d="M 0 0 L 270.76 0 "/>
<path transform="matrix(1,0,0,-1,39.783998,38.716798)" stroke-width=".388" stroke-linecap="butt" stroke-miterlimit="10" stroke-linejoin="miter" fill="none" stroke="#000000" d="M 0 0 L 270.76 0 "/>
<symbol id="font_3_d">
<path d="M 0 .106000009 L 0 .432 C 0 .46533335 .009666667 .49066673 .029000001 .508 C .048333337 .526 .07466667 .535 .108 .535 C .12666668 .5343334 .14100002 .52933338 .15100001 .52000007 C .16100002 .5113334 .16600001 .5 .16600001 .486 L .16600001 .31 L .156 .319 C .13666667 .33633337 .11200001 .345 .082 .345 C .054 .345 .033000005 .332 .019000002 .306 C .013000001 .29466669 .010000001 .282 .010000001 .268 C .010000001 .2546667 .013333335 .24200003 .020000002 .23000002 C .02666667 .21866668 .035333337 .20966669 .046000005 .20300001 C .057333337 .19633335 .06933334 .19300002 .082 .19300002 C .11266667 .19300002 .13733334 .20100002 .156 .21700001 L .16600001 .22700002 L .16600001 .050000006 C .16600001 .039333337 .163 .030333335 .157 .023000002 C .15166667 .0150000019 .14466667 .009333335 .136 .006000001 C .12733335 .0020000004 .118 0 .108 0 C .07466667 .000666668 .048333337 .010333336 .029000001 .029000003 C .009666667 .047000003 0 .07266667 0 .106000009 Z "/>
</symbol>
<use xlink:href="#font_3_d" transform="matrix(25.84303,0,0,-25.84303,39.783998,29.348664)"/>
<symbol id="font_1_e">
<path d="M .23100002 0 C .244 0 .25800003 .028000012 .25800003 .040000008 C .25800003 .049999998 .254 .060000019 .244 .060000019 L .025000003 .060000019 C .013 .060000019 0 .037000017 0 .019000009 C 0 .009000003 .006000001 0 .015000001 0 L .23100002 0 Z "/>
</symbol>
<use xlink:href="#font_1_e" transform="matrix(11.95517,0,0,-11.95517,51.799207,53.428236)"/>
<symbol id="font_3_40">
<path d="M .082 .20500002 C .10066667 .205 .116000007 .20333334 .128 .2 C .14066667 .19666668 .14999999 .19133334 .156 .184 C .16266668 .17733334 .16600001 .16866668 .16600001 .158 L .16600001 0 C .14800002 .018666668 .120333347 .028000003 .083000008 .028 C .04566667 .028000003 .018000002 .018666668 0 0 L 0 .158 C 0 .18933334 .027333335 .205 .082 .20500002 Z "/>
</symbol>
<use xlink:href="#font_3_40" transform="matrix(25.84303,0,0,-25.84303,49.176004,41.456228)"/>
<symbol id="font_1_48">
<path d="M .287 .517 C .287 .42400003 .24000001 .40500004 .20300001 .40500004 C .119 .40500004 .11 .476 .11 .54 C .11 .61 .135 .646 .19000001 .646 C .25300003 .646 .287 .6 .287 .517 M .099999997 .228 C .111 .22500001 .127 .223 .14 .223 C .171 .223 .199 .22600001 .213 .22600001 C .263 .22600001 .305 .22500001 .33400003 .209 C .37300004 .187 .38500003 .17300001 .38500003 .147 C .38500003 .075 .279 .037 .18900001 .037 C .153 .037 .069000009 .066 .069000009 .134 C .069000009 .16800002 .07100001 .193 .099999997 .228 M .41200004 .625 C .43100003 .625 .44900004 .643 .44900004 .663 C .44900004 .684 .43 .70000007 .40300004 .70000007 C .377 .70000007 .32900004 .683 .303 .64900007 C .291 .65700009 .25800003 .67700007 .199 .67700007 C .11 .67700007 .028 .617 .028 .525 C .028 .47100003 .052000006 .44 .08 .41300003 C .052000006 .389 .036000004 .34600003 .036000004 .312 C .036000004 .27600003 .056000007 .24800001 .082 .235 C .028 .20300001 0 .157 0 .114 C 0 .026999996 .082 0 .15900001 0 C .294 0 .44000004 .065 .44000004 .17300001 C .44000004 .20500002 .425 .23 .39600004 .254 C .35700003 .286 .287 .287 .25 .287 C .232 .287 .207 .285 .183 .282 C .168 .28100003 .158 .28 .153 .28 C .124 .28 .089 .294 .089 .337 C .089 .357 .095 .37800003 .10700001 .395 C .131 .381 .15900001 .374 .198 .374 C .286 .374 .367 .42900003 .367 .527 C .367 .574 .35300002 .601 .324 .63100007 C .331 .64100006 .351 .65500006 .36400003 .65500006 C .37100003 .65500006 .37800003 .65200009 .384 .643 C .388 .635 .40100003 .625 .41200004 .625 Z "/>
</symbol>
<symbol id="font_1_4f">
<path d="M .16400002 .36 C .157 .35300002 .15200001 .35000003 .15200001 .36 C .15100001 .38700003 .14800002 .425 .14400001 .43600003 C .14100002 .44000004 .14000002 .44400005 .13200002 .44400005 C .104 .43300004 .078 .42400003 .009 .41500003 C .0069999995 .409 .009 .39300005 .011 .38700003 C .065 .38200004 .076 .37700004 .076 .319 L .076 .124000009 C .076 .042000005 .066 .038000004 .005999999 .033 C 0 .027 0 .006 .005999999 0 C .036 .001 .076 .002 .116000007 .002 C .15600002 .002 .18600002 .001 .21600002 0 C .22200002 .006 .22200002 .027 .21600002 .033 C .165 .038000004 .15500002 .042000005 .15500002 .124000009 L .15500002 .28800003 C .15500002 .30900003 .16400002 .321 .172 .33 C .21000001 .367 .255 .38900004 .294 .38900004 C .314 .38900004 .335 .37600003 .347 .35300002 C .357 .33300004 .359 .30600003 .359 .27600003 L .359 .124000009 C .359 .042000005 .349 .038000004 .297 .033 C .292 .027 .292 .006 .297 0 C .327 .001 .359 .002 .39900003 .002 C .439 .002 .47500003 .001 .50500008 0 C .51000007 .006 .51000007 .027 .50500008 .033 C .449 .038000004 .43800003 .042000005 .43800003 .124000009 L .43800003 .27300004 C .43800003 .328 .43400003 .37600003 .411 .40700004 C .39400003 .42900003 .363 .441 .328 .441 C .279 .441 .22300002 .42800004 .16400002 .36 Z "/>
</symbol>
<symbol id="font_1_56">
<path d="M .19700001 .0029999996 C .23600002 .0029999996 .283 .023000002 .33200003 .063 C .337 .067 .34600003 .069000009 .347 .062000004 C .349 .036000004 .358 .0029999996 .358 .0029999996 C .366 0 .37 0 .377 .0029999996 C .39900003 .021000002 .43400003 .036000004 .49500004 .043 C .50100007 .049000004 .50100007 .064 .49500004 .07000001 C .43100003 .075 .42200003 .094 .42200003 .143 L .42200003 .33500005 C .42200003 .36500005 .426 .43800003 .426 .43800003 C .426 .44100005 .423 .44400005 .418 .44400005 C .41300003 .44300003 .398 .44200004 .38300003 .44200004 C .351 .44200004 .315 .44300003 .28100003 .44400005 C .275 .43800003 .275 .41700004 .28100003 .41100005 C .33 .40800003 .343 .39600004 .343 .33 L .343 .13700001 C .343 .118 .34100003 .11 .327 .098000008 C .29 .066 .252 .05 .22700002 .05 C .19700001 .05 .14700002 .064 .14700002 .153 L .14700002 .33500005 C .14700002 .36500005 .15100001 .43800003 .15100001 .43800003 C .15100001 .44100005 .14800002 .44400005 .143 .44400005 C .13800001 .44300003 .123 .44200004 .108 .44200004 C .076 .44200004 .04 .44300003 .005999999 .44400005 C 0 .43800003 0 .41700004 .005999999 .41100005 C .053999999 .40700004 .068 .39600004 .068 .33100004 L .068 .139 C .068 .07000001 .098000008 .0029999996 .19700001 .0029999996 Z "/>
</symbol>
<use xlink:href="#font_1_48" transform="matrix(11.95517,0,0,-11.95517,55.771566,58.939569)"/>
<use xlink:href="#font_1_4f" transform="matrix(11.95517,0,0,-11.95517,61.605684,56.11815)"/>
<use xlink:href="#font_1_56" transform="matrix(11.95517,0,0,-11.95517,68.08539,56.249658)"/>
<use xlink:href="#font_1_54" transform="matrix(11.95517,0,0,-11.95517,74.76832,56.21379)"/>
<symbol id="font_3_105">
<path d="M 0 .016 L 0 .169 C 0 .175 .002 .17800002 .006 .178 L .010000001 .178 C .031333336 .17400001 .051000004 .172 .069000009 .172 C .07300001 .172 .077 .172 .081 .172 C .085 .172 .08866668 .172 .09200001 .172 C .09600001 .17266667 .09933334 .17300003 .102000009 .17300001 C .116666678 .17300003 .128 .17566668 .136 .18100001 C .14400001 .18633335 .148 .19333335 .148 .202 L .148 .28900004 C .148 .29900003 .14600002 .3076667 .142 .31500004 C .13800001 .32300005 .13133334 .3296667 .12200001 .33500005 C .113333348 .34033338 .10233334 .34300003 .089 .34300003 C .057 .34300003 .031000002 .33600006 .011000001 .32200004 L .011000001 .45100004 C .011000001 .48366667 .037 .5 .089 .5 C .10966667 .5 .12766667 .49633337 .143 .48900003 C .15833335 .4816667 .16600001 .469 .16600001 .45100004 L .16600001 .017 C .16600001 .013000001 .15966667 .009333334 .147 .006000001 C .135 .0020000004 .12166667 0 .10700001 0 C .10366667 0 .09933334 .0003333334 .094000007 .0010000002 C .08866667 .0010000002 .082 .0010000002 .074 .0010000002 C .052 .0010000002 .036333335 .0016666669 .027 .0030000006 C .009000001 .0063333346 0 .010666668 0 .016 Z "/>
</symbol>
<use xlink:href="#font_3_105" transform="matrix(25.84303,0,0,-25.84303,68.875,32.901628)"/>
<symbol id="font_1_25">
<path d="M .17800002 .086 L .17800002 .566 C .17800002 .601 .21300002 .615 .262 .615 C .47800002 .615 .549 .44000004 .549 .286 C .549 .084 .428 .034 .287 .034 C .18900001 .034 .17800002 .054 .17800002 .086 M .135 .647 C .09900001 .647 .046000005 .648 .006000001 .649 C 0 .643 0 .622 .006000001 .616 C .076000008 .613 .09300001 .608 .09300001 .525 L .09300001 .124000009 C .09300001 .041 .076000008 .036000004 .006000001 .033 C 0 .027 0 .006 .006000001 0 C .045 .001 .098000008 .002 .136 .002 C .17300001 .002 .21500002 0 .31800003 0 C .45900003 0 .64500007 .064 .64500007 .31000004 C .64500007 .49600003 .49199999 .649 .3 .649 C .22900002 .649 .17400001 .647 .135 .647 Z "/>
</symbol>
<symbol id="font_1_46">
<path d="M .087000008 .292 C .106000009 .405 .17600002 .414 .20000002 .414 C .238 .414 .28300003 .393 .28300003 .30900003 C .28300003 .3 .279 .29500003 .268 .29500003 L .087000008 .292 M .349 .103 C .312 .065000008 .28300003 .049000004 .22500003 .049000004 C .18900001 .049000004 .14700002 .07 .11600001 .12100001 C .096 .15400002 .08400001 .20000002 .08400001 .25800003 L .35000003 .256 C .36200003 .256 .36900003 .262 .36900003 .273 C .36900003 .357 .33900003 .447 .20000002 .447 C .113000009 .447 0 .364 0 .21200001 C 0 .15600002 .014000002 .102000009 .047000007 .064 C .08100001 .024 .128 0 .20000002 0 C .27600003 0 .33 .035 .37 .087000008 C .367 .097 .36100004 .102000009 .349 .103 Z "/>
</symbol>
<use xlink:href="#font_1_25" transform="matrix(11.95517,0,0,-11.95517,83.85842,56.11815)"/>
<use xlink:href="#font_1_46" transform="matrix(11.95517,0,0,-11.95517,92.52592,56.21379)"/>
<use xlink:href="#font_1_e" transform="matrix(11.95517,0,0,-11.95517,97.90575,53.428236)"/>
<symbol id="font_3_f3">
<path d="M 0 .48000003 C 0 .49600003 .0066666675 .508 .020000002 .51600006 C .034 .524 .055000005 .528 .083000008 .528 C .13833334 .528 .16600001 .512 .16600001 .48000003 L .16600001 .020999998 C .16600001 .008999993 .16233334 .001999994 .155 0 C .15300001 0 .15166669 .00033333899 .15100001 .0010000169 C .15033335 .001666675 .14966667 .0036666692 .149 .0069999995 C .149 .009666671 .14866667 .014000009 .148 .02000001 C .148 .026000014 .148 .035000009 .148 .04699999 L .148 .32700003 C .13133334 .3416667 .10966667 .349 .083000008 .349 C .045 .349 .017333335 .34033335 0 .323 L 0 .48000003 Z "/>
</symbol>
<symbol id="font_3_1a">
<path d="M 0 .119 L .080000009 .25500003 L .185 .134 L .104 0 L 0 .119 Z "/>
</symbol>
<use xlink:href="#font_3_f3" transform="matrix(25.84303,0,0,-25.84303,92.61099,33.419397)"/>
<use xlink:href="#font_3_1a" transform="matrix(25.84303,0,0,-25.84303,98.403,33.909505)"/>
<use xlink:href="#font_3_1a" transform="matrix(25.84303,0,0,-25.84303,102.074008,37.980794)"/>
<use xlink:href="#font_3_40" transform="matrix(25.84303,0,0,-25.84303,108.819,25.175467)"/>
<symbol id="font_1_4a">
<path d="M .066 .601 C .066 .575 .09 .549 .11400001 .549 C .142 .549 .16600001 .575 .16600001 .597 C .16600001 .621 .14500001 .649 .118 .649 C .09400001 .649 .066 .625 .066 .601 M .157 .124000009 L .157 .323 C .157 .37300004 .161 .43700005 .161 .43700005 C .161 .441 .156 .44400005 .148 .44400005 C .119 .43300004 .08 .42400003 .011 .41500003 C .009 .409 .011 .39300005 .013 .38700003 C .067 .381 .07800001 .37600003 .07800001 .319 L .07800001 .124000009 C .07800001 .041 .067 .038000004 .006000001 .033 C 0 .027 0 .006 .006000001 0 C .039 .001 .07800001 .002 .118 .002 C .158 .002 .19600001 .001 .22900002 0 C .235 .006 .235 .027 .22900002 .033 C .168 .037 .157 .041 .157 .124000009 Z "/>
</symbol>
<symbol id="font_1_d">
<path d="M .061 .22800002 C .030000005 .22800002 .008000001 .207 .008000001 .179 C .008000001 .147 .034000007 .138 .052000006 .135 C .07100001 .133 .088000018 .127 .088000018 .104 C .088000018 .083000008 .052000006 .037 0 .023999997 C 0 .013999999 .0020000004 .0069999995 .009 0 C .069000009 .0109999929 .127 .059 .127 .12900001 C .127 .18900001 .10100001 .22800002 .061 .22800002 Z "/>
</symbol>
<use xlink:href="#font_1_4a" transform="matrix(11.95517,0,0,-11.95517,120.75192,56.11815)"/>
<use xlink:href="#font_1_d" transform="matrix(11.95517,0,0,-11.95517,124.21892,57.684278)"/>
<symbol id="font_3_1ae">
<path d="M 0 .020999998 L 0 .395 C 0 .42700003 .028000003 .443 .08400001 .44300003 C .11200001 .443 .13266666 .439 .14600002 .43100003 C .15933335 .423 .16600001 .411 .16600001 .395 L .16600001 .24100001 C .17 .26766668 .19733334 .28100003 .24800001 .28100003 C .30400003 .28100003 .33200003 .26533336 .33200003 .23400001 L .33200003 .07700001 C .314 .095000009 .28633336 .104 .24900002 .104 C .21166666 .104 .18400002 .095000009 .16600001 .07700001 L .16600001 .238 C .14866667 .25533334 .121 .264 .083000008 .264 C .056333335 .264 .03466667 .25666667 .018000002 .24200002 L .018000002 .047000007 C .018000002 .035 .017666668 .026000003 .017 .02000001 C .017 .014000009 .016666668 .009666671 .016 .0069999995 C .016 .0036666692 .015666668 .0016666651 .015000001 .0009999871 C .014333334 .00033332906 .013 0 .011000001 0 C .0076666676 .0006666581 .0050000005 .0029999912 .003 .0069999995 C .001 .010333329 0 .014999996 0 .020999998 Z "/>
</symbol>
<symbol id="font_3_26">
<path d="M 0 .96000006 L .019000002 .96000006 L .019000002 0 L 0 0 L 0 .96000006 Z "/>
</symbol>
<use xlink:href="#font_3_1ae" transform="matrix(25.84303,0,0,-25.84303,119.94,27.152424)"/>
<use xlink:href="#font_3_26" transform="matrix(25.84303,0,0,-25.84303,135.118,38.884744)"/>
<use xlink:href="#font_3_26" transform="matrix(25.84303,0,0,-25.84303,138.71018,38.884744)"/>
<symbol id="font_1_52">
<path d="M .28700004 .60200008 C .307 .58000007 .31100003 .56500008 .31100003 .541 L .31100003 .31100003 C .31100003 .293 .31000004 .28800003 .29700003 .28100003 C .27300004 .26900003 .24600002 .268 .231 .268 C .17300001 .268 .08600001 .31 .08600001 .46100004 C .08600001 .56500008 .128 .63900008 .20800002 .63900008 C .238 .63900008 .26500003 .62600007 .28700004 .60200008 M .31100003 .123 C .31100003 .040000008 .3 .036 .23900002 .033000009 C .23300001 .026999996 .23300001 .0059999974 .23900002 0 C .27400003 .001000002 .31100003 .002000004 .351 .002000004 C .39100004 .002000004 .42900003 .001000002 .462 0 C .46800003 .0059999974 .46800003 .026999996 .462 .033000009 C .40100003 .036 .39000003 .040000008 .39000003 .123 L .39000003 .651 C .39000003 .665 .38600005 .67600008 .37500004 .67600008 C .36800004 .67600008 .36200003 .66800007 .35400004 .657 C .34100003 .63900008 .337 .63600006 .32500003 .643 C .293 .66400006 .254 .67300006 .21200001 .67300006 C .09 .67300006 0 .573 0 .44100005 C 0 .34800003 .06300001 .224 .20700002 .224 C .23400003 .224 .26600004 .22900002 .284 .23900001 C .307 .25300003 .31100003 .25500003 .31100003 .23400001 L .31100003 .123 Z "/>
</symbol>
<use xlink:href="#font_1_52" transform="matrix(11.95517,0,0,-11.95517,134.38143,58.891748)"/>
<use xlink:href="#font_1_56" transform="matrix(11.95517,0,0,-11.95517,140.21555,56.249658)"/>
<use xlink:href="#font_1_4a" transform="matrix(11.95517,0,0,-11.95517,146.61156,56.11815)"/>
<symbol id="font_3_104">
<path d="M .13100001 0 C .12566668 0 .11766667 .0003333334 .10700001 .0010000002 C .09633335 .0010000002 .08666667 .0010000002 .078 .0010000002 C .07 .0010000002 .06033333 .0010000002 .049000004 .0010000002 C .038333335 .0003333334 .03133333 0 .028 0 C .016 0 .008333334 .0006666668 .0050000005 .0020000004 C .0016666668 .002666667 0 .0050000005 0 .009 L 0 .143 C 0 .149 .002 .152 .006 .152 L .010000001 .152 C .014666668 .15133333 .036333335 .15100001 .075 .15100001 L .109000008 .15100001 C .12033334 .15100001 .128 .15100001 .132 .15100001 C .13666667 .15166666 .14033334 .153 .143 .155 C .14633334 .15766667 .148 .162 .148 .168 C .148 .198 .12833333 .213 .089 .213 C .057 .213 .031000002 .20600002 .011000001 .192 L .011000001 .321 C .011000001 .35433338 .037 .37100003 .089 .37100003 C .10966667 .37100003 .12766667 .367 .143 .35900004 C .15833335 .3516667 .16600001 .33900003 .16600001 .321 L .16600001 .01 C .16600001 .007999999 .16533335 .0063333327 .164 .004999999 C .16333334 .0036666666 .16133334 .002666667 .158 .0020000004 C .15466668 .0013333336 .15066667 .0010000002 .14600002 .0010000002 C .142 .0003333334 .13700001 0 .13100001 0 Z "/>
</symbol>
<use xlink:href="#font_3_40" transform="matrix(25.84303,0,0,-25.84303,145.8,25.175467)"/>
<use xlink:href="#font_3_104" transform="matrix(25.84303,0,0,-25.84303,150.09,20.872567)"/>
<symbol id="font_1_55">
<path d="M .018000002 .439 C .0040000008 .439 0 .42700003 0 .419 L 0 .40600003 C 0 .40100003 .0010000002 .4 .005000001 .4 L .064 .4 L .064 .099 C .064 .028 .095000009 0 .141 0 C .187 0 .23700002 .022 .27600003 .066 C .27400003 .076 .268 .082 .25800003 .083000008 C .232 .063 .202 .055000005 .176 .055000005 C .149 .055000005 .143 .085 .143 .14700002 L .143 .4 L .24700001 .4 C .257 .4 .271 .404 .271 .41300003 L .271 .433 C .271 .437 .268 .439 .263 .439 L .143 .439 L .143 .47800002 C .143 .54300007 .147 .583 .147 .583 C .147 .58900007 .14400001 .591 .139 .591 C .134 .591 .126 .587 .117000009 .582 C .10500001 .57600006 .095000009 .572 .083000008 .568 C .071 .565 .061000006 .561 .061000006 .555 C .061000006 .54300007 .064 .55 .064 .439 L .018000002 .439 Z "/>
</symbol>
<symbol id="font_1_50">
<path d="M 0 .21500002 C 0 .113000009 .068 0 .21000001 0 C .27400003 0 .322 .022 .356 .056000007 C .40100003 .099 .42200003 .16200002 .42200003 .22400002 C .42200003 .328 .365 .449 .21200001 .449 C .146 .449 .091 .42200003 .055 .379 C .019000002 .336 0 .278 0 .21500002 M .197 .414 C .283 .414 .336 .336 .336 .19200002 C .336 .066 .271 .035 .224 .035 C .12000001 .035 .086 .16100002 .086 .23800002 C .086 .32500003 .107 .414 .197 .414 Z "/>
</symbol>
<symbol id="font_1_4d">
<path d="M .07800001 .124000009 C .07800001 .041 .067 .036000004 .006000001 .033 C 0 .027 0 .006 .006000001 0 C .041 .001 .07800001 .002 .118 .002 C .158 .002 .19600001 .001 .229 0 C .235 .006 .235 .027 .229 .033 C .168 .036000004 .157 .041 .157 .124000009 L .157 .585 C .157 .65 .161 .69 .161 .69 C .161 .697 .157 .7 .148 .7 C .122999999 .69 .048000006 .676 .007999999 .673 C .006000001 .665 .007999999 .649 .014 .643 C .072 .639 .07800001 .636 .07800001 .561 L .07800001 .124000009 Z "/>
</symbol>
<use xlink:href="#font_1_55" transform="matrix(11.95517,0,0,-11.95517,158.28087,56.21379)"/>
<use xlink:href="#font_1_50" transform="matrix(11.95517,0,0,-11.95517,162.24999,56.21379)"/>
<use xlink:href="#font_1_4d" transform="matrix(11.95517,0,0,-11.95517,167.98847,56.11815)"/>
<use xlink:href="#font_1_e" transform="matrix(11.95517,0,0,-11.95517,171.4196,53.428236)"/>
<symbol id="font_3_f2">
<path d="M 0 .395 C 0 .411 .0066666675 .423 .020000002 .43100003 C .034 .439 .055000005 .443 .083000008 .44300003 C .13833334 .443 .16600001 .42700003 .16600001 .395 L .16600001 .020999998 C .16600001 .008999993 .16233334 .001999994 .155 0 C .15300001 0 .15166669 .00033332906 .15100001 .0009999871 C .15033335 .0016666651 .14966667 .0036666692 .149 .0069999995 C .149 .009666671 .14866667 .014000009 .148 .02000001 C .148 .026000003 .148 .035 .148 .047000007 L .148 .24200002 C .13133334 .25666667 .10966667 .264 .083000008 .264 C .045 .264 .017333335 .25533334 0 .238 L 0 .395 Z "/>
</symbol>
<use xlink:href="#font_3_f2" transform="matrix(25.84303,0,0,-25.84303,162.627,19.011799)"/>
<use xlink:href="#font_3_1a" transform="matrix(25.84303,0,0,-25.84303,168.42,17.628743)"/>
<use xlink:href="#font_3_1a" transform="matrix(25.84303,0,0,-25.84303,172.09,21.699543)"/>
<use xlink:href="#font_3_1a" transform="matrix(25.84303,0,0,-25.84303,175.761,25.769856)"/>
<use xlink:href="#font_3_40" transform="matrix(25.84303,0,0,-25.84303,182.508,21.105154)"/>
<use xlink:href="#font_1_4d" transform="matrix(11.95517,0,0,-11.95517,191.20024,56.11815)"/>
<use xlink:href="#font_1_4a" transform="matrix(11.95517,0,0,-11.95517,194.4401,56.11815)"/>
<use xlink:href="#font_1_54" transform="matrix(11.95517,0,0,-11.95517,197.96686,56.21379)"/>
<symbol id="font_3_1b">
<path d="M 0 0 L 0 .47100003 C .002 .47433339 .008 .47633339 .018000002 .47700004 L .018000002 0 L 0 0 Z "/>
</symbol>
<use xlink:href="#font_3_40" transform="matrix(25.84303,0,0,-25.84303,193.62799,25.175467)"/>
<use xlink:href="#font_3_1b" transform="matrix(25.84303,0,0,-25.84303,205.86899,30.744187)"/>
<symbol id="font_1_51">
<path d="M .17300001 .56500008 C .199 .597 .244 .62700006 .27400003 .62700006 C .338 .62700006 .393 .555 .393 .44200004 C .393 .36 .36400003 .25800003 .252 .25800003 C .23400001 .25800003 .199 .263 .18100001 .279 C .16 .29700003 .157 .30200003 .157 .33900003 L .157 .521 C .157 .54200008 .161 .55 .17300001 .56500008 M .154 .60200008 C .15200001 .632 .15 .657 .146 .66800007 C .143 .67200008 .142 .67600008 .134 .67600008 C .106000009 .665 .080000009 .656 .011 .647 C .009000001 .64100006 .011 .62500008 .013 .619 C .06700001 .614 .07800001 .609 .07800001 .551 L .07800001 .124000009 C .07800001 .04100001 .06700001 .036 .006 .033000009 C 0 .026999996 0 .0059999974 .006 0 C .041 .001000002 .07800001 .002000004 .11800001 .002000004 C .158 .002000004 .206 .001000002 .23900001 0 C .245 .0059999974 .245 .026999996 .23900001 .033000009 C .168 .037 .157 .04100001 .157 .124000009 L .157 .23200001 C .157 .24500002 .16 .24300002 .171 .23900001 C .19500001 .22900002 .22600001 .224 .25800003 .224 C .314 .224 .36400003 .24100001 .405 .28000004 C .45200003 .32600004 .47900004 .388 .47900004 .46900005 C .47900004 .57500007 .404 .67300006 .30200003 .67300006 C .255 .67300006 .20400001 .642 .165 .59800007 C .15900001 .591 .154 .592 .154 .60200008 Z "/>
</symbol>
<use xlink:href="#font_1_51" transform="matrix(11.95517,0,0,-11.95517,207.4929,58.891748)"/>
<use xlink:href="#font_1_46" transform="matrix(11.95517,0,0,-11.95517,214.19976,56.21379)"/>
<use xlink:href="#font_3_40" transform="matrix(25.84303,0,0,-25.84303,214.284,12.964529)"/>
<symbol id="font_1_44">
<path d="M .36100004 .101 C .35700003 .11 .349 .114 .34 .115 C .30600003 .071 .263 .049000004 .22 .049000004 C .14700002 .049000004 .086 .123 .086 .24000001 C .086 .35 .134 .416 .20000002 .416 C .259 .416 .26700003 .381 .27100004 .34600003 C .27400003 .319 .28800003 .31 .30900003 .31 C .33 .31 .358 .323 .358 .354 C .358 .409 .30100004 .449 .20500002 .449 C .106000009 .449 0 .36 0 .21800001 C 0 .089 .072000008 0 .19800002 0 C .25800003 0 .31100003 .019000002 .36100004 .101 Z "/>
</symbol>
<symbol id="font_1_a1">
<path d="M .20800002 .681 L .13200002 .56200006 C .12400001 .549 .12100001 .545 .12100001 .53400006 C .12100001 .527 .128 .521 .135 .521 C .142 .521 .15 .52500006 .165 .54 L .28 .64900007 L .277 .66 C .254 .68200007 .228 .683 .22200002 .683 C .21700002 .683 .21100001 .68200007 .20800002 .681 M .257 .24300002 L .257 .111 C .257 .098000008 .251 .091 .24300002 .085 C .21700002 .064 .18300002 .041 .15500002 .041 C .105000007 .041 .083000008 .081 .083000008 .112 C .083000008 .157 .104 .20300001 .17800002 .22200002 L .257 .24300002 M .257 .058000003 C .263 .027000003 .273 0 .324 0 C .36200003 0 .398 .017 .419 .037 C .417 .049000004 .41300003 .057000005 .402 .064 C .394 .057000005 .377 .048000006 .365 .048000006 C .336 .048000006 .335 .087000008 .335 .133 L .335 .28 C .335 .42200003 .257 .449 .18400002 .449 C .10200001 .449 .019000002 .395 .019000002 .338 C .019000002 .314 .031 .30200003 .054 .30200003 C .083000008 .30200003 .10100001 .323 .10100001 .336 C .10100001 .343 .10000001 .35 .098000008 .354 C .097 .357 .096 .363 .096 .374 C .096 .405 .13800001 .416 .17600002 .416 C .21000001 .416 .257 .39900003 .257 .286 C .257 .279 .254 .275 .251 .274 L .165 .25300003 C .069000009 .22900002 0 .17600002 0 .108 C 0 .026 .056000007 0 .126 0 C .16000001 0 .19100002 .008 .23500003 .042000005 L .255 .058000003 L .257 .058000003 Z "/>
</symbol>
<use xlink:href="#font_1_44" transform="matrix(11.95517,0,0,-11.95517,219.54335,56.21379)"/>
<use xlink:href="#font_1_44" transform="matrix(11.95517,0,0,-11.95517,224.66017,56.21379)"/>
<use xlink:href="#font_1_a1" transform="matrix(11.95517,0,0,-11.95517,229.76505,56.21379)"/>
<use xlink:href="#font_1_e" transform="matrix(11.95517,0,0,-11.95517,235.27637,53.428236)"/>
<use xlink:href="#font_3_40" transform="matrix(25.84303,0,0,-25.84303,229.922,21.105154)"/>
<symbol id="font_1_42">
<path d="M .257 .24300002 L .257 .111 C .257 .098000008 .251 .091 .24300002 .085 C .21700002 .064 .18300002 .041 .15500002 .041 C .105000007 .041 .083000008 .081 .083000008 .112 C .083000008 .157 .104 .20300001 .17800002 .22200002 L .257 .24300002 M .257 .058000003 C .263 .027000003 .273 0 .324 0 C .36200003 0 .398 .017 .419 .037 C .417 .049000004 .41300003 .057000005 .402 .064 C .394 .057000005 .377 .048000006 .365 .048000006 C .336 .048000006 .335 .087000008 .335 .133 L .335 .28 C .335 .42200003 .257 .449 .18400002 .449 C .10200001 .449 .019000002 .395 .019000002 .338 C .019000002 .314 .031 .30200003 .054 .30200003 C .083000008 .30200003 .10100001 .323 .10100001 .336 C .10100001 .343 .10000001 .35 .098000008 .354 C .097 .357 .096 .363 .096 .374 C .096 .405 .13800001 .416 .17600002 .416 C .21000001 .416 .257 .39900003 .257 .286 C .257 .279 .254 .275 .251 .274 L .165 .25300003 C .069000009 .22900002 0 .17600002 0 .108 C 0 .026 .056000007 0 .126 0 C .16000001 0 .19100002 .008 .23500003 .042000005 L .255 .058000003 L .257 .058000003 Z "/>
</symbol>
<use xlink:href="#font_1_55" transform="matrix(11.95517,0,0,-11.95517,239.16487,56.21379)"/>
<use xlink:href="#font_1_42" transform="matrix(11.95517,0,0,-11.95517,243.07422,56.21379)"/>
<use xlink:href="#font_3_40" transform="matrix(25.84303,0,0,-25.84303,243.23099,12.964529)"/>
<symbol id="font_1_4e">
<path d="M .15 .36 C .14800002 .38900004 .14600002 .425 .142 .43600003 C .13900002 .44000004 .13800001 .44400005 .13000001 .44400005 C .102000009 .43300004 .076 .42400003 .0069999995 .41500003 C .004999999 .409 .0069999995 .39300005 .009 .38700003 C .063 .38200004 .074 .37700004 .074 .319 L .074 .124000009 C .074 .042000005 .060999998 .037 .005999999 .033 C 0 .027 0 .006 .005999999 0 C .036 .001 .074 .002 .114 .002 C .15400002 .002 .18400002 .001 .21400002 0 C .22000002 .006 .22000002 .027 .21400002 .033 C .16400002 .038000004 .15300001 .042000005 .15300001 .124000009 L .15300001 .28800003 C .15300001 .30900003 .16200002 .321 .17000002 .33 C .20900002 .36800004 .24700003 .38900004 .278 .38900004 C .316 .38900004 .344 .365 .344 .298 L .344 .124000009 C .344 .042000005 .336 .037 .282 .033 C .277 .027 .277 .006 .282 0 C .307 .001 .344 .002 .384 .002 C .42400003 .002 .45700003 .001 .48200003 0 C .48700003 .006 .48700003 .027 .48200003 .033 C .432 .037 .423 .042000005 .423 .124000009 L .423 .28300003 C .423 .29700003 .423 .31100003 .42200003 .323 C .47 .37600003 .51500007 .38900004 .554 .38900004 C .59200009 .38900004 .614 .367 .614 .3 L .614 .124000009 C .614 .042000005 .60400006 .037 .55200007 .033 C .54700008 .027 .54700008 .006 .55200007 0 C .577 .001 .614 .002 .65400007 .002 C .69400009 .002 .72900006 .001 .757 0 C .7620001 .006 .7620001 .027 .757 .033 C .7020001 .037 .6930001 .042000005 .6930001 .124000009 L .6930001 .282 C .6930001 .37100003 .67800006 .441 .59000006 .441 C .53800007 .441 .477 .42200003 .425 .367 C .42200003 .36400003 .416 .35900004 .414 .367 C .404 .40800003 .366 .441 .314 .441 C .256 .441 .20300001 .40600003 .16200002 .36 C .157 .35400004 .15 .34800003 .15 .36 Z "/>
</symbol>
<use xlink:href="#font_1_4e" transform="matrix(11.95517,0,0,-11.95517,253.19312,56.11815)"/>
<use xlink:href="#font_1_56" transform="matrix(11.95517,0,0,-11.95517,262.6377,56.249658)"/>
<use xlink:href="#font_1_4f" transform="matrix(11.95517,0,0,-11.95517,268.9859,56.11815)"/>
<use xlink:href="#font_1_e" transform="matrix(11.95517,0,0,-11.95517,275.7047,53.428236)"/>
<use xlink:href="#font_3_f3" transform="matrix(25.84303,0,0,-25.84303,263.428,25.27828)"/>
<use xlink:href="#font_3_1a" transform="matrix(25.84303,0,0,-25.84303,269.22,21.699543)"/>
<use xlink:href="#font_3_1a" transform="matrix(25.84303,0,0,-25.84303,272.891,25.769856)"/>
<use xlink:href="#font_3_40" transform="matrix(25.84303,0,0,-25.84303,279.637,21.105154)"/>
<symbol id="font_1_45">
<path d="M .30600003 .13700001 C .30600003 .118 .30400003 .11 .29000003 .098000008 C .25300003 .066 .22100002 .05 .19600001 .05 C .142 .05 .085999999 .109 .085999999 .23400001 C .085999999 .30600003 .10000001 .34600003 .11500001 .367 C .146 .41400004 .18800001 .41700004 .208 .41700004 C .24400002 .41700004 .26900003 .40400005 .289 .38100005 C .303 .36500005 .30600003 .35800005 .30600003 .32700003 L .30600003 .13700001 M .29500003 .063 C .29900003 .067 .30900003 .069000009 .31 .062000004 C .312 .037 .321 .0029999996 .321 .0029999996 C .32900004 0 .33400003 0 .34 .0029999996 C .36200003 .021000002 .397 .036000004 .458 .043 C .46400003 .049000004 .46400003 .064 .458 .07000001 C .39400003 .075 .38500003 .094 .38500003 .143 L .38500003 .596 C .38500003 .661 .38900004 .70100006 .38900004 .70100006 C .38900004 .70800009 .38500003 .711 .37600003 .711 C .351 .70100006 .27600003 .68700006 .236 .684 C .234 .67600008 .236 .66 .24200002 .65400007 C .294 .651 .30600003 .656 .30600003 .572 L .30600003 .44400005 C .30600003 .43700005 .30400003 .43500004 .29700003 .43500004 C .293 .43500004 .252 .45200003 .21900001 .45200003 C .153 .45200003 .109 .43000005 .069000009 .39200003 C .026000005 .34900005 0 .29000003 0 .216 C 0 .09300001 .062000004 .0029999996 .17 .0029999996 C .209 .0029999996 .24600002 .023000002 .29500003 .063 Z "/>
</symbol>
<use xlink:href="#font_1_45" transform="matrix(11.95517,0,0,-11.95517,285.69926,56.249658)"/>
<use xlink:href="#font_1_4a" transform="matrix(11.95517,0,0,-11.95517,291.56925,56.11815)"/>
<use xlink:href="#font_1_d" transform="matrix(11.95517,0,0,-11.95517,295.03623,57.684278)"/>
<symbol id="font_3_34">
<path d="M .019000002 .68200007 L .019000002 .0029999912 C .009000001 .002333333 .0026666669 .001333336 0 0 L 0 .679 C .0033333337 .68100008 .009666667 .682 .019000002 .68200007 Z "/>
</symbol>
<symbol id="font_3_14">
<path d="M 0 .049000004 L 0 .22800002 C .0060000007 .22266667 .011333334 .21833332 .016 .215 C .021333335 .21233332 .027 .21033335 .033 .20900002 C .039666669 .20833333 .04766667 .208 .057000005 .208 L .057000005 .535 C .057 .5543334 .059666676 .56400009 .065000008 .56400009 L .066 .56400009 C .072000008 .56400009 .075 .5586667 .075 .54800006 C .075 .54333338 .07433334 .5373333 .07300001 .53000006 L .07300001 0 C .024333336 .007333333 0 .023666667 0 .049000004 Z "/>
</symbol>
<use xlink:href="#font_3_40" transform="matrix(25.84303,0,0,-25.84303,290.758,25.175467)"/>
<use xlink:href="#font_3_34" transform="matrix(25.84303,0,0,-25.84303,301.646,35.964479)"/>
<use xlink:href="#font_3_14" transform="matrix(25.84303,0,0,-25.84303,308.657,33.651075)"/>
<path transform="matrix(1,0,0,-1,1,69.08984)" stroke-width=".388" stroke-linecap="butt" stroke-miterlimit="10" stroke-linejoin="miter" fill="none" stroke="#000000" d="M 0 0 L 309.543 0 "/>
<path transform="matrix(1,0,0,-1,1,77.22998)" stroke-width=".388" stroke-linecap="butt" stroke-miterlimit="10" stroke-linejoin="miter" fill="none" stroke="#000000" d="M 0 0 L 309.543 0 "/>
<path transform="matrix(1,0,0,-1,1,85.37109)" stroke-width=".388" stroke-linecap="butt" stroke-miterlimit="10" stroke-linejoin="miter" fill="none" stroke="#000000" d="M 0 0 L 309.543 0 "/>
<path transform="matrix(1,0,0,-1,1,93.51123)" stroke-width=".388" stroke-linecap="butt" stroke-miterlimit="10" stroke-linejoin="miter" fill="none" stroke="#000000" d="M 0 0 L 309.543 0 "/>
<use xlink:href="#font_3_d" transform="matrix(25.84303,0,0,-25.84303,1,84.143589)"/>
<use xlink:href="#font_1_4e" transform="matrix(11.95517,0,0,-11.95517,5.8271009,110.912097)"/>
<use xlink:href="#font_1_4a" transform="matrix(11.95517,0,0,-11.95517,15.319502,110.912097)"/>
<use xlink:href="#font_1_e" transform="matrix(11.95517,0,0,-11.95517,18.750638,108.22218)"/>
<symbol id="font_3_3a">
<path d="M 0 .065000008 L 0 .128 L .027000003 .124 L .076000008 .097 C .102000009 .08166667 .11866667 .06966667 .126 .061000006 C .13333334 .052333338 .13700001 .040333336 .13700001 .024999999 C .13700001 .008333333 .12866669 0 .112 0 C .10133334 0 .08666667 .005333333 .068 .015999999 C .049333335 .027333335 .033333336 .038333335 .02 .049000004 L 0 .065000008 Z "/>
</symbol>
<use xlink:href="#font_3_3a" transform="matrix(25.84303,0,0,-25.84303,8.512646,82.90312)" fill="#ffffff"/>
<symbol id="font_3_39">
<path d="M .046000005 .22600001 C .058000003 .22600001 .07 .22433335 .082 .22100002 C .094000007 .21833335 .10466667 .21433334 .11400001 .209 C .123333338 .20366669 .13166668 .19800002 .13900002 .19200002 C .14633334 .186 .15200001 .17966669 .156 .17300001 C .16000001 .16633334 .162 .16033334 .162 .155 L .16000001 0 C .09600001 0 .044666668 .020333335 .006 .061000006 C .002 .16033334 0 .22500001 0 .255 L 0 .341 C 0 .359 .0043333338 .368 .013 .368 C .020333333 .368 .023999999 .35933338 .024 .342 L .021000002 .120000008 C .057 .080000009 .091 .060000004 .123 .060000004 C .13833334 .060000004 .14600002 .068 .14600002 .08400001 C .14600002 .097333338 .14266669 .108 .136 .11600001 C .12933333 .12400001 .114 .135 .09 .149 L .046000005 .17400001 L .046000005 .22600001 Z "/>
</symbol>
<use xlink:href="#font_3_39" transform="matrix(25.84303,0,0,-25.84303,8.125,84.324489)"/>
<use xlink:href="#font_3_40" transform="matrix(25.84303,0,0,-25.84303,14.507004,88.11053)"/>
<use xlink:href="#font_3_104" transform="matrix(25.84303,0,0,-25.84303,18.796998,83.807628)"/>
<use xlink:href="#font_1_54" transform="matrix(11.95517,0,0,-11.95517,25.274846,111.00774)"/>
<use xlink:href="#font_1_46" transform="matrix(11.95517,0,0,-11.95517,29.805851,111.00774)"/>
<use xlink:href="#font_1_e" transform="matrix(11.95517,0,0,-11.95517,35.18568,108.22218)"/>
<use xlink:href="#font_3_f2" transform="matrix(25.84303,0,0,-25.84303,29.89,90.08748)"/>
<use xlink:href="#font_3_1a" transform="matrix(25.84303,0,0,-25.84303,35.674005,88.70492)"/>
<use xlink:href="#font_3_1a" transform="matrix(25.84303,0,0,-25.84303,39.343004,92.77474)"/>
<symbol id="font_1_53">
<path d="M .15600002 .36 C .15400002 .40000005 .15200001 .425 .14800002 .43600003 C .14500001 .44000004 .14400001 .44400005 .136 .44400005 C .108 .43300004 .082 .42400003 .012999998 .41500003 C .011 .409 .012999998 .39300005 .014999999 .38700003 C .069 .38200004 .08 .37700004 .08 .319 L .08 .124000009 C .08 .041 .068 .037 .005999999 .033 C 0 .027 0 .006 .005999999 0 C .041 .001 .08 .002 .12 .002 C .16000001 .002 .20600002 .001 .24100001 0 C .24700003 .006 .24700003 .027 .24100001 .033 C .17100002 .038000004 .15900001 .041 .15900001 .124000009 L .15900001 .263 C .15900001 .289 .17100002 .312 .18300002 .33 C .19400002 .34600003 .21700002 .379 .22900002 .379 C .23800002 .379 .24700003 .37600003 .254 .36600004 C .262 .356 .273 .34300003 .291 .34300003 C .315 .34300003 .338 .36800004 .338 .39300005 C .338 .41200004 .32 .441 .278 .441 C .23100002 .441 .19000001 .397 .16700001 .358 C .16100002 .34700004 .15600002 .35500003 .15600002 .36 Z "/>
</symbol>
<symbol id="font_1_a9">
<path d="M .23300001 .681 L .157 .56200006 C .149 .549 .14600002 .545 .14600002 .53400006 C .14600002 .527 .15300001 .521 .16000001 .521 C .16700001 .521 .17500001 .52500006 .19000001 .54 L .305 .64900007 L .30200003 .66 C .279 .68200007 .25300003 .683 .24700001 .683 C .24200002 .683 .236 .68200007 .23300001 .681 M .087000008 .292 C .106000009 .405 .17600002 .414 .20000002 .414 C .238 .414 .28300003 .393 .28300003 .30900003 C .28300003 .3 .279 .29500003 .268 .29500003 L .087000008 .292 M .349 .103 C .312 .065000008 .28300003 .049000004 .22500003 .049000004 C .18900001 .049000004 .14700002 .07 .11600001 .12100001 C .096 .15400002 .08400001 .20000002 .08400001 .25800003 L .35000003 .256 C .36200003 .256 .36900003 .262 .36900003 .273 C .36900003 .357 .33900003 .447 .20000002 .447 C .113000009 .447 0 .364 0 .21200001 C 0 .15600002 .014000002 .102000009 .047000007 .064 C .08100001 .024 .128 0 .20000002 0 C .27600003 0 .33 .035 .37 .087000008 C .367 .097 .36100004 .102000009 .349 .103 Z "/>
</symbol>
<use xlink:href="#font_1_53" transform="matrix(11.95517,0,0,-11.95517,46.19211,110.912097)"/>
<use xlink:href="#font_1_a9" transform="matrix(11.95517,0,0,-11.95517,50.84267,111.00774)"/>
<use xlink:href="#font_1_e" transform="matrix(11.95517,0,0,-11.95517,56.2225,108.22218)"/>
<use xlink:href="#font_3_40" transform="matrix(25.84303,0,0,-25.84303,50.927003,96.25115)"/>
<use xlink:href="#font_1_53" transform="matrix(11.95517,0,0,-11.95517,60.02411,110.912097)"/>
<use xlink:href="#font_1_46" transform="matrix(11.95517,0,0,-11.95517,64.57903,111.00774)"/>
<use xlink:href="#font_3_104" transform="matrix(25.84303,0,0,-25.84303,64.664,91.94776)"/>
<use xlink:href="#font_1_4f" transform="matrix(11.95517,0,0,-11.95517,74.4861,110.912097)"/>
<use xlink:href="#font_1_50" transform="matrix(11.95517,0,0,-11.95517,81.216869,111.00774)"/>
<use xlink:href="#font_1_e" transform="matrix(11.95517,0,0,-11.95517,87.230319,108.22218)"/>
<symbol id="font_3_51e">
<path d="M 0 .158 C 0 .18933334 .027333335 .205 .082 .20500002 C .13800001 .205 .16600001 .18933334 .16600001 .158 L .16600001 0 C .14800002 .018666668 .120333347 .028000003 .083000008 .028 C .04566667 .028000003 .018000002 .018666668 0 0 L 0 .158 M .16600001 .31500004 C .16600001 .34633336 .19333335 .36200003 .24800001 .36200003 C .30400003 .36200003 .33200003 .34633336 .33200003 .31500004 L .33200003 .158 C .314 .176 .28633336 .185 .24900002 .185 C .21166666 .185 .18400002 .176 .16600001 .158 L .16600001 .31500004 M .33200003 .158 C .33200003 .18933334 .35933338 .205 .41400004 .20500002 C .47000004 .205 .49800004 .18933334 .49800004 .158 L .49800004 0 C .48000003 .018666668 .45233337 .028000003 .41500003 .028 C .3776667 .028000003 .35000003 .018666668 .33200003 0 L .33200003 .158 Z "/>
</symbol>
<use xlink:href="#font_3_51e" transform="matrix(25.84303,0,0,-25.84303,81.595,96.25115)"/>
<symbol id="font_1_43">
<path d="M .16800002 .375 C .194 .398 .224 .407 .253 .407 C .314 .407 .364 .333 .364 .236 C .364 .12200001 .318 .036 .22300002 .036 C .19200002 .036 .171 .058000007 .15100001 .083000008 L .15100001 .333 C .15100001 .354 .15500002 .363 .16800002 .375 M .16100002 .40600003 C .15400002 .4 .15100001 .402 .15100001 .411 L .15100001 .595 C .15100001 .66 .15500002 .70000007 .15500002 .70000007 C .15500002 .7070001 .15100001 .71000006 .142 .71000006 C .117000009 .70000007 .042 .68600007 .0020000004 .683 C 0 .6750001 .0020000004 .65900006 .008 .65300008 C .06 .65000006 .072000008 .65500006 .072000008 .57100006 L .072000008 .083000008 C .072000008 .044 .07100001 .026 .068 .012 C .07300001 .0039999999 .07800001 0 .09 0 C .09600001 .005 .106000009 .015000001 .113000009 .024 C .12400001 .036 .13000001 .036 .141 .026 C .16300002 .0069999999 .19300002 .0019999995 .22900002 .0019999995 C .331 .0019999995 .45000003 .095000009 .45000003 .254 C .45000003 .37600003 .36 .451 .273 .451 C .23000002 .451 .19200002 .43400003 .16100002 .40600003 Z "/>
</symbol>
<use xlink:href="#font_1_43" transform="matrix(11.95517,0,0,-11.95517,95.97073,111.03165)"/>
<use xlink:href="#font_1_4a" transform="matrix(11.95517,0,0,-11.95517,102.079837,110.912097)"/>
<use xlink:href="#font_1_54" transform="matrix(11.95517,0,0,-11.95517,105.606609,111.00774)"/>
<use xlink:href="#font_1_f" transform="matrix(11.95517,0,0,-11.95517,110.376728,111.00774)"/>
<use xlink:href="#font_3_40" transform="matrix(25.84303,0,0,-25.84303,101.268009,96.25115)"/>
<use xlink:href="#font_3_26" transform="matrix(25.84303,0,0,-25.84303,112.117008,93.679668)"/>
<use xlink:href="#font_3_26" transform="matrix(25.84303,0,0,-25.84303,115.70918,93.679668)"/>
<use xlink:href="#font_1_22" transform="matrix(11.95517,0,0,-11.95517,120.76095,110.912097)"/>
<symbol id="font_3_44">
<path d="M .048 .24000001 L .052 .24000001 C .11133333 .24000001 .14933335 .22400002 .16600001 .192 L .16600001 0 C .15666668 .020666667 .13966668 .035666665 .115 .044999999 C .091 .053666668 .069000009 .058 .049000004 .058 C .022333334 .058 .0060000007 .052333338 0 .041 L 0 .216 C 0 .22399999 .005666667 .23 .017 .23400001 C .028333337 .23800002 .03866667 .24000001 .048 .24000001 Z "/>
</symbol>
<use xlink:href="#font_3_40" transform="matrix(25.84303,0,0,-25.84303,122.759,79.96941)"/>
<use xlink:href="#font_3_44" transform="matrix(25.84303,0,0,-25.84303,128.98719,80.744709)"/>
<use xlink:href="#font_1_48" transform="matrix(11.95517,0,0,-11.95517,129.43657,113.73351)"/>
<use xlink:href="#font_1_4f" transform="matrix(11.95517,0,0,-11.95517,135.27069,110.912097)"/>
<use xlink:href="#font_1_56" transform="matrix(11.95517,0,0,-11.95517,141.7504,111.0436)"/>
<use xlink:href="#font_1_54" transform="matrix(11.95517,0,0,-11.95517,148.43334,111.00774)"/>
<symbol id="font_3_75d">
<path d="M .42600004 .363 C .39400003 .363 .36800004 .35600005 .34800003 .342 L .34800003 .47100003 C .34800003 .5043333 .37400005 .521 .42600004 .521 C .4466667 .521 .4646667 .517 .48000003 .50900009 C .49533335 .5016667 .503 .489 .503 .47100003 L .503 .17300001 C .503 .16100002 .4926667 .15500002 .47200004 .15500002 C .3066667 .15500002 .15533334 .21200001 .018000002 .326 L .018000002 .04699999 C .018000002 .035000009 .017666668 .026000014 .017 .02000001 C .017 .014000009 .016666668 .009666671 .016 .0069999995 C .016 .0036666692 .015666668 .001666675 .015000001 .0010000169 C .014333334 .00033333899 .013 0 .011000001 0 C .008333334 .00066667798 .0060000007 .002000014 .004 .004000008 C .0026666669 .005333344 .0016666668 .0076666774 .001 .011000007 C .00033333337 .013666679 0 .01700001 0 .020999998 L 0 .53900006 C .07266667 .46766673 .14933335 .4106667 .23 .36800004 C .3 .33133338 .362 .31333337 .416 .314 C .45133338 .314 .47266666 .32066668 .48000003 .33400003 C .47066669 .35333336 .45266668 .363 .42600004 .363 Z "/>
</symbol>
<use xlink:href="#font_3_75d" transform="matrix(25.84303,0,0,-25.84303,142.541,96.354457)"/>
<use xlink:href="#font_1_25" transform="matrix(11.95517,0,0,-11.95517,157.44441,110.912097)"/>
<use xlink:href="#font_1_46" transform="matrix(11.95517,0,0,-11.95517,166.11191,111.00774)"/>
<use xlink:href="#font_1_e" transform="matrix(11.95517,0,0,-11.95517,171.49175,108.22218)"/>
<use xlink:href="#font_3_51e" transform="matrix(25.84303,0,0,-25.84303,166.196,96.25115)"/>
<use xlink:href="#font_1_4a" transform="matrix(11.95517,0,0,-11.95517,186.68192,110.912097)"/>
<use xlink:href="#font_1_d" transform="matrix(11.95517,0,0,-11.95517,190.1489,112.47822)"/>
<use xlink:href="#font_3_40" transform="matrix(25.84303,0,0,-25.84303,185.87,96.25115)"/>
<use xlink:href="#font_3_34" transform="matrix(25.84303,0,0,-25.84303,199.552,90.7594)"/>
<use xlink:href="#font_1_52" transform="matrix(11.95517,0,0,-11.95517,198.01642,113.68569)"/>
<use xlink:href="#font_1_56" transform="matrix(11.95517,0,0,-11.95517,203.85056,111.0436)"/>
<use xlink:href="#font_1_4a" transform="matrix(11.95517,0,0,-11.95517,210.24658,110.912097)"/>
<use xlink:href="#font_3_105" transform="matrix(25.84303,0,0,-25.84303,209.435,95.83766)"/>
<use xlink:href="#font_1_55" transform="matrix(11.95517,0,0,-11.95517,218.26488,111.00774)"/>
<use xlink:href="#font_1_50" transform="matrix(11.95517,0,0,-11.95517,222.234,111.00774)"/>
<use xlink:href="#font_1_4d" transform="matrix(11.95517,0,0,-11.95517,227.97246,110.912097)"/>
<use xlink:href="#font_1_e" transform="matrix(11.95517,0,0,-11.95517,231.4036,108.22218)"/>
<use xlink:href="#font_3_40" transform="matrix(25.84303,0,0,-25.84303,222.612,79.96941)"/>
<use xlink:href="#font_3_104" transform="matrix(25.84303,0,0,-25.84303,228.84018,79.736827)"/>
<use xlink:href="#font_1_4d" transform="matrix(11.95517,0,0,-11.95517,237.52724,110.912097)"/>
<use xlink:href="#font_1_4a" transform="matrix(11.95517,0,0,-11.95517,240.76709,110.912097)"/>
<use xlink:href="#font_1_54" transform="matrix(11.95517,0,0,-11.95517,244.29386,111.00774)"/>
<use xlink:href="#font_3_40" transform="matrix(25.84303,0,0,-25.84303,239.95499,79.96941)"/>
<use xlink:href="#font_3_1b" transform="matrix(25.84303,0,0,-25.84303,252.156,85.53911)"/>
<use xlink:href="#font_1_51" transform="matrix(11.95517,0,0,-11.95517,253.73992,113.68569)"/>
<use xlink:href="#font_1_46" transform="matrix(11.95517,0,0,-11.95517,260.44679,111.00774)"/>
<use xlink:href="#font_1_44" transform="matrix(11.95517,0,0,-11.95517,265.87443,111.00774)"/>
<use xlink:href="#font_1_e" transform="matrix(11.95517,0,0,-11.95517,271.0271,108.22218)"/>
<use xlink:href="#font_3_40" transform="matrix(25.84303,0,0,-25.84303,260.531,79.96941)"/>
<use xlink:href="#font_3_105" transform="matrix(25.84303,0,0,-25.84303,264.821,75.4861)"/>
<use xlink:href="#font_1_44" transform="matrix(11.95517,0,0,-11.95517,275.03236,111.00774)"/>
<use xlink:href="#font_1_a1" transform="matrix(11.95517,0,0,-11.95517,280.1372,111.00774)"/>
<use xlink:href="#font_1_e" transform="matrix(11.95517,0,0,-11.95517,285.64854,108.22218)"/>
<use xlink:href="#font_3_1ae" transform="matrix(25.84303,0,0,-25.84303,278.148,73.80672)"/>
<use xlink:href="#font_1_55" transform="matrix(11.95517,0,0,-11.95517,291.6109,111.00774)"/>
<use xlink:href="#font_1_42" transform="matrix(11.95517,0,0,-11.95517,295.52024,111.00774)"/>
<symbol id="font_3_16">
<path d="M 0 .049000004 L 0 .22800002 C .009333334 .22000003 .017666668 .21466668 .025 .21200001 C .032333334 .20933335 .043 .208 .057000005 .208 L .057000005 .42900003 C .057 .4416667 .059333337 .44800005 .064 .448 L .065000008 .448 C .07033334 .44733335 .07300001 .4366667 .07300001 .416 L .07300001 0 C .024333336 .007333333 0 .023666667 0 .049000004 Z "/>
</symbol>
<use xlink:href="#font_3_1ae" transform="matrix(25.84303,0,0,-25.84303,293.531,81.94685)"/>
<use xlink:href="#font_3_16" transform="matrix(25.84303,0,0,-25.84303,308.62336,76.23555)"/>
<path transform="matrix(1,0,0,-1,1,123.88379)" stroke-width=".388" stroke-linecap="butt" stroke-miterlimit="10" stroke-linejoin="miter" fill="none" stroke="#000000" d="M 0 0 L 309.543 0 "/>
<path transform="matrix(1,0,0,-1,1,132.0249)" stroke-width=".388" stroke-linecap="butt" stroke-miterlimit="10" stroke-linejoin="miter" fill="none" stroke="#000000" d="M 0 0 L 309.543 0 "/>
<path transform="matrix(1,0,0,-1,1,140.16504)" stroke-width=".388" stroke-linecap="butt" stroke-miterlimit="10" stroke-linejoin="miter" fill="none" stroke="#000000" d="M 0 0 L 309.543 0 "/>
<path transform="matrix(1,0,0,-1,1,148.30615)" stroke-width=".388" stroke-linecap="butt" stroke-miterlimit="10" stroke-linejoin="miter" fill="none" stroke="#000000" d="M 0 0 L 309.543 0 "/>
<use xlink:href="#font_3_d" transform="matrix(25.84303,0,0,-25.84303,1,138.93753)"/>
<use xlink:href="#font_1_4e" transform="matrix(11.95517,0,0,-11.95517,2.6561032,165.70702)"/>
<use xlink:href="#font_1_56" transform="matrix(11.95517,0,0,-11.95517,12.100691,165.83852)"/>
<use xlink:href="#font_1_4f" transform="matrix(11.95517,0,0,-11.95517,18.448889,165.70702)"/>
<use xlink:href="#font_1_e" transform="matrix(11.95517,0,0,-11.95517,25.167698,163.0171)"/>
<symbol id="font_3_1de">
<path d="M 0 .020999998 L 0 .444 C .0006666667 .45266668 .007333334 .45700003 .020000002 .45700003 C .055999999 .45633338 .10066667 .44666673 .15400002 .42800004 C .16333334 .42533336 .16800003 .4216667 .16800002 .417 L .16800002 .12200001 C .16800003 .118 .16733335 .11466666 .16600001 .112 C .16466667 .10866668 .16266668 .106000009 .16000001 .104 C .15733333 .102 .154 .10033333 .15 .09900001 C .14666668 .09766667 .14266669 .097 .13800001 .097 C .123333338 .097 .11066667 .102 .1 .112 C .09 .122 .085 .13333334 .085 .146 L .085 .22800002 C .095 .216 .10933334 .20966667 .128 .209 C .13266666 .209 .13700001 .21166666 .141 .21700001 C .14566668 .22233336 .14833333 .22833336 .149 .23500002 C .14766668 .2436667 .14400001 .24933334 .13800001 .252 C .126 .256 .109000008 .26000003 .087000008 .264 C .065000008 .26733337 .04766667 .26900003 .035 .26900003 C .031666668 .26900003 .028000003 .2676667 .024 .26500003 C .020666669 .2616667 .018666668 .25800003 .018000002 .254 L .018000002 .047000007 C .018000002 .035 .017666668 .026000003 .017 .02000001 C .017 .014000009 .016666668 .009666671 .016 .0069999995 C .016 .0036666692 .015666668 .0016666651 .015000001 .0009999871 C .014333334 .00033332906 .013 0 .011000001 0 C .0076666676 .0006666581 .0050000005 .0029999912 .003 .0069999995 C .001 .010333329 0 .014999996 0 .020999998 Z "/>
</symbol>
<use xlink:href="#font_3_51e" transform="matrix(25.84303,0,0,-25.84303,12.890999,130.6945)"/>
<use xlink:href="#font_3_1de" transform="matrix(25.84303,0,0,-25.84303,27.67321,136.74178)"/>
<use xlink:href="#font_1_45" transform="matrix(11.95517,0,0,-11.95517,33.780256,165.83852)"/>
<use xlink:href="#font_1_4a" transform="matrix(11.95517,0,0,-11.95517,39.65024,165.70702)"/>
<use xlink:href="#font_1_d" transform="matrix(11.95517,0,0,-11.95517,43.117246,167.27315)"/>
<use xlink:href="#font_3_40" transform="matrix(25.84303,0,0,-25.84303,38.837999,134.76433)"/>
<use xlink:href="#font_3_34" transform="matrix(25.84303,0,0,-25.84303,49.499,145.55335)"/>
<use xlink:href="#font_1_4e" transform="matrix(11.95517,0,0,-11.95517,52.078104,165.70702)"/>
<use xlink:href="#font_1_4a" transform="matrix(11.95517,0,0,-11.95517,61.570508,165.70702)"/>
<use xlink:href="#font_1_e" transform="matrix(11.95517,0,0,-11.95517,65.00165,163.0171)"/>
<use xlink:href="#font_3_3a" transform="matrix(25.84303,0,0,-25.84303,54.763647,137.69707)" fill="#ffffff"/>
<use xlink:href="#font_3_39" transform="matrix(25.84303,0,0,-25.84303,54.376,139.11844)"/>
<use xlink:href="#font_3_40" transform="matrix(25.84303,0,0,-25.84303,60.757997,142.90447)"/>
<use xlink:href="#font_3_104" transform="matrix(25.84303,0,0,-25.84303,65.048007,138.60158)"/>
<use xlink:href="#font_1_54" transform="matrix(11.95517,0,0,-11.95517,71.52584,165.80266)"/>
<use xlink:href="#font_1_46" transform="matrix(11.95517,0,0,-11.95517,76.05686,165.80266)"/>
<use xlink:href="#font_1_e" transform="matrix(11.95517,0,0,-11.95517,81.43669,163.0171)"/>
<use xlink:href="#font_3_f2" transform="matrix(25.84303,0,0,-25.84303,76.142,144.88143)"/>
<use xlink:href="#font_3_1a" transform="matrix(25.84303,0,0,-25.84303,81.89101,143.49886)"/>
<use xlink:href="#font_3_1a" transform="matrix(25.84303,0,0,-25.84303,85.55299,147.56966)"/>
<use xlink:href="#font_1_53" transform="matrix(11.95517,0,0,-11.95517,92.4021,165.70702)"/>
<use xlink:href="#font_1_a9" transform="matrix(11.95517,0,0,-11.95517,97.052669,165.80266)"/>
<use xlink:href="#font_1_e" transform="matrix(11.95517,0,0,-11.95517,102.432498,163.0171)"/>
<use xlink:href="#font_3_40" transform="matrix(25.84303,0,0,-25.84303,97.138,151.04558)"/>
<use xlink:href="#font_1_53" transform="matrix(11.95517,0,0,-11.95517,106.2341,165.70702)"/>
<use xlink:href="#font_1_46" transform="matrix(11.95517,0,0,-11.95517,110.789028,165.80266)"/>
<use xlink:href="#font_3_104" transform="matrix(25.84303,0,0,-25.84303,110.87399,146.74269)"/>
<use xlink:href="#font_1_4f" transform="matrix(11.95517,0,0,-11.95517,120.3201,165.70702)"/>
<use xlink:href="#font_1_50" transform="matrix(11.95517,0,0,-11.95517,127.050868,165.80266)"/>
<use xlink:href="#font_1_e" transform="matrix(11.95517,0,0,-11.95517,133.06432,163.0171)"/>
<use xlink:href="#font_3_51e" transform="matrix(25.84303,0,0,-25.84303,127.429,151.04558)"/>
<use xlink:href="#font_1_43" transform="matrix(11.95517,0,0,-11.95517,141.80474,165.82657)"/>
<use xlink:href="#font_1_4a" transform="matrix(11.95517,0,0,-11.95517,147.91384,165.70702)"/>
<use xlink:href="#font_1_54" transform="matrix(11.95517,0,0,-11.95517,151.44062,165.80266)"/>
<use xlink:href="#font_1_f" transform="matrix(11.95517,0,0,-11.95517,156.21073,165.80266)"/>
<use xlink:href="#font_3_40" transform="matrix(25.84303,0,0,-25.84303,147.102,151.04558)"/>
<use xlink:href="#font_3_26" transform="matrix(25.84303,0,0,-25.84303,157.762,148.4736)"/>
<use xlink:href="#font_3_26" transform="matrix(25.84303,0,0,-25.84303,161.35417,148.4736)"/>
<use xlink:href="#font_1_22" transform="matrix(11.95517,0,0,-11.95517,166.21794,165.70702)"/>
<use xlink:href="#font_3_40" transform="matrix(25.84303,0,0,-25.84303,168.216,151.04558)"/>
<use xlink:href="#font_1_48" transform="matrix(11.95517,0,0,-11.95517,174.89757,168.52845)"/>
<use xlink:href="#font_1_4f" transform="matrix(11.95517,0,0,-11.95517,180.73169,165.70702)"/>
<use xlink:href="#font_1_56" transform="matrix(11.95517,0,0,-11.95517,187.2114,165.83852)"/>
<use xlink:href="#font_1_54" transform="matrix(11.95517,0,0,-11.95517,193.89435,165.80266)"/>
<use xlink:href="#font_3_105" transform="matrix(25.84303,0,0,-25.84303,188.00202,142.49098)"/>
<use xlink:href="#font_1_25" transform="matrix(11.95517,0,0,-11.95517,202.5284,165.70702)"/>
<use xlink:href="#font_1_46" transform="matrix(11.95517,0,0,-11.95517,211.1959,165.80266)"/>
<use xlink:href="#font_1_e" transform="matrix(11.95517,0,0,-11.95517,216.57575,163.0171)"/>
<use xlink:href="#font_3_f3" transform="matrix(25.84303,0,0,-25.84303,211.281,143.00826)"/>
<use xlink:href="#font_3_1a" transform="matrix(25.84303,0,0,-25.84303,217.03,143.49886)"/>
<use xlink:href="#font_3_1a" transform="matrix(25.84303,0,0,-25.84303,220.693,147.56966)"/>
<use xlink:href="#font_3_40" transform="matrix(25.84303,0,0,-25.84303,227.406,134.76433)"/>
<use xlink:href="#font_1_4a" transform="matrix(11.95517,0,0,-11.95517,239.31092,165.70702)"/>
<use xlink:href="#font_1_d" transform="matrix(11.95517,0,0,-11.95517,242.7779,167.27315)"/>
<use xlink:href="#font_3_1ae" transform="matrix(25.84303,0,0,-25.84303,238.499,136.74178)"/>
<use xlink:href="#font_3_34" transform="matrix(25.84303,0,0,-25.84303,254.138,145.55335)"/>
<use xlink:href="#font_1_52" transform="matrix(11.95517,0,0,-11.95517,250.27042,168.48062)"/>
<use xlink:href="#font_1_56" transform="matrix(11.95517,0,0,-11.95517,256.10456,165.83852)"/>
<use xlink:href="#font_1_4a" transform="matrix(11.95517,0,0,-11.95517,262.50059,165.70702)"/>
<use xlink:href="#font_3_40" transform="matrix(25.84303,0,0,-25.84303,261.688,134.76433)"/>
<use xlink:href="#font_3_104" transform="matrix(25.84303,0,0,-25.84303,265.978,130.46193)"/>
<use xlink:href="#font_1_55" transform="matrix(11.95517,0,0,-11.95517,273.7129,165.80266)"/>
<use xlink:href="#font_1_50" transform="matrix(11.95517,0,0,-11.95517,277.682,165.80266)"/>
<use xlink:href="#font_1_4d" transform="matrix(11.95517,0,0,-11.95517,283.42048,165.70702)"/>
<use xlink:href="#font_1_e" transform="matrix(11.95517,0,0,-11.95517,286.8516,163.0171)"/>
<use xlink:href="#font_3_f2" transform="matrix(25.84303,0,0,-25.84303,278.059,128.60066)"/>
<use xlink:href="#font_3_1a" transform="matrix(25.84303,0,0,-25.84303,283.809,127.21761)"/>
<use xlink:href="#font_3_1a" transform="matrix(25.84303,0,0,-25.84303,287.471,131.2889)"/>
<use xlink:href="#font_3_1a" transform="matrix(25.84303,0,0,-25.84303,291.134,135.35872)"/>
<use xlink:href="#font_3_40" transform="matrix(25.84303,0,0,-25.84303,297.847,130.6945)"/>
<use xlink:href="#font_3_14" transform="matrix(25.84303,0,0,-25.84303,308.657,135.1003)"/>
<path transform="matrix(1,0,0,-1,1,178.6792)" stroke-width=".388" stroke-linecap="butt" stroke-miterlimit="10" stroke-linejoin="miter" fill="none" stroke="#000000" d="M 0 0 L 309.543 0 "/>
<path transform="matrix(1,0,0,-1,1,186.81885)" stroke-width=".388" stroke-linecap="butt" stroke-miterlimit="10" stroke-linejoin="miter" fill="none" stroke="#000000" d="M 0 0 L 309.543 0 "/>
<path transform="matrix(1,0,0,-1,1,194.95996)" stroke-width=".388" stroke-linecap="butt" stroke-miterlimit="10" stroke-linejoin="miter" fill="none" stroke="#000000" d="M 0 0 L 309.543 0 "/>
<path transform="matrix(1,0,0,-1,1,203.10108)" stroke-width=".388" stroke-linecap="butt" stroke-miterlimit="10" stroke-linejoin="miter" fill="none" stroke="#000000" d="M 0 0 L 309.543 0 "/>
<use xlink:href="#font_3_d" transform="matrix(25.84303,0,0,-25.84303,1,193.73294)"/>
<use xlink:href="#font_1_4d" transform="matrix(11.95517,0,0,-11.95517,9.381239,220.50096)"/>
<use xlink:href="#font_1_4a" transform="matrix(11.95517,0,0,-11.95517,12.621092,220.50096)"/>
<use xlink:href="#font_1_54" transform="matrix(11.95517,0,0,-11.95517,16.14787,220.5966)"/>
<use xlink:href="#font_3_40" transform="matrix(25.84303,0,0,-25.84303,11.808998,189.55828)"/>
<use xlink:href="#font_3_1b" transform="matrix(25.84303,0,0,-25.84303,24.036004,195.12847)"/>
<use xlink:href="#font_1_51" transform="matrix(11.95517,0,0,-11.95517,25.646912,223.27457)"/>
<use xlink:href="#font_1_46" transform="matrix(11.95517,0,0,-11.95517,32.353765,220.5966)"/>
<use xlink:href="#font_3_40" transform="matrix(25.84303,0,0,-25.84303,32.438005,177.34832)"/>
<use xlink:href="#font_1_44" transform="matrix(11.95517,0,0,-11.95517,37.69734,220.5966)"/>
<use xlink:href="#font_1_44" transform="matrix(11.95517,0,0,-11.95517,42.81415,220.5966)"/>
<use xlink:href="#font_1_a1" transform="matrix(11.95517,0,0,-11.95517,47.91901,220.5966)"/>
<use xlink:href="#font_1_e" transform="matrix(11.95517,0,0,-11.95517,53.430349,217.81105)"/>
<use xlink:href="#font_3_40" transform="matrix(25.84303,0,0,-25.84303,48.075998,185.48845)"/>
<use xlink:href="#font_1_55" transform="matrix(11.95517,0,0,-11.95517,57.291875,220.5966)"/>
<use xlink:href="#font_1_42" transform="matrix(11.95517,0,0,-11.95517,61.201215,220.5966)"/>
<use xlink:href="#font_3_40" transform="matrix(25.84303,0,0,-25.84303,61.358,177.34832)"/>
<use xlink:href="#font_1_4e" transform="matrix(11.95517,0,0,-11.95517,71.2921,220.50096)"/>
<use xlink:href="#font_1_56" transform="matrix(11.95517,0,0,-11.95517,80.73668,220.63246)"/>
<use xlink:href="#font_1_4f" transform="matrix(11.95517,0,0,-11.95517,87.08487,220.50096)"/>
<use xlink:href="#font_1_e" transform="matrix(11.95517,0,0,-11.95517,93.80368,217.81105)"/>
<use xlink:href="#font_3_f3" transform="matrix(25.84303,0,0,-25.84303,81.52699,189.66207)"/>
<use xlink:href="#font_3_1a" transform="matrix(25.84303,0,0,-25.84303,87.315,186.08284)"/>
<use xlink:href="#font_3_1a" transform="matrix(25.84303,0,0,-25.84303,90.985,190.15267)"/>
<use xlink:href="#font_3_40" transform="matrix(25.84303,0,0,-25.84303,97.729999,185.48845)"/>
<use xlink:href="#font_1_45" transform="matrix(11.95517,0,0,-11.95517,103.76525,220.63246)"/>
<use xlink:href="#font_1_4a" transform="matrix(11.95517,0,0,-11.95517,109.63524,220.50096)"/>
<use xlink:href="#font_1_d" transform="matrix(11.95517,0,0,-11.95517,113.102237,222.0671)"/>
<use xlink:href="#font_3_40" transform="matrix(25.84303,0,0,-25.84303,108.823,189.55828)"/>
<use xlink:href="#font_3_34" transform="matrix(25.84303,0,0,-25.84303,119.698,200.34876)"/>
<use xlink:href="#font_1_45" transform="matrix(11.95517,0,0,-11.95517,124.72126,220.63246)"/>
<use xlink:href="#font_1_50" transform="matrix(11.95517,0,0,-11.95517,130.79448,220.5966)"/>
<use xlink:href="#font_1_e" transform="matrix(11.95517,0,0,-11.95517,136.80794,217.81105)"/>
<use xlink:href="#font_3_3a" transform="matrix(25.84303,0,0,-25.84303,125.177639,192.49248)" fill="#ffffff"/>
<use xlink:href="#font_3_39" transform="matrix(25.84303,0,0,-25.84303,124.78999,193.91385)"/>
<use xlink:href="#font_3_40" transform="matrix(25.84303,0,0,-25.84303,131.172,197.69939)"/>
<use xlink:href="#font_3_104" transform="matrix(25.84303,0,0,-25.84303,135.462,193.39699)"/>
<use xlink:href="#font_1_4f" transform="matrix(11.95517,0,0,-11.95517,140.6101,220.50096)"/>
<use xlink:href="#font_1_42" transform="matrix(11.95517,0,0,-11.95517,147.2811,220.5966)"/>
<use xlink:href="#font_3_f2" transform="matrix(25.84303,0,0,-25.84303,147.437,199.67684)"/>
<use xlink:href="#font_3_1a" transform="matrix(25.84303,0,0,-25.84303,153.225,198.29378)"/>
<use xlink:href="#font_3_1a" transform="matrix(25.84303,0,0,-25.84303,156.896,202.3636)"/>
<use xlink:href="#font_1_4f" transform="matrix(11.95517,0,0,-11.95517,162.7881,220.50096)"/>
<use xlink:href="#font_1_50" transform="matrix(11.95517,0,0,-11.95517,169.51886,220.5966)"/>
<use xlink:href="#font_1_e" transform="matrix(11.95517,0,0,-11.95517,175.53232,217.81105)"/>
<use xlink:href="#font_3_40" transform="matrix(25.84303,0,0,-25.84303,169.897,205.8405)"/>
<use xlink:href="#font_1_43" transform="matrix(11.95517,0,0,-11.95517,179.16674,220.62052)"/>
<use xlink:href="#font_1_4a" transform="matrix(11.95517,0,0,-11.95517,185.27584,220.50096)"/>
<use xlink:href="#font_1_54" transform="matrix(11.95517,0,0,-11.95517,188.80261,220.5966)"/>
<use xlink:href="#font_3_104" transform="matrix(25.84303,0,0,-25.84303,184.464,201.53664)"/>
<use xlink:href="#font_1_51" transform="matrix(11.95517,0,0,-11.95517,197.7339,223.27457)"/>
<use xlink:href="#font_1_42" transform="matrix(11.95517,0,0,-11.95517,204.34513,220.5966)"/>
<use xlink:href="#font_1_e" transform="matrix(11.95517,0,0,-11.95517,209.85645,217.81105)"/>
<use xlink:href="#font_3_51e" transform="matrix(25.84303,0,0,-25.84303,204.50202,205.8405)"/>
<use xlink:href="#font_1_44" transform="matrix(11.95517,0,0,-11.95517,218.97335,220.5966)"/>
<use xlink:href="#font_1_46" transform="matrix(11.95517,0,0,-11.95517,224.09017,220.5966)"/>
<use xlink:href="#font_1_4e" transform="matrix(11.95517,0,0,-11.95517,229.2309,220.50096)"/>
<use xlink:href="#font_1_f" transform="matrix(11.95517,0,0,-11.95517,239.11782,220.5966)"/>
<use xlink:href="#font_3_40" transform="matrix(25.84303,0,0,-25.84303,224.17499,205.8405)"/>
<use xlink:href="#font_3_26" transform="matrix(25.84303,0,0,-25.84303,236.733,203.26902)"/>
<use xlink:href="#font_3_26" transform="matrix(25.84303,0,0,-25.84303,240.3252,203.26902)"/>
</g>
</g>
</svg>
