<?xml version="1.0" encoding="UTF-8" standalone="no"?>
<!DOCTYPE svg PUBLIC "-//W3C//DTD SVG 1.1//EN" "http://www.w3.org/Graphics/SVG/1.1/DTD/svg11.dtd">
<svg xmlns="http://www.w3.org/2000/svg" xmlns:xlink="http://www.w3.org/1999/xlink" version="1.1" width="311pt" height="338pt" viewBox="0 0 311 338">
<g enable-background="new">
<clipPath id="cp0">
<path transform="matrix(1,0,0,-1,-71,5598)" d="M 0 0 L 453.543 0 L 453.543 5669.291 L 0 5669.291 Z "/>
</clipPath>
<g clip-path="url(#cp0)">
<symbol id="font_1_39">
<path d="M .53700008 .104 L .38400004 .314 C .37400005 .32700003 .36800004 .337 .36800004 .34700004 C .36800004 .356 .36800004 .365 .37800003 .37700004 L .51500007 .554 C .549 .598 .58100005 .611 .62600007 .616 C .632 .622 .632 .643 .62600007 .649 C .596 .648 .559 .647 .536 .647 C .513 .647 .47100006 .648 .43100003 .649 C .42500005 .643 .42500005 .622 .43100003 .616 C .47500003 .613 .49300004 .607 .47000004 .574 L .34700004 .39900003 C .34100003 .39000003 .33500005 .38700003 .33100004 .38700003 C .32800005 .38700003 .323 .39100004 .31900005 .39800004 L .208 .561 C .18 .601 .176 .613 .23200001 .616 C .238 .622 .238 .643 .23200001 .649 C .19500001 .648 .158 .647 .118 .647 C .079 .647 .046000005 .648 .016 .649 C .010000001 .643 .011 .622 .017 .616 C .059000005 .613 .077 .607 .118 .549 L .26100005 .34600003 C .26900003 .33400003 .27500005 .326 .27500005 .316 C .27500005 .31000004 .27000005 .3 .26500003 .293 L .117000009 .095 C .082 .049000004 .050000006 .037 .006 .033 C 0 .027 0 .006 .006 0 C .036000004 .001 .073 .002 .096 .002 C .119 .002 .161 .001 .201 0 C .207 .006 .207 .027 .201 .033 C .156 .036000004 .13700001 .041 .162 .075 L .29400004 .26000003 C .29900003 .268 .30600003 .27400003 .30900003 .27400003 C .31300003 .27400003 .31700004 .27100004 .323 .263 L .44600005 .087 C .47400005 .046000005 .47900004 .036000004 .42300005 .033 C .41700004 .027 .41700004 .006 .42300005 0 C .46000005 .001 .49700005 .002 .53700008 .002 C .57600006 .002 .609 .001 .63900008 0 C .64500007 .006 .64400008 .027 .6380001 .033 C .596 .036000004 .57900008 .045 .53700008 .104 Z "/>
</symbol>
<symbol id="font_1_2a">
<path d="M .17800002 .124000009 L .17800002 .525 C .17800002 .608 .19500001 .613 .26500003 .616 C .271 .622 .271 .643 .26500003 .649 C .22100002 .648 .17300001 .647 .135 .647 C .10100001 .647 .053 .648 .006000001 .649 C 0 .643 0 .622 .006000001 .616 C .076000008 .613 .09300001 .608 .09300001 .525 L .09300001 .124000009 C .09300001 .041 .076000008 .036000004 .006000001 .033 C 0 .027 0 .006 .006000001 0 C .051000004 .001 .09900001 .002 .136 .002 C .17100002 .002 .22000002 .001 .26500003 0 C .271 .006 .271 .027 .26500003 .033 C .19500001 .036000004 .17800002 .041 .17800002 .124000009 Z "/>
</symbol>
<symbol id="font_1_f">
<path d="M 0 .053000004 C 0 .024 .023999997 0 .053000004 0 C .08200001 0 .106 .024 .106 .053000004 C .106 .082 .08200001 .106 .053000004 .106 C .023999997 .106 0 .082 0 .053000004 Z "/>
</symbol>
<symbol id="font_1_54">
<path d="M 0 .14800002 C .0040000008 .099 .007000003 .052000006 .007000003 .010000001 C .017000005 .012000001 .027000003 .013 .032000007 .013 C .039000006 .013 .045 .013 .052 .011000001 C .079 .0040000008 .10600001 0 .143 0 C .199 0 .30200003 .027000003 .30200003 .126 C .30200003 .19400002 .25300003 .23400001 .185 .259 C .124000009 .28100003 .085 .297 .085 .352 C .085 .393 .121000017 .416 .155 .416 C .17700002 .416 .23500002 .40800003 .248 .323 C .254 .317 .27400003 .31800003 .28 .324 C .28300003 .36 .285 .397 .286 .43 C .255 .435 .20700002 .449 .155 .449 C .08100001 .449 .014000002 .40100003 .014000002 .337 C .014000002 .264 .047000007 .23300001 .124000009 .20100002 C .20700002 .16700001 .22600001 .14600002 .22600001 .103 C .22600001 .054000006 .178 .033000005 .141 .033000005 C .102000009 .033000005 .080000009 .046000005 .07000001 .057000005 C .048 .08 .037 .124000009 .031000004 .14900002 C .025000006 .15500002 .006000001 .15400002 0 .14800002 Z "/>
</symbol>
<use xlink:href="#font_1_39" transform="matrix(10.90909,0,0,-10.90909,285.0919,7.788908)"/>
<use xlink:href="#font_1_2a" transform="matrix(10.90909,0,0,-10.90909,292.42283,7.788908)"/>
<use xlink:href="#font_1_2a" transform="matrix(10.90909,0,0,-10.90909,295.6628,7.788908)"/>
<use xlink:href="#font_1_f" transform="matrix(10.90909,0,0,-10.90909,299.3828,7.8761808)"/>
<use xlink:href="#font_1_54" transform="matrix(10.90909,0,0,-10.90909,304.4119,7.8761808)"/>
<use xlink:href="#font_1_f" transform="matrix(10.90909,0,0,-10.90909,308.76463,7.8761808)"/>
<symbol id="font_1_2c">
<path d="M .17800002 .124000009 L .17800002 .31000004 C .21100001 .30900003 .24000003 .298 .261 .27300004 L .418 .075 C .43800003 .049000004 .45200003 .022000002 .454 .006 C .454 .003 .455 0 .45900003 0 C .479 .001 .491 .002 .513 .002 C .547 .002 .58100005 .001 .614 0 C .62 .006 .62 .027 .614 .033 C .58500006 .035 .556 .038000004 .526 .075 L .307 .335 C .299 .344 .294 .35200004 .294 .36 C .294 .367 .29500003 .374 .329 .409 L .476 .56 C .522 .609 .56200006 .613 .602 .616 C .60800006 .622 .60800006 .643 .602 .649 C .57100006 .648 .53900006 .647 .507 .647 C .47 .647 .43100003 .648 .394 .649 C .388 .643 .388 .622 .394 .616 C .43 .612 .46400003 .608 .42200003 .564 L .257 .388 C .23500002 .365 .21300002 .35200004 .17800002 .349 L .17800002 .525 C .17800002 .608 .19500001 .613 .26500003 .616 C .271 .622 .271 .643 .26500003 .649 C .21900001 .648 .17100002 .647 .135 .647 C .096 .647 .051000004 .648 .006000001 .649 C 0 .643 0 .622 .006000001 .616 C .076000008 .613 .09300001 .608 .09300001 .525 L .09300001 .124000009 C .09300001 .041 .076000008 .036000004 .006000001 .033 C 0 .027 0 .006 .006000001 0 C .051000004 .001 .097 .002 .136 .002 C .17400001 .002 .22000002 .001 .26500003 0 C .271 .006 .271 .027 .26500003 .033 C .19500001 .036000004 .17800002 .041 .17800002 .124000009 Z "/>
</symbol>
<use xlink:href="#font_1_2c" transform="matrix(37.85803,0,0,-37.85803,7.7281548,63.675817)"/>
<symbol id="font_2_12">
<path d="M .275 .124000009 L .275 .485 C .275 .538 .28300003 .595 .28300003 .595 C .28300003 .608 .275 .612 .266 .612 C .256 .612 .23900002 .608 .21600002 .597 C .155 .569 .087 .545 0 .509 C 0 .492 .007999994 .47600005 .022 .46600003 C .076000008 .48900003 .112 .49100004 .126 .49100004 C .139 .49100004 .14500001 .48700003 .14500001 .43700005 L .14500001 .124000009 C .14500001 .041 .097 .037 .041999997 .034 C .031999999 .028 .031999999 .006 .041999997 0 C .041999997 0 .171 .002 .211 .002 C .25100003 .002 .296 .001 .37800003 0 C .388 .006 .388 .028 .37800003 .034 C .323 .037 .275 .041 .275 .124000009 Z "/>
</symbol>
<symbol id="font_2_f">
<path d="M 0 .068 C 0 .030000002 .031999999 0 .072000008 0 C .11200001 0 .146 .032 .146 .07 C .146 .109000008 .114 .13900002 .074 .13900002 C .034 .13900002 0 .107 0 .068 Z "/>
</symbol>
<use xlink:href="#font_2_12" transform="matrix(10.90909,0,0,-10.90909,16.162632,19.126799)"/>
<use xlink:href="#font_2_f" transform="matrix(10.90909,0,0,-10.90909,21.300812,19.214072)"/>
<path transform="matrix(1,0,0,-1,37.587999,13.629883)" stroke-width=".388" stroke-linecap="butt" stroke-miterlimit="10" stroke-linejoin="miter" fill="none" stroke="#000000" d="M 0 0 L 272.955 0 "/>
<path transform="matrix(1,0,0,-1,37.587999,21.77002)" stroke-width=".388" stroke-linecap="butt" stroke-miterlimit="10" stroke-linejoin="miter" fill="none" stroke="#000000" d="M 0 0 L 272.955 0 "/>
<path transform="matrix(1,0,0,-1,37.587999,29.911133)" stroke-width=".388" stroke-linecap="butt" stroke-miterlimit="10" stroke-linejoin="miter" fill="none" stroke="#000000" d="M 0 0 L 272.955 0 "/>
<path transform="matrix(1,0,0,-1,37.587999,38.051759)" stroke-width=".388" stroke-linecap="butt" stroke-miterlimit="10" stroke-linejoin="miter" fill="none" stroke="#000000" d="M 0 0 L 272.955 0 "/>
<symbol id="font_3_d">
<path d="M 0 .106000009 L 0 .432 C 0 .46533335 .009666667 .49066673 .029000001 .508 C .048333337 .526 .07466667 .535 .108 .535 C .12666668 .5343334 .14100002 .52933338 .15100001 .52000007 C .16100002 .5113334 .16600001 .5 .16600001 .486 L .16600001 .31 L .156 .319 C .13666667 .33633337 .11200001 .345 .082 .345 C .054 .345 .033000005 .332 .019000002 .306 C .013000001 .29466669 .010000001 .282 .010000001 .268 C .010000001 .2546667 .013333335 .24200003 .020000002 .23000002 C .02666667 .21866668 .035333337 .20966669 .046000005 .20300001 C .057333337 .19633335 .06933334 .19300002 .082 .19300002 C .11266667 .19300002 .13733334 .20100002 .156 .21700001 L .16600001 .22700002 L .16600001 .050000006 C .16600001 .039333337 .163 .030333335 .157 .023000002 C .15166667 .0150000019 .14466667 .009333335 .136 .006000001 C .12733335 .0020000004 .118 0 .108 0 C .07466667 .000666668 .048333337 .010333336 .029000001 .029000003 C .009666667 .047000003 0 .07266667 0 .106000009 Z "/>
</symbol>
<use xlink:href="#font_3_d" transform="matrix(25.84303,0,0,-25.84303,37.587999,20.542511)"/>
<symbol id="font_1_bd">
<path d="M .30500005 .903 L .229 .78400006 C .221 .771 .21800001 .767 .21800001 .75600007 C .21800001 .749 .22500001 .74300006 .23200001 .74300006 C .23900001 .74300006 .247 .74700006 .26200003 .762 L .37700004 .87100008 L .374 .882 C .35100005 .90400007 .32500003 .90500006 .31900005 .90500006 C .314 .90500006 .30800004 .90400007 .30500005 .903 M .194 .072 C .209 .09900001 .222 .128 .235 .158 C .31500004 .351 .35900004 .453 .41200004 .56600007 C .43100003 .60800006 .44600005 .624 .49300004 .63000008 C .499 .63600006 .499 .657 .49300004 .66300007 C .47300003 .662 .45000003 .661 .42200003 .661 C .39200003 .661 .36100004 .662 .33100004 .66300007 C .32500003 .657 .32500003 .63600006 .33100004 .63000008 C .36200003 .62700006 .39500005 .62100008 .37900005 .58500006 L .279 .356 C .272 .33900003 .26400004 .337 .25500003 .357 L .167 .565 C .149 .60700008 .14400001 .625 .2 .63000008 C .206 .63600006 .206 .657 .2 .66300007 C .163 .662 .123 .661 .087000008 .661 C .053 .661 .026 .662 .006 .66300007 C 0 .657 0 .63600006 .006 .63000008 C .045 .625 .058000003 .616 .08400001 .555 L .198 .292 C .206 .271 .222 .22600001 .21200001 .19800002 C .2 .164 .18800001 .137 .17300001 .106000009 C .162 .085999999 .148 .07700001 .123 .07700001 C .109000008 .07700001 .105000007 .08 .094000007 .08 C .065000008 .08 .05 .049999998 .05 .037 C .05 .016000003 .07000001 0 .09700001 0 C .11800001 0 .158 .008000001 .194 .072 Z "/>
</symbol>
<symbol id="font_1_e">
<path d="M .23100002 0 C .244 0 .25800003 .028000012 .25800003 .040000008 C .25800003 .049999998 .254 .060000019 .244 .060000019 L .025000003 .060000019 C .013 .060000019 0 .037000017 0 .019000009 C 0 .009000003 .006000001 0 .015000001 0 L .23100002 0 Z "/>
</symbol>
<use xlink:href="#font_1_bd" transform="matrix(11.95517,0,0,-11.95517,46.16655,66.373699)"/>
<use xlink:href="#font_1_e" transform="matrix(11.95517,0,0,-11.95517,52.682119,60.934095)"/>
<symbol id="font_3_105">
<path d="M 0 .016 L 0 .169 C 0 .175 .002 .17800002 .006 .178 L .010000001 .178 C .031333336 .17400001 .051000004 .172 .069000009 .172 C .07300001 .172 .077 .172 .081 .172 C .085 .172 .08866668 .172 .09200001 .172 C .09600001 .17266667 .09933334 .17300003 .102000009 .17300001 C .116666678 .17300003 .128 .17566668 .136 .18100001 C .14400001 .18633335 .148 .19333335 .148 .202 L .148 .28900004 C .148 .29900003 .14600002 .3076667 .142 .31500004 C .13800001 .32300005 .13133334 .3296667 .12200001 .33500005 C .113333348 .34033338 .10233334 .34300003 .089 .34300003 C .057 .34300003 .031000002 .33600006 .011000001 .32200004 L .011000001 .45100004 C .011000001 .48366667 .037 .5 .089 .5 C .10966667 .5 .12766667 .49633337 .143 .48900003 C .15833335 .4816667 .16600001 .469 .16600001 .45100004 L .16600001 .017 C .16600001 .013000001 .15966667 .009333334 .147 .006000001 C .135 .0020000004 .12166667 0 .10700001 0 C .10366667 0 .09933334 .0003333334 .094000007 .0010000002 C .08866667 .0010000002 .082 .0010000002 .074 .0010000002 C .052 .0010000002 .036333335 .0016666669 .027 .0030000006 C .009000001 .0063333346 0 .010666668 0 .016 Z "/>
</symbol>
<symbol id="font_3_104">
<path d="M .13100001 0 C .12566668 0 .11766667 .0003333334 .10700001 .0010000002 C .09633335 .0010000002 .08666667 .0010000002 .078 .0010000002 C .07 .0010000002 .06033333 .0010000002 .049000004 .0010000002 C .038333335 .0003333334 .03133333 0 .028 0 C .016 0 .008333334 .0006666668 .0050000005 .0020000004 C .0016666668 .002666667 0 .0050000005 0 .009 L 0 .143 C 0 .149 .002 .152 .006 .152 L .010000001 .152 C .014666668 .15133333 .036333335 .15100001 .075 .15100001 L .109000008 .15100001 C .12033334 .15100001 .128 .15100001 .132 .15100001 C .13666667 .15166666 .14033334 .153 .143 .155 C .14633334 .15766667 .148 .162 .148 .168 C .148 .198 .12833333 .213 .089 .213 C .057 .213 .031000002 .20600002 .011000001 .192 L .011000001 .321 C .011000001 .35433338 .037 .37100003 .089 .37100003 C .10966667 .37100003 .12766667 .367 .143 .35900004 C .15833335 .3516667 .16600001 .33900003 .16600001 .321 L .16600001 .01 C .16600001 .007999999 .16533335 .0063333327 .164 .004999999 C .16333334 .0036666666 .16133334 .002666667 .158 .0020000004 C .15466668 .0013333336 .15066667 .0010000002 .14600002 .0010000002 C .142 .0003333334 .13700001 0 .13100001 0 Z "/>
</symbol>
<use xlink:href="#font_3_105" transform="matrix(25.84303,0,0,-25.84303,46.980005,40.3777)"/>
<use xlink:href="#font_3_104" transform="matrix(25.84303,0,0,-25.84303,51.269998,28.347664)"/>
<symbol id="font_1_53">
<path d="M .15600002 .36 C .15400002 .40000005 .15200001 .425 .14800002 .43600003 C .14500001 .44000004 .14400001 .44400005 .136 .44400005 C .108 .43300004 .082 .42400003 .012999998 .41500003 C .011 .409 .012999998 .39300005 .014999999 .38700003 C .069 .38200004 .08 .37700004 .08 .319 L .08 .124000009 C .08 .041 .068 .037 .005999999 .033 C 0 .027 0 .006 .005999999 0 C .041 .001 .08 .002 .12 .002 C .16000001 .002 .20600002 .001 .24100001 0 C .24700003 .006 .24700003 .027 .24100001 .033 C .17100002 .038000004 .15900001 .041 .15900001 .124000009 L .15900001 .263 C .15900001 .289 .17100002 .312 .18300002 .33 C .19400002 .34600003 .21700002 .379 .22900002 .379 C .23800002 .379 .24700003 .37600003 .254 .36600004 C .262 .356 .273 .34300003 .291 .34300003 C .315 .34300003 .338 .36800004 .338 .39300005 C .338 .41200004 .32 .441 .278 .441 C .23100002 .441 .19000001 .397 .16700001 .358 C .16100002 .34700004 .15600002 .35500003 .15600002 .36 Z "/>
</symbol>
<symbol id="font_1_4a">
<path d="M .066 .601 C .066 .575 .09 .549 .11400001 .549 C .142 .549 .16600001 .575 .16600001 .597 C .16600001 .621 .14500001 .649 .118 .649 C .09400001 .649 .066 .625 .066 .601 M .157 .124000009 L .157 .323 C .157 .37300004 .161 .43700005 .161 .43700005 C .161 .441 .156 .44400005 .148 .44400005 C .119 .43300004 .08 .42400003 .011 .41500003 C .009 .409 .011 .39300005 .013 .38700003 C .067 .381 .07800001 .37600003 .07800001 .319 L .07800001 .124000009 C .07800001 .041 .067 .038000004 .006000001 .033 C 0 .027 0 .006 .006000001 0 C .039 .001 .07800001 .002 .118 .002 C .158 .002 .19600001 .001 .22900002 0 C .235 .006 .235 .027 .22900002 .033 C .168 .037 .157 .041 .157 .124000009 Z "/>
</symbol>
<use xlink:href="#font_1_53" transform="matrix(11.95517,0,0,-11.95517,61.239107,63.62401)"/>
<use xlink:href="#font_1_4a" transform="matrix(11.95517,0,0,-11.95517,65.73425,63.62401)"/>
<use xlink:href="#font_1_e" transform="matrix(11.95517,0,0,-11.95517,69.16539,60.934095)"/>
<symbol id="font_3_1ae">
<path d="M 0 .020999998 L 0 .395 C 0 .42700003 .028000003 .443 .08400001 .44300003 C .11200001 .443 .13266666 .439 .14600002 .43100003 C .15933335 .423 .16600001 .411 .16600001 .395 L .16600001 .24100001 C .17 .26766668 .19733334 .28100003 .24800001 .28100003 C .30400003 .28100003 .33200003 .26533336 .33200003 .23400001 L .33200003 .07700001 C .314 .095000009 .28633336 .104 .24900002 .104 C .21166666 .104 .18400002 .095000009 .16600001 .07700001 L .16600001 .238 C .14866667 .25533334 .121 .264 .083000008 .264 C .056333335 .264 .03466667 .25666667 .018000002 .24200002 L .018000002 .047000007 C .018000002 .035 .017666668 .026000003 .017 .02000001 C .017 .014000009 .016666668 .009666671 .016 .0069999995 C .016 .0036666692 .015666668 .0016666651 .015000001 .0009999871 C .014333334 .00033332906 .013 0 .011000001 0 C .0076666676 .0006666581 .0050000005 .0029999912 .003 .0069999995 C .001 .010333329 0 .014999996 0 .020999998 Z "/>
</symbol>
<use xlink:href="#font_3_1ae" transform="matrix(25.84303,0,0,-25.84303,62.776994,34.62752)"/>
<symbol id="font_1_46">
<path d="M .087000008 .292 C .106000009 .405 .17600002 .414 .20000002 .414 C .238 .414 .28300003 .393 .28300003 .30900003 C .28300003 .3 .279 .29500003 .268 .29500003 L .087000008 .292 M .349 .103 C .312 .065000008 .28300003 .049000004 .22500003 .049000004 C .18900001 .049000004 .14700002 .07 .11600001 .12100001 C .096 .15400002 .08400001 .20000002 .08400001 .25800003 L .35000003 .256 C .36200003 .256 .36900003 .262 .36900003 .273 C .36900003 .357 .33900003 .447 .20000002 .447 C .113000009 .447 0 .364 0 .21200001 C 0 .15600002 .014000002 .102000009 .047000007 .064 C .08100001 .024 .128 0 .20000002 0 C .27600003 0 .33 .035 .37 .087000008 C .367 .097 .36100004 .102000009 .349 .103 Z "/>
</symbol>
<symbol id="font_1_d">
<path d="M .061 .22800002 C .030000005 .22800002 .008000001 .207 .008000001 .179 C .008000001 .147 .034000007 .138 .052000006 .135 C .07100001 .133 .088000018 .127 .088000018 .104 C .088000018 .083000008 .052000006 .037 0 .023999997 C 0 .013999999 .0020000004 .0069999995 .009 0 C .069000009 .0109999929 .127 .059 .127 .12900001 C .127 .18900001 .10100001 .22800002 .061 .22800002 Z "/>
</symbol>
<use xlink:href="#font_1_46" transform="matrix(11.95517,0,0,-11.95517,78.48934,63.71965)"/>
<use xlink:href="#font_1_d" transform="matrix(11.95517,0,0,-11.95517,83.90503,65.19013)"/>
<symbol id="font_3_1b8">
<path d="M 0 .021000013 L 0 .323 C 0 .35500003 .028000003 .37100003 .08400001 .37100003 C .11200001 .37100003 .13266666 .367 .14600002 .35900004 C .15933335 .35099999 .16600001 .339 .16600001 .323 L .16600001 .16900002 C .17 .19566669 .19733334 .20900004 .24800001 .20900002 C .30400003 .20900004 .33200003 .19333335 .33200003 .16200002 L .33200003 .00500001 C .314 .023000008 .28633336 .032000007 .24900002 .032000007 C .21166666 .032000007 .18400002 .023000008 .16600001 .00500001 L .16600001 .16600001 C .14866667 .18333335 .121 .19200002 .083000008 .19200002 C .056333335 .19200002 .03466667 .18466668 .018000002 .17000002 L .018000002 .047000007 C .018000002 .03566667 .017666668 .027000005 .017 .021000013 C .017 .015000011 .016666668 .01033334 .016 .0069999995 C .016 .0036666692 .015666668 .0016666701 .015000001 .001000002 C .014333334 .000333334 .013 0 .011000001 0 C .008333334 .000666668 .0060000007 .002000004 .004 .004000008 C .0026666669 .0060000026 .0016666668 .008333336 .001 .011000007 C .00033333337 .01366667 0 .017000005 0 .021000013 Z "/>
</symbol>
<symbol id="font_3_26">
<path d="M 0 .96000006 L .019000002 .96000006 L .019000002 0 L 0 0 L 0 .96000006 Z "/>
</symbol>
<symbol id="font_3_f3">
<path d="M 0 .48000003 C 0 .49600003 .0066666675 .508 .020000002 .51600006 C .034 .524 .055000005 .528 .083000008 .528 C .13833334 .528 .16600001 .512 .16600001 .48000003 L .16600001 .020999998 C .16600001 .008999993 .16233334 .001999994 .155 0 C .15300001 0 .15166669 .00033333899 .15100001 .0010000169 C .15033335 .001666675 .14966667 .0036666692 .149 .0069999995 C .149 .009666671 .14866667 .014000009 .148 .02000001 C .148 .026000014 .148 .035000009 .148 .04699999 L .148 .32700003 C .13133334 .3416667 .10966667 .349 .083000008 .349 C .045 .349 .017333335 .34033335 0 .323 L 0 .48000003 Z "/>
</symbol>
<symbol id="font_3_1a">
<path d="M 0 .119 L .080000009 .25500003 L .185 .134 L .104 0 L 0 .119 Z "/>
</symbol>
<symbol id="font_3_40">
<path d="M .082 .20500002 C .10066667 .205 .116000007 .20333334 .128 .2 C .14066667 .19666668 .14999999 .19133334 .156 .184 C .16266668 .17733334 .16600001 .16866668 .16600001 .158 L .16600001 0 C .14800002 .018666668 .120333347 .028000003 .083000008 .028 C .04566667 .028000003 .018000002 .018666668 0 0 L 0 .158 C 0 .18933334 .027333335 .205 .082 .20500002 Z "/>
</symbol>
<symbol id="font_3_34">
<path d="M .019000002 .68200007 L .019000002 .0029999912 C .009000001 .002333333 .0026666669 .001333336 0 0 L 0 .679 C .0033333337 .68100008 .009666667 .682 .019000002 .68200007 Z "/>
</symbol>
<use xlink:href="#font_3_1b8" transform="matrix(25.84303,0,0,-25.84303,78.574008,40.90696)"/>
<use xlink:href="#font_3_26" transform="matrix(25.84303,0,0,-25.84303,100.559009,38.219705)"/>
<use xlink:href="#font_3_26" transform="matrix(25.84303,0,0,-25.84303,104.151187,38.219705)"/>
<use xlink:href="#font_3_f3" transform="matrix(25.84303,0,0,-25.84303,118.048007,40.894495)"/>
<use xlink:href="#font_3_1a" transform="matrix(25.84303,0,0,-25.84303,123.895999,41.38558)"/>
<use xlink:href="#font_3_1a" transform="matrix(25.84303,0,0,-25.84303,127.574008,45.45589)"/>
<use xlink:href="#font_3_40" transform="matrix(25.84303,0,0,-25.84303,134.349,40.791189)"/>
<use xlink:href="#font_3_34" transform="matrix(25.84303,0,0,-25.84303,145.431,35.29944)"/>
<use xlink:href="#font_1_46" transform="matrix(11.95517,0,0,-11.95517,152.62834,63.71965)"/>
<use xlink:href="#font_1_e" transform="matrix(11.95517,0,0,-11.95517,158.00818,60.934095)"/>
<use xlink:href="#font_3_104" transform="matrix(25.84303,0,0,-25.84303,152.713,44.628915)"/>
<symbol id="font_1_4d">
<path d="M .07800001 .124000009 C .07800001 .041 .067 .036000004 .006000001 .033 C 0 .027 0 .006 .006000001 0 C .041 .001 .07800001 .002 .118 .002 C .158 .002 .19600001 .001 .229 0 C .235 .006 .235 .027 .229 .033 C .168 .036000004 .157 .041 .157 .124000009 L .157 .585 C .157 .65 .161 .69 .161 .69 C .161 .697 .157 .7 .148 .7 C .122999999 .69 .048000006 .676 .007999999 .673 C .006000001 .665 .007999999 .649 .014 .643 C .072 .639 .07800001 .636 .07800001 .561 L .07800001 .124000009 Z "/>
</symbol>
<symbol id="font_1_a9">
<path d="M .23300001 .681 L .157 .56200006 C .149 .549 .14600002 .545 .14600002 .53400006 C .14600002 .527 .15300001 .521 .16000001 .521 C .16700001 .521 .17500001 .52500006 .19000001 .54 L .305 .64900007 L .30200003 .66 C .279 .68200007 .25300003 .683 .24700001 .683 C .24200002 .683 .236 .68200007 .23300001 .681 M .087000008 .292 C .106000009 .405 .17600002 .414 .20000002 .414 C .238 .414 .28300003 .393 .28300003 .30900003 C .28300003 .3 .279 .29500003 .268 .29500003 L .087000008 .292 M .349 .103 C .312 .065000008 .28300003 .049000004 .22500003 .049000004 C .18900001 .049000004 .14700002 .07 .11600001 .12100001 C .096 .15400002 .08400001 .20000002 .08400001 .25800003 L .35000003 .256 C .36200003 .256 .36900003 .262 .36900003 .273 C .36900003 .357 .33900003 .447 .20000002 .447 C .113000009 .447 0 .364 0 .21200001 C 0 .15600002 .014000002 .102000009 .047000007 .064 C .08100001 .024 .128 0 .20000002 0 C .27600003 0 .33 .035 .37 .087000008 C .367 .097 .36100004 .102000009 .349 .103 Z "/>
</symbol>
<use xlink:href="#font_1_4d" transform="matrix(11.95517,0,0,-11.95517,162.18824,63.62401)"/>
<use xlink:href="#font_1_a9" transform="matrix(11.95517,0,0,-11.95517,165.5835,63.71965)"/>
<use xlink:href="#font_1_4a" transform="matrix(11.95517,0,0,-11.95517,170.77205,63.62401)"/>
<use xlink:href="#font_1_e" transform="matrix(11.95517,0,0,-11.95517,174.20319,60.934095)"/>
<symbol id="font_3_5ff">
<path d="M 0 .158 C 0 .18933334 .027333335 .205 .082 .20500002 C .13800001 .205 .16600001 .18933334 .16600001 .158 L .16600001 0 C .14800002 .018666668 .120333347 .028000003 .083000008 .028 C .04566667 .028000003 .018000002 .018666668 0 0 L 0 .158 M .16600001 .17400001 L .16600001 .36 C .16600001 .36200003 .16766668 .3643334 .171 .36700005 C .17433334 .3696667 .17933335 .3706667 .186 .37000004 C .23400001 .37000004 .2786667 .3626667 .32000003 .34800003 C .32933335 .3446667 .33400003 .34100006 .33400003 .33700005 L .33400003 .045 C .33400003 .037666669 .33133338 .032 .326 .028 C .32066668 .023333336 .31333337 .021000004 .30400003 .021000002 C .28933335 .021000004 .27666668 .026000003 .266 .036000004 C .256 .046000005 .25100003 .05733334 .25100003 .07000001 L .25100003 .15100001 C .2616667 .139 .27600003 .133 .294 .133 C .2986667 .133 .303 .13533335 .307 .14 C .31100003 .14466667 .3136667 .15033335 .31500004 .157 C .3136667 .163 .31000004 .16766668 .30400003 .171 C .29666669 .175 .2836667 .179 .26500003 .183 C .261 .18366666 .24800001 .185 .22600001 .187 C .20466668 .18900001 .191 .19000001 .185 .19000001 C .18233335 .19000001 .17866667 .18800001 .17400001 .184 C .16933334 .18066667 .16666667 .17733334 .16600001 .17400001 Z "/>
</symbol>
<use xlink:href="#font_3_5ff" transform="matrix(25.84303,0,0,-25.84303,167.288,32.650564)"/>
<symbol id="font_1_50">
<path d="M 0 .21500002 C 0 .113000009 .068 0 .21000001 0 C .27400003 0 .322 .022 .356 .056000007 C .40100003 .099 .42200003 .16200002 .42200003 .22400002 C .42200003 .328 .365 .449 .21200001 .449 C .146 .449 .091 .42200003 .055 .379 C .019000002 .336 0 .278 0 .21500002 M .197 .414 C .283 .414 .336 .336 .336 .19200002 C .336 .066 .271 .035 .224 .035 C .12000001 .035 .086 .16100002 .086 .23800002 C .086 .32500003 .107 .414 .197 .414 Z "/>
</symbol>
<symbol id="font_1_4f">
<path d="M .16400002 .36 C .157 .35300002 .15200001 .35000003 .15200001 .36 C .15100001 .38700003 .14800002 .425 .14400001 .43600003 C .14100002 .44000004 .14000002 .44400005 .13200002 .44400005 C .104 .43300004 .078 .42400003 .009 .41500003 C .0069999995 .409 .009 .39300005 .011 .38700003 C .065 .38200004 .076 .37700004 .076 .319 L .076 .124000009 C .076 .042000005 .066 .038000004 .005999999 .033 C 0 .027 0 .006 .005999999 0 C .036 .001 .076 .002 .116000007 .002 C .15600002 .002 .18600002 .001 .21600002 0 C .22200002 .006 .22200002 .027 .21600002 .033 C .165 .038000004 .15500002 .042000005 .15500002 .124000009 L .15500002 .28800003 C .15500002 .30900003 .16400002 .321 .172 .33 C .21000001 .367 .255 .38900004 .294 .38900004 C .314 .38900004 .335 .37600003 .347 .35300002 C .357 .33300004 .359 .30600003 .359 .27600003 L .359 .124000009 C .359 .042000005 .349 .038000004 .297 .033 C .292 .027 .292 .006 .297 0 C .327 .001 .359 .002 .39900003 .002 C .439 .002 .47500003 .001 .50500008 0 C .51000007 .006 .51000007 .027 .50500008 .033 C .449 .038000004 .43800003 .042000005 .43800003 .124000009 L .43800003 .27300004 C .43800003 .328 .43400003 .37600003 .411 .40700004 C .39400003 .42900003 .363 .441 .328 .441 C .279 .441 .22300002 .42800004 .16400002 .36 Z "/>
</symbol>
<use xlink:href="#font_1_54" transform="matrix(11.95517,0,0,-11.95517,178.75286,63.71965)"/>
<use xlink:href="#font_1_50" transform="matrix(11.95517,0,0,-11.95517,183.33168,63.71965)"/>
<use xlink:href="#font_1_4f" transform="matrix(11.95517,0,0,-11.95517,189.10602,63.62401)"/>
<use xlink:href="#font_1_f" transform="matrix(11.95517,0,0,-11.95517,196.02806,63.71965)"/>
<use xlink:href="#font_3_1b8" transform="matrix(25.84303,0,0,-25.84303,183.71,40.90696)"/>
<use xlink:href="#font_3_26" transform="matrix(25.84303,0,0,-25.84303,199.081,38.219705)"/>
<use xlink:href="#font_3_26" transform="matrix(25.84303,0,0,-25.84303,202.67319,38.219705)"/>
<use xlink:href="#font_1_2c" transform="matrix(11.95517,0,0,-11.95517,205.6934,63.62401)"/>
<use xlink:href="#font_1_bd" transform="matrix(11.95517,0,0,-11.95517,212.62743,66.373699)"/>
<path transform="matrix(1,0,0,-1,205.82199,46.191896)" stroke-width=".388" stroke-linecap="butt" stroke-miterlimit="10" stroke-linejoin="miter" fill="none" stroke="#000000" d="M 0 0 L 12.558 0 "/>
<use xlink:href="#font_3_40" transform="matrix(25.84303,0,0,-25.84303,209.956,53.00115)"/>
<use xlink:href="#font_1_53" transform="matrix(11.95517,0,0,-11.95517,218.90412,63.62401)"/>
<use xlink:href="#font_1_4a" transform="matrix(11.95517,0,0,-11.95517,223.39926,63.62401)"/>
<use xlink:href="#font_1_e" transform="matrix(11.95517,0,0,-11.95517,226.83039,60.934095)"/>
<use xlink:href="#font_3_104" transform="matrix(25.84303,0,0,-25.84303,222.587,44.628915)"/>
<use xlink:href="#font_1_46" transform="matrix(11.95517,0,0,-11.95517,234.00933,63.71965)"/>
<use xlink:href="#font_1_d" transform="matrix(11.95517,0,0,-11.95517,239.42502,65.19013)"/>
<symbol id="font_3_f4">
<path d="M 0 .323 C 0 .339 .0066666675 .35099999 .020000002 .35900004 C .034 .367 .055000005 .37100003 .083000008 .37100003 C .13833334 .37100003 .16600001 .35500003 .16600001 .323 L .16600001 .021000013 C .16600001 .009000008 .16233334 .002000004 .155 0 C .15300001 0 .15166669 .000333334 .15100001 .001000002 C .15033335 .0016666701 .14966667 .0036666692 .149 .0069999995 C .149 .01033334 .14866667 .015000011 .148 .021000013 C .148 .027000005 .148 .03566667 .148 .047000007 L .148 .17000002 C .13133334 .18466668 .10966667 .19200002 .083000008 .19200002 C .045 .19200002 .017333335 .18333335 0 .16600001 L 0 .323 Z "/>
</symbol>
<symbol id="font_3_1b">
<path d="M 0 0 L 0 .47100003 C .002 .47433339 .008 .47633339 .018000002 .47700004 L .018000002 0 L 0 0 Z "/>
</symbol>
<use xlink:href="#font_3_f4" transform="matrix(25.84303,0,0,-25.84303,234.094,44.97776)"/>
<use xlink:href="#font_3_104" transform="matrix(25.84303,0,0,-25.84303,240.363,44.628915)"/>
<use xlink:href="#font_3_1b" transform="matrix(25.84303,0,0,-25.84303,253.685,38.219285)"/>
<use xlink:href="#font_3_f3" transform="matrix(25.84303,0,0,-25.84303,263.182,40.894495)"/>
<use xlink:href="#font_3_1a" transform="matrix(25.84303,0,0,-25.84303,269.03,41.38558)"/>
<use xlink:href="#font_3_1a" transform="matrix(25.84303,0,0,-25.84303,272.708,45.45589)"/>
<use xlink:href="#font_3_40" transform="matrix(25.84303,0,0,-25.84303,279.483,40.791189)"/>
<use xlink:href="#font_3_34" transform="matrix(25.84303,0,0,-25.84303,290.565,35.29944)"/>
<use xlink:href="#font_1_46" transform="matrix(11.95517,0,0,-11.95517,297.76237,63.71965)"/>
<use xlink:href="#font_1_e" transform="matrix(11.95517,0,0,-11.95517,303.14219,60.934095)"/>
<symbol id="font_3_14">
<path d="M 0 .049000004 L 0 .22800002 C .0060000007 .22266667 .011333334 .21833332 .016 .215 C .021333335 .21233332 .027 .21033335 .033 .20900002 C .039666669 .20833333 .04766667 .208 .057000005 .208 L .057000005 .535 C .057 .5543334 .059666676 .56400009 .065000008 .56400009 L .066 .56400009 C .072000008 .56400009 .075 .5586667 .075 .54800006 C .075 .54333338 .07433334 .5373333 .07300001 .53000006 L .07300001 0 C .024333336 .007333333 0 .023666667 0 .049000004 Z "/>
</symbol>
<use xlink:href="#font_3_104" transform="matrix(25.84303,0,0,-25.84303,297.847,44.628915)"/>
<use xlink:href="#font_3_14" transform="matrix(25.84303,0,0,-25.84303,308.657,32.986524)"/>
<path transform="matrix(1,0,0,-1,1,76.59619)" stroke-width=".388" stroke-linecap="butt" stroke-miterlimit="10" stroke-linejoin="miter" fill="none" stroke="#000000" d="M 0 0 L 309.543 0 "/>
<path transform="matrix(1,0,0,-1,1,84.73584)" stroke-width=".388" stroke-linecap="butt" stroke-miterlimit="10" stroke-linejoin="miter" fill="none" stroke="#000000" d="M 0 0 L 309.543 0 "/>
<path transform="matrix(1,0,0,-1,1,92.87695)" stroke-width=".388" stroke-linecap="butt" stroke-miterlimit="10" stroke-linejoin="miter" fill="none" stroke="#000000" d="M 0 0 L 309.543 0 "/>
<path transform="matrix(1,0,0,-1,1,101.01709)" stroke-width=".388" stroke-linecap="butt" stroke-miterlimit="10" stroke-linejoin="miter" fill="none" stroke="#000000" d="M 0 0 L 309.543 0 "/>
<use xlink:href="#font_3_d" transform="matrix(25.84303,0,0,-25.84303,1,83.50882)"/>
<use xlink:href="#font_1_4d" transform="matrix(11.95517,0,0,-11.95517,6.7092349,118.41795)"/>
<use xlink:href="#font_1_a9" transform="matrix(11.95517,0,0,-11.95517,10.104504,118.513599)"/>
<use xlink:href="#font_1_4a" transform="matrix(11.95517,0,0,-11.95517,15.293051,118.41795)"/>
<use xlink:href="#font_1_e" transform="matrix(11.95517,0,0,-11.95517,18.724186,115.72804)"/>
<use xlink:href="#font_3_5ff" transform="matrix(25.84303,0,0,-25.84303,11.808998,95.61639)"/>
<use xlink:href="#font_1_54" transform="matrix(11.95517,0,0,-11.95517,23.04485,118.513599)"/>
<use xlink:href="#font_1_50" transform="matrix(11.95517,0,0,-11.95517,27.623677,118.513599)"/>
<use xlink:href="#font_1_4f" transform="matrix(11.95517,0,0,-11.95517,33.398027,118.41795)"/>
<use xlink:href="#font_1_f" transform="matrix(11.95517,0,0,-11.95517,40.320074,118.513599)"/>
<use xlink:href="#font_3_1b8" transform="matrix(25.84303,0,0,-25.84303,28.001,103.87278)"/>
<use xlink:href="#font_3_26" transform="matrix(25.84303,0,0,-25.84303,43.257005,101.18601)"/>
<use xlink:href="#font_3_26" transform="matrix(25.84303,0,0,-25.84303,46.84919,101.18601)"/>
<use xlink:href="#font_1_2c" transform="matrix(11.95517,0,0,-11.95517,49.754419,118.41795)"/>
<use xlink:href="#font_1_bd" transform="matrix(11.95517,0,0,-11.95517,56.688425,121.16764)"/>
<use xlink:href="#font_1_e" transform="matrix(11.95517,0,0,-11.95517,63.20399,115.72804)"/>
<use xlink:href="#font_3_105" transform="matrix(25.84303,0,0,-25.84303,54.017,103.34303)"/>
<use xlink:href="#font_3_104" transform="matrix(25.84303,0,0,-25.84303,58.307008,91.31397)"/>
<use xlink:href="#font_1_53" transform="matrix(11.95517,0,0,-11.95517,68.045108,118.41795)"/>
<use xlink:href="#font_1_4a" transform="matrix(11.95517,0,0,-11.95517,72.54025,118.41795)"/>
<use xlink:href="#font_1_e" transform="matrix(11.95517,0,0,-11.95517,75.97139,115.72804)"/>
<use xlink:href="#font_3_1ae" transform="matrix(25.84303,0,0,-25.84303,69.584,97.59383)"/>
<use xlink:href="#font_1_46" transform="matrix(11.95517,0,0,-11.95517,85.065349,118.513599)"/>
<use xlink:href="#font_1_d" transform="matrix(11.95517,0,0,-11.95517,90.48103,119.98408)"/>
<use xlink:href="#font_3_1b8" transform="matrix(25.84303,0,0,-25.84303,85.149997,103.87278)"/>
<use xlink:href="#font_3_1b" transform="matrix(25.84303,0,0,-25.84303,101.68953,101.185108)"/>
<use xlink:href="#font_3_f3" transform="matrix(25.84303,0,0,-25.84303,110.142,103.86031)"/>
<use xlink:href="#font_3_1a" transform="matrix(25.84303,0,0,-25.84303,115.957,104.350917)"/>
<use xlink:href="#font_3_1a" transform="matrix(25.84303,0,0,-25.84303,119.630008,108.421718)"/>
<use xlink:href="#font_3_40" transform="matrix(25.84303,0,0,-25.84303,126.388,103.75652)"/>
<use xlink:href="#font_3_34" transform="matrix(25.84303,0,0,-25.84303,137.355,98.26575)"/>
<use xlink:href="#font_1_46" transform="matrix(11.95517,0,0,-11.95517,144.43733,118.513599)"/>
<use xlink:href="#font_1_e" transform="matrix(11.95517,0,0,-11.95517,149.81717,115.72804)"/>
<use xlink:href="#font_3_104" transform="matrix(25.84303,0,0,-25.84303,144.522,107.594738)"/>
<use xlink:href="#font_1_4d" transform="matrix(11.95517,0,0,-11.95517,153.76723,118.41795)"/>
<use xlink:href="#font_1_a9" transform="matrix(11.95517,0,0,-11.95517,157.16249,118.513599)"/>
<use xlink:href="#font_1_4a" transform="matrix(11.95517,0,0,-11.95517,162.35105,118.41795)"/>
<use xlink:href="#font_1_e" transform="matrix(11.95517,0,0,-11.95517,165.78218,115.72804)"/>
<use xlink:href="#font_3_5ff" transform="matrix(25.84303,0,0,-25.84303,158.867,95.61639)"/>
<use xlink:href="#font_1_54" transform="matrix(11.95517,0,0,-11.95517,170.10186,118.513599)"/>
<use xlink:href="#font_1_50" transform="matrix(11.95517,0,0,-11.95517,174.68068,118.513599)"/>
<use xlink:href="#font_1_4f" transform="matrix(11.95517,0,0,-11.95517,180.45503,118.41795)"/>
<use xlink:href="#font_1_f" transform="matrix(11.95517,0,0,-11.95517,187.37706,118.513599)"/>
<use xlink:href="#font_3_1b8" transform="matrix(25.84303,0,0,-25.84303,175.058,103.87278)"/>
<use xlink:href="#font_3_26" transform="matrix(25.84303,0,0,-25.84303,196.263,101.18601)"/>
<use xlink:href="#font_3_26" transform="matrix(25.84303,0,0,-25.84303,199.8552,101.18601)"/>
<symbol id="font_1_24">
<path d="M .32000003 0 C .41700004 0 .50600007 .046000005 .574 .135 C .569 .14400001 .56200006 .15 .551 .15 C .48000003 .072000008 .41200004 .041 .319 .041 C .18400002 .041 .091000009 .19300002 .091000009 .33900003 C .091000009 .425 .113000009 .497 .15 .542 C .20000002 .60300007 .25800003 .63100007 .31 .63100007 C .448 .63100007 .503 .549 .52900007 .463 C .541 .45900003 .55 .462 .56200006 .46800003 C .55700007 .52000007 .55 .568 .54 .623 C .48900003 .628 .44400005 .66800007 .321 .66800007 C .236 .66800007 .165 .637 .106000009 .583 C .039000006 .522 0 .42400003 0 .32 C 0 .14600002 .105000007 0 .32000003 0 Z "/>
</symbol>
<symbol id="font_1_49">
<path d="M .15500002 .28700004 C .15500002 .30900003 .16400002 .321 .17200002 .33 C .21000003 .367 .26000003 .38900004 .3 .38900004 C .32000003 .38900004 .34100003 .37500004 .35300002 .35300002 C .36300005 .33300004 .365 .30600003 .365 .27600003 L .365 .124000009 C .365 .042000005 .35500003 .038000004 .30300004 .033 C .298 .027 .298 .006 .30300004 0 C .33100004 .001 .365 .002 .40500004 .002 C .44500003 .002 .47800002 .001 .511 0 C .516 .006 .516 .027 .511 .033 C .455 .038000004 .44400005 .042000005 .44400005 .124000009 L .44400005 .27300004 C .44400005 .328 .44000004 .37600003 .41700004 .40700004 C .40000005 .42900003 .36900003 .441 .33400003 .441 C .284 .441 .22500003 .42800004 .16400002 .36 C .16000001 .356 .15400002 .34600003 .15400002 .36 L .15500002 .585 C .15500002 .65 .15900001 .69 .15900001 .69 C .15900001 .697 .15500002 .7 .14600002 .7 C .121 .69 .046000005 .676 .006000001 .673 C .0040000008 .665 .006000001 .649 .012 .643 C .064 .64 .076000008 .645 .076000008 .561 L .076000008 .124000009 C .076000008 .041 .064 .037 .006000001 .033 C 0 .027 0 .006 .006000001 0 C .039000006 .001 .076000008 .002 .116000007 .002 C .15400002 .002 .18600002 .001 .21400002 0 C .22000002 .006 .22000002 .027 .21400002 .033 C .16400002 .037 .15500002 .041 .15500002 .124000009 L .15500002 .28700004 Z "/>
</symbol>
<use xlink:href="#font_1_24" transform="matrix(11.95517,0,0,-11.95517,195.33733,118.513599)"/>
<use xlink:href="#font_1_49" transform="matrix(11.95517,0,0,-11.95517,202.7615,118.41795)"/>
<use xlink:href="#font_1_53" transform="matrix(11.95517,0,0,-11.95517,209.28903,118.41795)"/>
<use xlink:href="#font_1_4a" transform="matrix(11.95517,0,0,-11.95517,213.78418,118.41795)"/>
<use xlink:href="#font_1_e" transform="matrix(11.95517,0,0,-11.95517,217.2153,115.72804)"/>
<use xlink:href="#font_3_40" transform="matrix(25.84303,0,0,-25.84303,212.97199,87.47527)"/>
<symbol id="font_1_55">
<path d="M .018000002 .439 C .0040000008 .439 0 .42700003 0 .419 L 0 .40600003 C 0 .40100003 .0010000002 .4 .005000001 .4 L .064 .4 L .064 .099 C .064 .028 .095000009 0 .141 0 C .187 0 .23700002 .022 .27600003 .066 C .27400003 .076 .268 .082 .25800003 .083000008 C .232 .063 .202 .055000005 .176 .055000005 C .149 .055000005 .143 .085 .143 .14700002 L .143 .4 L .24700001 .4 C .257 .4 .271 .404 .271 .41300003 L .271 .433 C .271 .437 .268 .439 .263 .439 L .143 .439 L .143 .47800002 C .143 .54300007 .147 .583 .147 .583 C .147 .58900007 .14400001 .591 .139 .591 C .134 .591 .126 .587 .117000009 .582 C .10500001 .57600006 .095000009 .572 .083000008 .568 C .071 .565 .061000006 .561 .061000006 .555 C .061000006 .54300007 .064 .55 .064 .439 L .018000002 .439 Z "/>
</symbol>
<use xlink:href="#font_1_54" transform="matrix(11.95517,0,0,-11.95517,221.53485,118.513599)"/>
<use xlink:href="#font_1_55" transform="matrix(11.95517,0,0,-11.95517,225.92238,118.513599)"/>
<use xlink:href="#font_1_46" transform="matrix(11.95517,0,0,-11.95517,229.84368,118.513599)"/>
<use xlink:href="#font_1_d" transform="matrix(11.95517,0,0,-11.95517,235.25937,119.98408)"/>
<symbol id="font_3_1b3">
<path d="M 0 .020999998 L 0 .48000003 C 0 .512 .028000003 .528 .08400001 .528 C .11200001 .528 .13266666 .524 .14600002 .51600006 C .15933335 .508 .16600001 .49600003 .16600001 .48000003 L .16600001 .326 C .17 .3526667 .19733334 .36600004 .24800001 .36600004 C .30400003 .36600004 .33200003 .35033337 .33200003 .319 L .33200003 .16200002 C .314 .18 .28633336 .18900001 .24900002 .18900001 C .21166666 .18900001 .18400002 .18 .16600001 .16200002 L .16600001 .323 C .14866667 .34033335 .121 .349 .083000008 .349 C .056333335 .349 .03466667 .3416667 .018000002 .32700003 L .018000002 .04699999 C .018000002 .035000009 .017666668 .026000014 .017 .02000001 C .017 .014000009 .016666668 .009666671 .016 .0069999995 C .016 .0036666692 .015666668 .001666675 .015000001 .0010000169 C .014333334 .00033333899 .013 0 .011000001 0 C .008333334 .00066667798 .0060000007 .002000014 .004 .004000008 C .0026666669 .005333344 .0016666668 .0076666774 .001 .011000007 C .00033333337 .013666679 0 .01700001 0 .020999998 Z "/>
</symbol>
<use xlink:href="#font_3_1b3" transform="matrix(25.84303,0,0,-25.84303,227.78299,95.7192)"/>
<use xlink:href="#font_3_1b" transform="matrix(25.84303,0,0,-25.84303,244.337,93.045459)"/>
<symbol id="font_3_3a">
<path d="M 0 .065000008 L 0 .128 L .027000003 .124 L .076000008 .097 C .102000009 .08166667 .11866667 .06966667 .126 .061000006 C .13333334 .052333338 .13700001 .040333336 .13700001 .024999999 C .13700001 .008333333 .12866669 0 .112 0 C .10133334 0 .08666667 .005333333 .068 .015999999 C .049333335 .027333335 .033333336 .038333335 .02 .049000004 L 0 .065000008 Z "/>
</symbol>
<use xlink:href="#font_3_3a" transform="matrix(25.84303,0,0,-25.84303,253.16265,82.26836)" fill="#ffffff"/>
<symbol id="font_3_39">
<path d="M .046000005 .22600001 C .058000003 .22600001 .07 .22433335 .082 .22100002 C .094000007 .21833335 .10466667 .21433334 .11400001 .209 C .123333338 .20366669 .13166668 .19800002 .13900002 .19200002 C .14633334 .186 .15200001 .17966669 .156 .17300001 C .16000001 .16633334 .162 .16033334 .162 .155 L .16000001 0 C .09600001 0 .044666668 .020333335 .006 .061000006 C .002 .16033334 0 .22500001 0 .255 L 0 .341 C 0 .359 .0043333338 .368 .013 .368 C .020333333 .368 .023999999 .35933338 .024 .342 L .021000002 .120000008 C .057 .080000009 .091 .060000004 .123 .060000004 C .13833334 .060000004 .14600002 .068 .14600002 .08400001 C .14600002 .097333338 .14266669 .108 .136 .11600001 C .12933333 .12400001 .114 .135 .09 .149 L .046000005 .17400001 L .046000005 .22600001 Z "/>
</symbol>
<symbol id="font_3_f2">
<path d="M 0 .395 C 0 .411 .0066666675 .423 .020000002 .43100003 C .034 .439 .055000005 .443 .083000008 .44300003 C .13833334 .443 .16600001 .42700003 .16600001 .395 L .16600001 .020999998 C .16600001 .008999993 .16233334 .001999994 .155 0 C .15300001 0 .15166669 .00033332906 .15100001 .0009999871 C .15033335 .0016666651 .14966667 .0036666692 .149 .0069999995 C .149 .009666671 .14866667 .014000009 .148 .02000001 C .148 .026000003 .148 .035 .148 .047000007 L .148 .24200002 C .13133334 .25666667 .10966667 .264 .083000008 .264 C .045 .264 .017333335 .25533334 0 .238 L 0 .395 Z "/>
</symbol>
<use xlink:href="#font_3_39" transform="matrix(25.84303,0,0,-25.84303,252.775,83.68972)"/>
<use xlink:href="#font_3_f2" transform="matrix(25.84303,0,0,-25.84303,259.15824,89.45271)"/>
<use xlink:href="#font_3_1a" transform="matrix(25.84303,0,0,-25.84303,264.973,88.069667)"/>
<use xlink:href="#font_3_1a" transform="matrix(25.84303,0,0,-25.84303,268.646,92.14095)"/>
<use xlink:href="#font_3_1ae" transform="matrix(25.84303,0,0,-25.84303,275.39106,97.59383)"/>
<use xlink:href="#font_3_34" transform="matrix(25.84303,0,0,-25.84303,290.63847,98.26575)"/>
<use xlink:href="#font_1_46" transform="matrix(11.95517,0,0,-11.95517,297.73637,118.513599)"/>
<use xlink:href="#font_1_e" transform="matrix(11.95517,0,0,-11.95517,303.11619,115.72804)"/>
<symbol id="font_3_16">
<path d="M 0 .049000004 L 0 .22800002 C .009333334 .22000003 .017666668 .21466668 .025 .21200001 C .032333334 .20933335 .043 .208 .057000005 .208 L .057000005 .42900003 C .057 .4416667 .059333337 .44800005 .064 .448 L .065000008 .448 C .07033334 .44733335 .07300001 .4366667 .07300001 .416 L .07300001 0 C .024333336 .007333333 0 .023666667 0 .049000004 Z "/>
</symbol>
<use xlink:href="#font_3_40" transform="matrix(25.84303,0,0,-25.84303,297.821,91.54656)"/>
<use xlink:href="#font_3_16" transform="matrix(25.84303,0,0,-25.84303,308.6234,91.88252)"/>
<path transform="matrix(1,0,0,-1,1,131.39014)" stroke-width=".388" stroke-linecap="butt" stroke-miterlimit="10" stroke-linejoin="miter" fill="none" stroke="#000000" d="M 0 0 L 309.543 0 "/>
<path transform="matrix(1,0,0,-1,1,139.53076)" stroke-width=".388" stroke-linecap="butt" stroke-miterlimit="10" stroke-linejoin="miter" fill="none" stroke="#000000" d="M 0 0 L 309.543 0 "/>
<path transform="matrix(1,0,0,-1,1,147.6709)" stroke-width=".388" stroke-linecap="butt" stroke-miterlimit="10" stroke-linejoin="miter" fill="none" stroke="#000000" d="M 0 0 L 309.543 0 "/>
<path transform="matrix(1,0,0,-1,1,155.81201)" stroke-width=".388" stroke-linecap="butt" stroke-miterlimit="10" stroke-linejoin="miter" fill="none" stroke="#000000" d="M 0 0 L 309.543 0 "/>
<use xlink:href="#font_3_d" transform="matrix(25.84303,0,0,-25.84303,1,138.30374)"/>
<use xlink:href="#font_1_4d" transform="matrix(11.95517,0,0,-11.95517,6.7092349,173.21288)"/>
<use xlink:href="#font_1_a9" transform="matrix(11.95517,0,0,-11.95517,10.104504,173.30852)"/>
<use xlink:href="#font_1_4a" transform="matrix(11.95517,0,0,-11.95517,15.293051,173.21288)"/>
<use xlink:href="#font_1_e" transform="matrix(11.95517,0,0,-11.95517,18.724186,170.52297)"/>
<symbol id="font_3_605">
<path d="M 0 .158 C 0 .19000001 .028000003 .20600002 .08400001 .20600002 C .114 .20600002 .13533335 .20266669 .148 .19600001 L .148 .528 C .148 .52933338 .148 .53033336 .148 .531 L .15 .53400006 C .15066667 .53533336 .15166669 .5363333 .15300001 .537 C .15433334 .5376666 .15633334 .53833338 .15900001 .53900006 C .16166668 .5396667 .16466667 .54 .16800002 .54 C .20400001 .53933337 .24866669 .5296667 .30200003 .51100006 C .31133334 .5083334 .316 .5046667 .316 .5 L .316 .047000003 C .316 .039666669 .31333337 .034 .30800004 .030000002 C .3026667 .025333336 .29533337 .023000002 .286 .023000002 C .27666668 .023000002 .26766668 .025333336 .259 .030000002 C .25100003 .03466667 .24466668 .04066667 .24000001 .048000006 C .23533334 .055333336 .233 .06333334 .23300001 .072000008 L .23300001 .153 C .24300002 .141 .25733338 .135 .27600003 .135 C .28133337 .135 .28633336 .13833334 .291 .14500001 C .29566667 .15166667 .298 .15866667 .298 .16600001 L .298 .31300003 C .29733337 .32500003 .29333336 .33233337 .286 .33500005 C .27400003 .33900003 .257 .34266673 .23500002 .34600003 C .21300002 .35 .19566667 .352 .18300002 .352 C .17966669 .352 .176 .35033334 .172 .347 C .16866668 .34433333 .16666667 .341 .16600001 .337 L .16600001 0 C .16333334 .002666667 .16033334 .005333334 .157 .008000001 C .15433334 .010000002 .15133335 .012000002 .148 .014000002 C .14466667 .015333335 .14100002 .017 .13700001 .019000002 C .13366668 .020333335 .13 .021666669 .126 .023000002 C .122 .02366667 .11766667 .024333336 .113000009 .025000003 C .10833334 .025666669 .10333333 .026333338 .098000008 .027000003 C .09333334 .027666668 .08833334 .028000003 .083000008 .028 C .04566667 .028000003 .018000002 .018666668 0 0 L 0 .158 Z "/>
</symbol>
<use xlink:href="#font_3_605" transform="matrix(25.84303,0,0,-25.84303,11.808998,146.3922)"/>
<use xlink:href="#font_1_54" transform="matrix(11.95517,0,0,-11.95517,22.860852,173.30852)"/>
<use xlink:href="#font_1_50" transform="matrix(11.95517,0,0,-11.95517,27.439679,173.30852)"/>
<use xlink:href="#font_1_4f" transform="matrix(11.95517,0,0,-11.95517,33.214029,173.21288)"/>
<use xlink:href="#font_1_f" transform="matrix(11.95517,0,0,-11.95517,40.136075,173.30852)"/>
<use xlink:href="#font_3_40" transform="matrix(25.84303,0,0,-25.84303,27.817002,142.27019)"/>
<use xlink:href="#font_3_26" transform="matrix(25.84303,0,0,-25.84303,46.440004,155.97995)"/>
<use xlink:href="#font_3_26" transform="matrix(25.84303,0,0,-25.84303,50.03219,155.97995)"/>
<use xlink:href="#font_1_24" transform="matrix(11.95517,0,0,-11.95517,47.22034,173.30852)"/>
<use xlink:href="#font_1_49" transform="matrix(11.95517,0,0,-11.95517,54.6445,173.21288)"/>
<use xlink:href="#font_1_53" transform="matrix(11.95517,0,0,-11.95517,61.172029,173.21288)"/>
<use xlink:href="#font_1_4a" transform="matrix(11.95517,0,0,-11.95517,65.667179,173.21288)"/>
<use xlink:href="#font_1_e" transform="matrix(11.95517,0,0,-11.95517,69.09831,170.52297)"/>
<use xlink:href="#font_3_f3" transform="matrix(25.84303,0,0,-25.84303,64.854999,150.51412)"/>
<use xlink:href="#font_3_1a" transform="matrix(25.84303,0,0,-25.84303,70.58099,146.93489)"/>
<use xlink:href="#font_3_1a" transform="matrix(25.84303,0,0,-25.84303,74.23801,151.00472)"/>
<use xlink:href="#font_3_1ae" transform="matrix(25.84303,0,0,-25.84303,80.933,152.38777)"/>
<use xlink:href="#font_1_54" transform="matrix(11.95517,0,0,-11.95517,90.06785,173.30852)"/>
<use xlink:href="#font_1_55" transform="matrix(11.95517,0,0,-11.95517,94.45541,173.30852)"/>
<use xlink:href="#font_1_46" transform="matrix(11.95517,0,0,-11.95517,98.3767,173.30852)"/>
<use xlink:href="#font_1_d" transform="matrix(11.95517,0,0,-11.95517,103.79239,174.779)"/>
<use xlink:href="#font_3_1b8" transform="matrix(25.84303,0,0,-25.84303,96.315998,158.6677)"/>
<use xlink:href="#font_3_1b" transform="matrix(25.84303,0,0,-25.84303,109.98695,155.98003)"/>
<use xlink:href="#font_3_f3" transform="matrix(25.84303,0,0,-25.84303,115.565998,158.65425)"/>
<use xlink:href="#font_3_1a" transform="matrix(25.84303,0,0,-25.84303,121.291,159.14583)"/>
<use xlink:href="#font_3_1a" transform="matrix(25.84303,0,0,-25.84303,124.949008,163.21566)"/>
<use xlink:href="#font_3_40" transform="matrix(25.84303,0,0,-25.84303,131.643,158.55144)"/>
<use xlink:href="#font_3_34" transform="matrix(25.84303,0,0,-25.84303,142.172,153.0597)"/>
<use xlink:href="#font_1_46" transform="matrix(11.95517,0,0,-11.95517,148.81734,173.30852)"/>
<use xlink:href="#font_1_e" transform="matrix(11.95517,0,0,-11.95517,154.19718,170.52297)"/>
<use xlink:href="#font_3_104" transform="matrix(25.84303,0,0,-25.84303,148.902,162.38869)"/>
<use xlink:href="#font_1_4d" transform="matrix(11.95517,0,0,-11.95517,157.96224,173.21288)"/>
<use xlink:href="#font_1_a9" transform="matrix(11.95517,0,0,-11.95517,161.3575,173.30852)"/>
<use xlink:href="#font_1_4a" transform="matrix(11.95517,0,0,-11.95517,166.54605,173.21288)"/>
<use xlink:href="#font_1_e" transform="matrix(11.95517,0,0,-11.95517,169.97719,170.52297)"/>
<use xlink:href="#font_3_5ff" transform="matrix(25.84303,0,0,-25.84303,163.062,150.41033)"/>
<use xlink:href="#font_1_54" transform="matrix(11.95517,0,0,-11.95517,174.11385,173.30852)"/>
<use xlink:href="#font_1_50" transform="matrix(11.95517,0,0,-11.95517,178.69268,173.30852)"/>
<use xlink:href="#font_1_4f" transform="matrix(11.95517,0,0,-11.95517,184.46703,173.21288)"/>
<use xlink:href="#font_1_f" transform="matrix(11.95517,0,0,-11.95517,191.38906,173.30852)"/>
<use xlink:href="#font_3_1b8" transform="matrix(25.84303,0,0,-25.84303,179.07,158.6677)"/>
<use xlink:href="#font_3_26" transform="matrix(25.84303,0,0,-25.84303,199.83802,155.97995)"/>
<use xlink:href="#font_3_26" transform="matrix(25.84303,0,0,-25.84303,203.4302,155.97995)"/>
<use xlink:href="#font_1_24" transform="matrix(11.95517,0,0,-11.95517,198.47335,173.30852)"/>
<use xlink:href="#font_1_49" transform="matrix(11.95517,0,0,-11.95517,205.89752,173.21288)"/>
<use xlink:href="#font_1_53" transform="matrix(11.95517,0,0,-11.95517,212.42505,173.21288)"/>
<use xlink:href="#font_1_4a" transform="matrix(11.95517,0,0,-11.95517,216.9202,173.21288)"/>
<use xlink:href="#font_1_e" transform="matrix(11.95517,0,0,-11.95517,220.35132,170.52297)"/>
<use xlink:href="#font_3_40" transform="matrix(25.84303,0,0,-25.84303,216.108,142.27019)"/>
<use xlink:href="#font_1_54" transform="matrix(11.95517,0,0,-11.95517,224.48786,173.30852)"/>
<use xlink:href="#font_1_55" transform="matrix(11.95517,0,0,-11.95517,228.87538,173.30852)"/>
<use xlink:href="#font_1_46" transform="matrix(11.95517,0,0,-11.95517,232.79668,173.30852)"/>
<use xlink:href="#font_1_d" transform="matrix(11.95517,0,0,-11.95517,238.21237,174.779)"/>
<use xlink:href="#font_3_1b3" transform="matrix(25.84303,0,0,-25.84303,230.737,150.51412)"/>
<use xlink:href="#font_3_1b" transform="matrix(25.84303,0,0,-25.84303,246.332,147.8394)"/>
<use xlink:href="#font_3_3a" transform="matrix(25.84303,0,0,-25.84303,254.20165,137.06328)" fill="#ffffff"/>
<use xlink:href="#font_3_39" transform="matrix(25.84303,0,0,-25.84303,253.814,138.48465)"/>
<use xlink:href="#font_3_f2" transform="matrix(25.84303,0,0,-25.84303,260.19725,144.24764)"/>
<use xlink:href="#font_3_1a" transform="matrix(25.84303,0,0,-25.84303,265.921,142.86458)"/>
<use xlink:href="#font_3_1a" transform="matrix(25.84303,0,0,-25.84303,269.579,146.93489)"/>
<use xlink:href="#font_3_1ae" transform="matrix(25.84303,0,0,-25.84303,276.27238,152.38777)"/>
<use xlink:href="#font_3_34" transform="matrix(25.84303,0,0,-25.84303,291.08045,153.0597)"/>
<use xlink:href="#font_1_46" transform="matrix(11.95517,0,0,-11.95517,297.73637,173.30852)"/>
<use xlink:href="#font_1_e" transform="matrix(11.95517,0,0,-11.95517,303.11619,170.52297)"/>
<use xlink:href="#font_3_40" transform="matrix(25.84303,0,0,-25.84303,297.821,146.3405)"/>
<use xlink:href="#font_3_16" transform="matrix(25.84303,0,0,-25.84303,308.6234,146.67647)"/>
<path transform="matrix(1,0,0,-1,1,186.18506)" stroke-width=".388" stroke-linecap="butt" stroke-miterlimit="10" stroke-linejoin="miter" fill="none" stroke="#000000" d="M 0 0 L 309.543 0 "/>
<path transform="matrix(1,0,0,-1,1,194.3252)" stroke-width=".388" stroke-linecap="butt" stroke-miterlimit="10" stroke-linejoin="miter" fill="none" stroke="#000000" d="M 0 0 L 309.543 0 "/>
<path transform="matrix(1,0,0,-1,1,202.46582)" stroke-width=".388" stroke-linecap="butt" stroke-miterlimit="10" stroke-linejoin="miter" fill="none" stroke="#000000" d="M 0 0 L 309.543 0 "/>
<path transform="matrix(1,0,0,-1,1,210.60596)" stroke-width=".388" stroke-linecap="butt" stroke-miterlimit="10" stroke-linejoin="miter" fill="none" stroke="#000000" d="M 0 0 L 309.543 0 "/>
<use xlink:href="#font_3_d" transform="matrix(25.84303,0,0,-25.84303,1,193.09769)"/>
<use xlink:href="#font_1_4d" transform="matrix(11.95517,0,0,-11.95517,6.7092349,228.00682)"/>
<use xlink:href="#font_1_a9" transform="matrix(11.95517,0,0,-11.95517,10.104504,228.10247)"/>
<use xlink:href="#font_1_4a" transform="matrix(11.95517,0,0,-11.95517,15.293051,228.00682)"/>
<use xlink:href="#font_1_e" transform="matrix(11.95517,0,0,-11.95517,18.724186,225.31691)"/>
<use xlink:href="#font_3_605" transform="matrix(25.84303,0,0,-25.84303,11.808998,201.18712)"/>
<use xlink:href="#font_1_54" transform="matrix(11.95517,0,0,-11.95517,23.027852,228.10247)"/>
<use xlink:href="#font_1_50" transform="matrix(11.95517,0,0,-11.95517,27.606678,228.10247)"/>
<use xlink:href="#font_1_4f" transform="matrix(11.95517,0,0,-11.95517,33.381029,228.00682)"/>
<use xlink:href="#font_1_f" transform="matrix(11.95517,0,0,-11.95517,40.303075,228.10247)"/>
<use xlink:href="#font_3_40" transform="matrix(25.84303,0,0,-25.84303,27.985,197.06414)"/>
<use xlink:href="#font_3_26" transform="matrix(25.84303,0,0,-25.84303,40.207,210.77487)"/>
<use xlink:href="#font_3_26" transform="matrix(25.84303,0,0,-25.84303,43.799188,210.77487)"/>
<use xlink:href="#font_1_2c" transform="matrix(11.95517,0,0,-11.95517,47.96042,228.00682)"/>
<use xlink:href="#font_1_bd" transform="matrix(11.95517,0,0,-11.95517,54.894418,230.75652)"/>
<use xlink:href="#font_3_40" transform="matrix(25.84303,0,0,-25.84303,52.224,197.06414)"/>
<use xlink:href="#font_1_53" transform="matrix(11.95517,0,0,-11.95517,61.171113,228.00682)"/>
<use xlink:href="#font_1_4a" transform="matrix(11.95517,0,0,-11.95517,65.66626,228.00682)"/>
<use xlink:href="#font_1_e" transform="matrix(11.95517,0,0,-11.95517,69.0974,225.31691)"/>
<use xlink:href="#font_3_104" transform="matrix(25.84303,0,0,-25.84303,64.854007,188.69191)"/>
<use xlink:href="#font_1_46" transform="matrix(11.95517,0,0,-11.95517,76.03034,228.10247)"/>
<use xlink:href="#font_1_d" transform="matrix(11.95517,0,0,-11.95517,81.44603,229.57295)"/>
<symbol id="font_3_520">
<path d="M 0 .47500003 C 0 .50633338 .027333335 .522 .082 .522 C .13800001 .522 .16600001 .50633338 .16600001 .47500003 L .16600001 .317 C .14800002 .3356667 .120333347 .34500004 .083000008 .34500004 C .04566667 .34500004 .018000002 .3356667 0 .317 L 0 .47500003 M .16600001 .63100007 C .16600001 .66300007 .194 .6790001 .25 .679 C .30466668 .6790001 .33200003 .66300007 .33200003 .63100007 L .33200003 .19600001 C .34533335 .20266669 .3666667 .20600002 .39600004 .20600002 C .45200003 .20600002 .48000003 .19000001 .48000003 .158 L .48000003 0 C .462 .018666665 .43433333 .027999998 .397 .027999998 C .35966669 .027999998 .33200003 .018666665 .314 0 L .314 .48700003 C .29733334 .49633337 .27566669 .50100007 .24900002 .50100007 C .21166666 .50100007 .18400002 .4916667 .16600001 .47300003 L .16600001 .63100007 Z "/>
</symbol>
<use xlink:href="#font_3_f2" transform="matrix(25.84303,0,0,-25.84303,76.115009,190.90145)"/>
<use xlink:href="#font_3_520" transform="matrix(25.84303,0,0,-25.84303,82.37399,197.11673)"/>
<use xlink:href="#font_3_1b" transform="matrix(25.84303,0,0,-25.84303,102.67799,202.63433)"/>
<use xlink:href="#font_3_3a" transform="matrix(25.84303,0,0,-25.84303,111.43064,191.85723)" fill="#ffffff"/>
<use xlink:href="#font_3_39" transform="matrix(25.84303,0,0,-25.84303,111.043,193.2786)"/>
<use xlink:href="#font_3_105" transform="matrix(25.84303,0,0,-25.84303,117.425,200.72194)"/>
<use xlink:href="#font_3_1a" transform="matrix(25.84303,0,0,-25.84303,123.23801,197.65853)"/>
<use xlink:href="#font_3_1a" transform="matrix(25.84303,0,0,-25.84303,126.910999,201.72982)"/>
<use xlink:href="#font_3_1ae" transform="matrix(25.84303,0,0,-25.84303,133.65602,207.1827)"/>
<use xlink:href="#font_3_34" transform="matrix(25.84303,0,0,-25.84303,148.9034,207.85462)"/>
<use xlink:href="#font_1_46" transform="matrix(11.95517,0,0,-11.95517,155.98534,228.10247)"/>
<use xlink:href="#font_1_e" transform="matrix(11.95517,0,0,-11.95517,161.36518,225.31691)"/>
<use xlink:href="#font_3_40" transform="matrix(25.84303,0,0,-25.84303,156.07,201.13542)"/>
<use xlink:href="#font_1_4d" transform="matrix(11.95517,0,0,-11.95517,165.29824,228.00682)"/>
<use xlink:href="#font_1_a9" transform="matrix(11.95517,0,0,-11.95517,168.6935,228.10247)"/>
<use xlink:href="#font_1_4a" transform="matrix(11.95517,0,0,-11.95517,173.88205,228.00682)"/>
<use xlink:href="#font_1_e" transform="matrix(11.95517,0,0,-11.95517,177.31319,225.31691)"/>
<use xlink:href="#font_3_605" transform="matrix(25.84303,0,0,-25.84303,170.398,201.18712)"/>
<use xlink:href="#font_1_54" transform="matrix(11.95517,0,0,-11.95517,181.61685,228.10247)"/>
<use xlink:href="#font_1_50" transform="matrix(11.95517,0,0,-11.95517,186.19567,228.10247)"/>
<use xlink:href="#font_1_4f" transform="matrix(11.95517,0,0,-11.95517,191.97,228.00682)"/>
<use xlink:href="#font_1_f" transform="matrix(11.95517,0,0,-11.95517,198.89205,228.10247)"/>
<use xlink:href="#font_3_40" transform="matrix(25.84303,0,0,-25.84303,186.573,197.06414)"/>
<use xlink:href="#font_3_26" transform="matrix(25.84303,0,0,-25.84303,198.79599,210.77487)"/>
<use xlink:href="#font_3_26" transform="matrix(25.84303,0,0,-25.84303,202.38819,210.77487)"/>
<use xlink:href="#font_1_2c" transform="matrix(11.95517,0,0,-11.95517,206.54943,228.00682)"/>
<use xlink:href="#font_1_bd" transform="matrix(11.95517,0,0,-11.95517,213.48345,230.75652)"/>
<use xlink:href="#font_1_e" transform="matrix(11.95517,0,0,-11.95517,219.99903,225.31691)"/>
<use xlink:href="#font_3_f3" transform="matrix(25.84303,0,0,-25.84303,210.81201,205.30806)"/>
<use xlink:href="#font_3_1a" transform="matrix(25.84303,0,0,-25.84303,216.625,201.72982)"/>
<use xlink:href="#font_3_1a" transform="matrix(25.84303,0,0,-25.84303,220.298,205.79964)"/>
<use xlink:href="#font_3_40" transform="matrix(25.84303,0,0,-25.84303,227.055,201.13542)"/>
<use xlink:href="#font_1_53" transform="matrix(11.95517,0,0,-11.95517,234.63211,228.00682)"/>
<use xlink:href="#font_1_4a" transform="matrix(11.95517,0,0,-11.95517,239.12726,228.00682)"/>
<use xlink:href="#font_1_e" transform="matrix(11.95517,0,0,-11.95517,242.55838,225.31691)"/>
<use xlink:href="#font_3_40" transform="matrix(25.84303,0,0,-25.84303,238.315,205.20525)"/>
<use xlink:href="#font_1_46" transform="matrix(11.95517,0,0,-11.95517,249.49135,228.10247)"/>
<use xlink:href="#font_1_d" transform="matrix(11.95517,0,0,-11.95517,254.90705,229.57295)"/>
<use xlink:href="#font_3_1b8" transform="matrix(25.84303,0,0,-25.84303,249.57599,213.46213)"/>
<use xlink:href="#font_3_1b" transform="matrix(25.84303,0,0,-25.84303,266.038,210.77446)"/>
<use xlink:href="#font_3_f3" transform="matrix(25.84303,0,0,-25.84303,274.419,213.44918)"/>
<use xlink:href="#font_3_1a" transform="matrix(25.84303,0,0,-25.84303,280.232,213.93978)"/>
<use xlink:href="#font_3_1a" transform="matrix(25.84303,0,0,-25.84303,283.905,218.01058)"/>
<use xlink:href="#font_3_40" transform="matrix(25.84303,0,0,-25.84303,290.662,213.34539)"/>
<use xlink:href="#font_3_34" transform="matrix(25.84303,0,0,-25.84303,301.62,207.85462)"/>
<use xlink:href="#font_3_16" transform="matrix(25.84303,0,0,-25.84303,308.631,217.75215)"/>
<path transform="matrix(1,0,0,-1,1,240.979)" stroke-width=".388" stroke-linecap="butt" stroke-miterlimit="10" stroke-linejoin="miter" fill="none" stroke="#000000" d="M 0 0 L 309.543 0 "/>
<path transform="matrix(1,0,0,-1,1,249.12012)" stroke-width=".388" stroke-linecap="butt" stroke-miterlimit="10" stroke-linejoin="miter" fill="none" stroke="#000000" d="M 0 0 L 309.543 0 "/>
<path transform="matrix(1,0,0,-1,1,257.25978)" stroke-width=".388" stroke-linecap="butt" stroke-miterlimit="10" stroke-linejoin="miter" fill="none" stroke="#000000" d="M 0 0 L 309.543 0 "/>
<path transform="matrix(1,0,0,-1,1,265.40089)" stroke-width=".388" stroke-linecap="butt" stroke-miterlimit="10" stroke-linejoin="miter" fill="none" stroke="#000000" d="M 0 0 L 309.543 0 "/>
<use xlink:href="#font_3_d" transform="matrix(25.84303,0,0,-25.84303,1,247.89261)"/>
<use xlink:href="#font_1_46" transform="matrix(11.95517,0,0,-11.95517,11.724339,282.89738)"/>
<use xlink:href="#font_1_e" transform="matrix(11.95517,0,0,-11.95517,17.104168,280.11183)"/>
<use xlink:href="#font_3_104" transform="matrix(25.84303,0,0,-25.84303,11.808998,271.97755)"/>
<use xlink:href="#font_1_4d" transform="matrix(11.95517,0,0,-11.95517,21.08724,282.80174)"/>
<use xlink:href="#font_1_a9" transform="matrix(11.95517,0,0,-11.95517,24.48251,282.89738)"/>
<use xlink:href="#font_1_4a" transform="matrix(11.95517,0,0,-11.95517,29.671057,282.80174)"/>
<use xlink:href="#font_1_e" transform="matrix(11.95517,0,0,-11.95517,33.102193,280.11183)"/>
<use xlink:href="#font_3_5ff" transform="matrix(25.84303,0,0,-25.84303,26.186997,259.9992)"/>
<use xlink:href="#font_1_54" transform="matrix(11.95517,0,0,-11.95517,37.454847,282.89738)"/>
<use xlink:href="#font_1_50" transform="matrix(11.95517,0,0,-11.95517,42.033674,282.89738)"/>
<use xlink:href="#font_1_4f" transform="matrix(11.95517,0,0,-11.95517,47.80802,282.80174)"/>
<use xlink:href="#font_1_f" transform="matrix(11.95517,0,0,-11.95517,54.73007,282.89738)"/>
<use xlink:href="#font_3_1b8" transform="matrix(25.84303,0,0,-25.84303,42.411005,268.25706)"/>
<use xlink:href="#font_3_26" transform="matrix(25.84303,0,0,-25.84303,57.684007,265.56883)"/>
<use xlink:href="#font_3_26" transform="matrix(25.84303,0,0,-25.84303,61.276185,265.56883)"/>
<use xlink:href="#font_1_2c" transform="matrix(11.95517,0,0,-11.95517,64.197429,282.80174)"/>
<use xlink:href="#font_1_bd" transform="matrix(11.95517,0,0,-11.95517,71.131427,285.55143)"/>
<use xlink:href="#font_3_40" transform="matrix(25.84303,0,0,-25.84303,68.46001,251.85955)"/>
<use xlink:href="#font_1_53" transform="matrix(11.95517,0,0,-11.95517,77.407108,282.80174)"/>
<use xlink:href="#font_1_4a" transform="matrix(11.95517,0,0,-11.95517,81.90225,282.80174)"/>
<use xlink:href="#font_1_e" transform="matrix(11.95517,0,0,-11.95517,85.33339,280.11183)"/>
<use xlink:href="#font_3_104" transform="matrix(25.84303,0,0,-25.84303,81.091,243.48586)"/>
<use xlink:href="#font_1_46" transform="matrix(11.95517,0,0,-11.95517,92.315349,282.89738)"/>
<use xlink:href="#font_1_d" transform="matrix(11.95517,0,0,-11.95517,97.73103,284.36787)"/>
<use xlink:href="#font_3_f2" transform="matrix(25.84303,0,0,-25.84303,92.399997,245.69539)"/>
<use xlink:href="#font_3_520" transform="matrix(25.84303,0,0,-25.84303,98.662,251.91068)"/>
<use xlink:href="#font_3_1b" transform="matrix(25.84303,0,0,-25.84303,119.190998,257.42829)"/>
<use xlink:href="#font_3_3a" transform="matrix(25.84303,0,0,-25.84303,128.16765,246.65215)" fill="#ffffff"/>
<use xlink:href="#font_3_39" transform="matrix(25.84303,0,0,-25.84303,127.78,248.07352)"/>
<use xlink:href="#font_3_105" transform="matrix(25.84303,0,0,-25.84303,134.163,255.51589)"/>
<use xlink:href="#font_3_1a" transform="matrix(25.84303,0,0,-25.84303,139.983,252.45394)"/>
<use xlink:href="#font_3_1a" transform="matrix(25.84303,0,0,-25.84303,143.657,256.52378)"/>
<use xlink:href="#font_3_1ae" transform="matrix(25.84303,0,0,-25.84303,150.40203,261.97666)"/>
<use xlink:href="#font_3_104" transform="matrix(25.84303,0,0,-25.84303,160.94597,255.6968)"/>
<use xlink:href="#font_3_f3" transform="matrix(25.84303,0,0,-25.84303,167.23,260.1035)"/>
<use xlink:href="#font_3_26" transform="matrix(25.84303,0,0,-25.84303,183.953,265.56883)"/>
<use xlink:href="#font_3_26" transform="matrix(25.84303,0,0,-25.84303,187.54517,265.56883)"/>
<use xlink:href="#font_3_40" transform="matrix(25.84303,0,0,-25.84303,200.469,251.85955)"/>
<use xlink:href="#font_3_104" transform="matrix(25.84303,0,0,-25.84303,206.73099,243.48586)"/>
<use xlink:href="#font_3_520" transform="matrix(25.84303,0,0,-25.84303,212.98502,251.91068)"/>
<use xlink:href="#font_3_1b" transform="matrix(25.84303,0,0,-25.84303,233.521,257.42829)"/>
<use xlink:href="#font_3_105" transform="matrix(25.84303,0,0,-25.84303,242.10089,255.51589)"/>
<use xlink:href="#font_3_1a" transform="matrix(25.84303,0,0,-25.84303,247.931,252.45394)"/>
<use xlink:href="#font_3_1a" transform="matrix(25.84303,0,0,-25.84303,251.60501,256.52378)"/>
<use xlink:href="#font_3_1ae" transform="matrix(25.84303,0,0,-25.84303,258.35008,261.97666)"/>
<use xlink:href="#font_3_104" transform="matrix(25.84303,0,0,-25.84303,268.89405,255.6968)"/>
<use xlink:href="#font_3_f3" transform="matrix(25.84303,0,0,-25.84303,275.178,260.1035)"/>
<use xlink:href="#font_3_26" transform="matrix(25.84303,0,0,-25.84303,291.901,265.56883)"/>
<use xlink:href="#font_3_26" transform="matrix(25.84303,0,0,-25.84303,295.4932,265.56883)"/>
<use xlink:href="#font_3_14" transform="matrix(25.84303,0,0,-25.84303,308.657,252.19551)"/>
<path transform="matrix(1,0,0,-1,1,295.77394)" stroke-width=".388" stroke-linecap="butt" stroke-miterlimit="10" stroke-linejoin="miter" fill="none" stroke="#000000" d="M 0 0 L 309.543 0 "/>
<path transform="matrix(1,0,0,-1,1,303.91407)" stroke-width=".388" stroke-linecap="butt" stroke-miterlimit="10" stroke-linejoin="miter" fill="none" stroke="#000000" d="M 0 0 L 309.543 0 "/>
<path transform="matrix(1,0,0,-1,1,312.05519)" stroke-width=".388" stroke-linecap="butt" stroke-miterlimit="10" stroke-linejoin="miter" fill="none" stroke="#000000" d="M 0 0 L 309.543 0 "/>
<path transform="matrix(1,0,0,-1,1,320.19483)" stroke-width=".388" stroke-linecap="butt" stroke-miterlimit="10" stroke-linejoin="miter" fill="none" stroke="#000000" d="M 0 0 L 309.543 0 "/>
<symbol id="font_3_1c">
<path d="M 0 .47700004 L .018000002 .47700004 L .018000002 0 C .008 0 .002 .0013333311 0 .003999993 L 0 .47700004 Z "/>
</symbol>
<use xlink:href="#font_3_d" transform="matrix(25.84303,0,0,-25.84303,1,302.68656)"/>
<use xlink:href="#font_3_f3" transform="matrix(25.84303,0,0,-25.84303,11.808998,314.89744)"/>
<use xlink:href="#font_3_1a" transform="matrix(25.84303,0,0,-25.84303,17.598,311.3187)"/>
<use xlink:href="#font_3_1a" transform="matrix(25.84303,0,0,-25.84303,21.267998,315.38853)"/>
<use xlink:href="#font_3_f2" transform="matrix(25.84303,0,0,-25.84303,28.013,316.77159)"/>
<use xlink:href="#font_3_1a" transform="matrix(25.84303,0,0,-25.84303,33.801004,315.38853)"/>
<use xlink:href="#font_3_1a" transform="matrix(25.84303,0,0,-25.84303,37.471,319.45884)"/>
<use xlink:href="#font_3_1a" transform="matrix(25.84303,0,0,-25.84303,41.141,323.52964)"/>
<use xlink:href="#font_3_1c" transform="matrix(25.84303,0,0,-25.84303,53.053,316.02214)"/>
<use xlink:href="#font_3_f3" transform="matrix(25.84303,0,0,-25.84303,60.649995,323.03807)"/>
<use xlink:href="#font_3_1a" transform="matrix(25.84303,0,0,-25.84303,66.438,323.52964)"/>
<use xlink:href="#font_3_1a" transform="matrix(25.84303,0,0,-25.84303,70.108,327.59996)"/>
<use xlink:href="#font_3_40" transform="matrix(25.84303,0,0,-25.84303,76.853,322.93525)"/>
<use xlink:href="#font_3_34" transform="matrix(25.84303,0,0,-25.84303,87.728,317.44349)"/>
<use xlink:href="#font_1_46" transform="matrix(11.95517,0,0,-11.95517,94.71934,337.6913)"/>
<use xlink:href="#font_1_e" transform="matrix(11.95517,0,0,-11.95517,100.09917,334.90577)"/>
<use xlink:href="#font_3_104" transform="matrix(25.84303,0,0,-25.84303,94.804,326.77296)"/>
<use xlink:href="#font_1_4d" transform="matrix(11.95517,0,0,-11.95517,103.864238,337.59568)"/>
<use xlink:href="#font_1_a9" transform="matrix(11.95517,0,0,-11.95517,107.2595,337.6913)"/>
<use xlink:href="#font_1_4a" transform="matrix(11.95517,0,0,-11.95517,112.448047,337.59568)"/>
<use xlink:href="#font_1_e" transform="matrix(11.95517,0,0,-11.95517,115.87918,334.90577)"/>
<use xlink:href="#font_3_5ff" transform="matrix(25.84303,0,0,-25.84303,108.964008,314.79414)"/>
<use xlink:href="#font_1_54" transform="matrix(11.95517,0,0,-11.95517,120.01585,337.6913)"/>
<use xlink:href="#font_1_50" transform="matrix(11.95517,0,0,-11.95517,124.59469,337.6913)"/>
<use xlink:href="#font_1_4f" transform="matrix(11.95517,0,0,-11.95517,130.36904,337.59568)"/>
<use xlink:href="#font_1_f" transform="matrix(11.95517,0,0,-11.95517,137.29108,337.6913)"/>
<use xlink:href="#font_3_1b8" transform="matrix(25.84303,0,0,-25.84303,124.972,323.051)"/>
<use xlink:href="#font_3_26" transform="matrix(25.84303,0,0,-25.84303,141.821,320.36375)"/>
<use xlink:href="#font_3_26" transform="matrix(25.84303,0,0,-25.84303,145.41318,320.36375)"/>
</g>
</g>
</svg>
