<?xml version="1.0" encoding="UTF-8" standalone="no"?>
<!DOCTYPE svg PUBLIC "-//W3C//DTD SVG 1.1//EN" "http://www.w3.org/Graphics/SVG/1.1/DTD/svg11.dtd">
<svg xmlns="http://www.w3.org/2000/svg" xmlns:xlink="http://www.w3.org/1999/xlink" version="1.1" width="311pt" height="322pt" viewBox="0 0 311 322">
<g enable-background="new">
<clipPath id="cp0">
<path transform="matrix(1,0,0,-1,-71,16251)" d="M 0 0 L 453.543 0 L 453.543 16322.79 L 0 16322.79 Z "/>
</clipPath>
<g clip-path="url(#cp0)">
<path transform="matrix(1,0,0,-1,1,3.8408204)" stroke-width=".388" stroke-linecap="butt" stroke-miterlimit="10" stroke-linejoin="miter" fill="none" stroke="#000000" d="M 0 0 L 309.543 0 "/>
<path transform="matrix(1,0,0,-1,1,11.982422)" stroke-width=".388" stroke-linecap="butt" stroke-miterlimit="10" stroke-linejoin="miter" fill="none" stroke="#000000" d="M 0 0 L 309.543 0 "/>
<path transform="matrix(1,0,0,-1,1,20.123047)" stroke-width=".388" stroke-linecap="butt" stroke-miterlimit="10" stroke-linejoin="miter" fill="none" stroke="#000000" d="M 0 0 L 309.543 0 "/>
<path transform="matrix(1,0,0,-1,1,28.262696)" stroke-width=".388" stroke-linecap="butt" stroke-miterlimit="10" stroke-linejoin="miter" fill="none" stroke="#000000" d="M 0 0 L 309.543 0 "/>
<symbol id="font_1_d">
<path d="M 0 .106000009 L 0 .432 C 0 .46533335 .009666667 .49066673 .029000001 .508 C .048333337 .526 .07466667 .535 .108 .535 C .12666668 .5343334 .14100002 .52933338 .15100001 .52000007 C .16100002 .5113334 .16600001 .5 .16600001 .486 L .16600001 .31 L .156 .319 C .13666667 .33633337 .11200001 .345 .082 .345 C .054 .345 .033000005 .332 .019000002 .306 C .013000001 .29466669 .010000001 .282 .010000001 .268 C .010000001 .2546667 .013333335 .24200003 .020000002 .23000002 C .02666667 .21866668 .035333337 .20966669 .046000005 .20300001 C .057333337 .19633335 .06933334 .19300002 .082 .19300002 C .11266667 .19300002 .13733334 .20100002 .156 .21700001 L .16600001 .22700002 L .16600001 .050000006 C .16600001 .039333337 .163 .030333335 .157 .023000002 C .15166667 .0150000019 .14466667 .009333335 .136 .006000001 C .12733335 .0020000004 .118 0 .108 0 C .07466667 .000666668 .048333337 .010333336 .029000001 .029000003 C .009666667 .047000003 0 .07266667 0 .106000009 Z "/>
</symbol>
<use xlink:href="#font_1_d" transform="matrix(25.84303,0,0,-25.84303,1,18.89505)"/>
<symbol id="font_2_31">
<path d="M .093 .525 L .093 .124000009 C .093 .041 .076000008 .036000004 .006 .033 C 0 .027 0 .006 .006 0 C .051000004 .001 .10000001 .002 .13599999 .002 C .171 .002 .23 .001 .28 0 C .286 .006 .286 .027 .28 .033 C .202 .037 .178 .041 .178 .124000009 L .178 .29400004 C .2 .28700004 .224 .284 .259 .284 C .441 .284 .49600003 .40300004 .49600003 .48800005 C .49600003 .547 .45700003 .654 .272 .654 C .234 .654 .175 .647 .135 .647 C .098000008 .647 .046000005 .648 .006 .649 C 0 .643 0 .622 .006 .616 C .076000008 .613 .093 .608 .093 .525 M .178 .556 C .178 .585 .193 .62 .26500003 .62 C .33400003 .62 .40300004 .597 .40300004 .47000004 C .40300004 .36200003 .351 .31800003 .254 .31800003 C .229 .31800003 .189 .32000003 .178 .323 L .178 .556 Z "/>
</symbol>
<symbol id="font_2_42">
<path d="M .257 .058000003 C .263 .027000003 .274 0 .324 0 C .36200003 0 .398 .017 .419 .037 C .417 .049000004 .41300003 .058000003 .402 .064 C .395 .058000003 .37800003 .048000006 .365 .048000006 C .336 .048000006 .335 .087000008 .335 .133 L .335 .28 C .335 .42200003 .257 .449 .18400002 .449 C .10200001 .449 .019000002 .395 .019000002 .338 C .019000002 .314 .031 .30200003 .054 .30200003 C .083000008 .30200003 .10100001 .323 .10100001 .336 C .10100001 .343 .10000001 .35 .098000008 .354 C .097 .357 .096 .363 .096 .374 C .096 .405 .13800001 .416 .17600002 .416 C .21000001 .416 .257 .39900003 .257 .286 C .257 .279 .254 .275 .251 .274 L .165 .25300003 C .069000009 .22900002 0 .17600002 0 .108 C 0 .026 .056000007 0 .126 0 C .16100002 0 .19100002 .008 .23500003 .042000005 L .255 .058000003 L .257 .058000003 M .257 .24300002 L .257 .111 C .257 .098000008 .251 .091 .24300002 .085 C .21700002 .064 .18300002 .041 .15500002 .041 C .105000007 .041 .083000008 .081 .083000008 .112 C .083000008 .157 .104 .20300001 .17800002 .22200002 L .257 .24300002 Z "/>
</symbol>
<symbol id="font_2_e">
<path d="M .23100002 0 C .244 0 .25800003 .028000012 .25800003 .040000008 C .25800003 .049999998 .254 .060000019 .244 .060000019 L .025000003 .060000019 C .013 .060000019 0 .037000017 0 .019000009 C 0 .009000003 .006000001 0 .015000001 0 L .23100002 0 Z "/>
</symbol>
<use xlink:href="#font_2_31" transform="matrix(11.95517,0,0,-11.95517,4.886504,45.66356)"/>
<use xlink:href="#font_2_42" transform="matrix(11.95517,0,0,-11.95517,11.653134,45.7592)"/>
<use xlink:href="#font_2_e" transform="matrix(11.95517,0,0,-11.95517,17.16447,42.973646)"/>
<symbol id="font_1_40">
<path d="M .082 .20500002 C .10066667 .205 .116000007 .20333334 .128 .2 C .14066667 .19666668 .14999999 .19133334 .156 .184 C .16266668 .17733334 .16600001 .16866668 .16600001 .158 L .16600001 0 C .14800002 .018666668 .120333347 .028000003 .083000008 .028 C .04566667 .028000003 .018000002 .018666668 0 0 L 0 .158 C 0 .18933334 .027333335 .205 .082 .20500002 Z "/>
</symbol>
<use xlink:href="#font_1_40" transform="matrix(25.84303,0,0,-25.84303,11.808998,26.932303)"/>
<symbol id="font_2_55">
<path d="M .018000002 .439 C .0040000008 .439 0 .42700003 0 .419 L 0 .40600003 C 0 .40100003 .0010000002 .4 .005000001 .4 L .064 .4 L .064 .099 C .064 .028 .095000009 0 .141 0 C .187 0 .23700002 .022 .27600003 .066 C .27400003 .076 .268 .082 .25800003 .083000008 C .232 .063 .202 .055000005 .176 .055000005 C .149 .055000005 .143 .085 .143 .14700002 L .143 .4 L .24700001 .4 C .257 .4 .271 .404 .271 .41300003 L .271 .433 C .271 .437 .268 .439 .263 .439 L .143 .439 L .143 .47800002 C .143 .54300007 .147 .583 .147 .583 C .147 .58900007 .14400001 .592 .139 .592 C .135 .592 .126 .588 .117000009 .583 C .10600001 .577 .09600001 .572 .083000008 .569 C .071 .565 .061000006 .56200006 .061000006 .555 C .061000006 .54300007 .064 .55 .064 .439 L .018000002 .439 Z "/>
</symbol>
<symbol id="font_2_46">
<path d="M .349 .103 C .312 .065000008 .28300003 .049000004 .22500003 .049000004 C .18900001 .049000004 .14700002 .07 .11600001 .12100001 C .096 .15400002 .08400001 .20000002 .08400001 .25800003 L .35000003 .256 C .36200003 .256 .36900003 .262 .36900003 .273 C .36900003 .357 .33900003 .447 .20000002 .447 C .113000009 .447 0 .364 0 .21200001 C 0 .15600002 .014000002 .102000009 .047000007 .064 C .08100001 .024 .128 0 .20000002 0 C .27600003 0 .33 .035 .37 .087000008 C .367 .097 .36100004 .102000009 .349 .103 M .087000008 .292 C .106000009 .405 .17600002 .414 .20000002 .414 C .238 .414 .28300003 .393 .28300003 .30900003 C .28300003 .3 .279 .29500003 .268 .29500003 L .087000008 .292 Z "/>
</symbol>
<symbol id="font_2_53">
<path d="M .15600002 .36 C .15400002 .40000005 .15300001 .42600004 .14800002 .43600003 C .14600002 .441 .14400001 .44400005 .136 .44400005 C .108 .43300004 .082 .42400003 .012999998 .41500003 C .011 .409 .012999998 .39300005 .014999999 .38700003 C .069 .38200004 .08 .37700004 .08 .319 L .08 .124000009 C .08 .041 .068 .037 .005999999 .033 C 0 .027 0 .006 .005999999 0 C .041 .001 .08 .002 .12 .002 C .16000001 .002 .20600002 .001 .24100001 0 C .24700003 .006 .24700003 .027 .24100001 .033 C .17100002 .038000004 .15900001 .041 .15900001 .124000009 L .15900001 .263 C .15900001 .289 .17100002 .312 .18300002 .33 C .19400002 .34600003 .21700002 .379 .22900002 .379 C .23800002 .379 .24700003 .37700004 .255 .36600004 C .262 .356 .274 .34300003 .291 .34300003 C .315 .34300003 .338 .36800004 .338 .39300005 C .338 .41200004 .32 .441 .278 .441 C .23100002 .441 .19000001 .397 .16700001 .358 C .16100002 .34700004 .15600002 .35500003 .15600002 .36 Z "/>
</symbol>
<use xlink:href="#font_2_55" transform="matrix(11.95517,0,0,-11.95517,21.484877,45.7592)"/>
<use xlink:href="#font_2_46" transform="matrix(11.95517,0,0,-11.95517,25.40617,45.7592)"/>
<use xlink:href="#font_2_53" transform="matrix(11.95517,0,0,-11.95517,30.546896,45.66356)"/>
<use xlink:href="#font_1_40" transform="matrix(25.84303,0,0,-25.84303,25.490998,22.86199)"/>
<symbol id="font_2_4f">
<path d="M .16400002 .36 C .158 .35300002 .15200001 .351 .15200001 .36 C .15100001 .38700003 .14900002 .42600004 .14400001 .43600003 C .142 .441 .14000002 .44400005 .13200002 .44400005 C .104 .43300004 .078 .42400003 .009 .41500003 C .0069999995 .409 .009 .39300005 .011 .38700003 C .065 .38200004 .076 .37700004 .076 .319 L .076 .124000009 C .076 .042000005 .066 .038000004 .005999999 .033 C 0 .027 0 .006 .005999999 0 C .036 .001 .076 .002 .116000007 .002 C .15600002 .002 .18600002 .001 .21600002 0 C .22200002 .006 .22200002 .027 .21600002 .033 C .165 .038000004 .15500002 .042000005 .15500002 .124000009 L .15500002 .28800003 C .15500002 .30900003 .16400002 .321 .172 .33 C .21000001 .367 .255 .38900004 .294 .38900004 C .314 .38900004 .335 .37600003 .347 .35300002 C .357 .33300004 .359 .30600003 .359 .27600003 L .359 .124000009 C .359 .042000005 .349 .038000004 .297 .033 C .292 .027 .292 .006 .297 0 C .327 .001 .359 .002 .39900003 .002 C .439 .002 .47500003 .001 .50500008 0 C .51000007 .006 .51000007 .027 .50500008 .033 C .449 .038000004 .43800003 .042000005 .43800003 .124000009 L .43800003 .27300004 C .43800003 .328 .43400003 .37600003 .411 .40700004 C .39400003 .42900003 .363 .441 .328 .441 C .279 .441 .22300002 .42800004 .16400002 .36 Z "/>
</symbol>
<symbol id="font_2_50">
<path d="M 0 .21500002 C 0 .113000009 .068 0 .21000001 0 C .27400003 0 .323 .023000002 .35700003 .056000007 C .402 .1 .42200003 .16300002 .42200003 .22400002 C .42200003 .328 .365 .449 .21200001 .449 C .146 .449 .092 .42200003 .055 .379 C .019000002 .336 0 .278 0 .21500002 M .197 .414 C .283 .414 .336 .336 .336 .19200002 C .336 .066 .271 .035 .224 .035 C .12000001 .035 .086 .16100002 .086 .23800002 C .086 .32500003 .107 .414 .197 .414 Z "/>
</symbol>
<use xlink:href="#font_2_4f" transform="matrix(11.95517,0,0,-11.95517,40.272104,45.66356)"/>
<use xlink:href="#font_2_50" transform="matrix(11.95517,0,0,-11.95517,47.002866,45.7592)"/>
<use xlink:href="#font_1_40" transform="matrix(25.84303,0,0,-25.84303,47.379999,18.791678)"/>
<symbol id="font_2_54">
<path d="M 0 .14800002 C .0040000008 .099 .007000003 .052000006 .007000003 .010000001 C .017000005 .012000001 .027000003 .013 .032000007 .013 C .039000006 .013 .045 .013 .052 .011000001 C .079 .0040000008 .10600001 0 .143 0 C .199 0 .30200003 .027000003 .30200003 .126 C .30200003 .19400002 .25300003 .23400001 .185 .259 C .125 .282 .085 .297 .085 .352 C .085 .393 .121000017 .416 .155 .416 C .17700002 .416 .23500002 .40800003 .248 .323 C .254 .317 .27400003 .31800003 .28 .324 C .28300003 .36 .285 .397 .286 .43 C .255 .435 .20700002 .449 .155 .449 C .08100001 .449 .014000002 .40100003 .014000002 .337 C .014000002 .264 .047000007 .23300001 .124000009 .20100002 C .20700002 .16700001 .22600001 .14600002 .22600001 .103 C .22600001 .054000006 .178 .033000005 .141 .033000005 C .102000009 .033000005 .080000009 .046000005 .07000001 .057000005 C .048 .08 .037 .124000009 .031000004 .14900002 C .025000006 .15500002 .006000001 .15400002 0 .14800002 Z "/>
</symbol>
<symbol id="font_2_d">
<path d="M .061 .22800002 C .030000005 .22800002 .008000001 .207 .008000001 .179 C .008000001 .148 .034000007 .138 .052000006 .135 C .07100001 .133 .088000018 .127 .088000018 .104 C .088000018 .083000008 .052000006 .037 0 .023999997 C 0 .013999999 .0020000004 .0069999995 .009 0 C .069000009 .0109999929 .127 .059 .127 .12900001 C .127 .18900001 .10100001 .22800002 .061 .22800002 Z "/>
</symbol>
<use xlink:href="#font_2_54" transform="matrix(11.95517,0,0,-11.95517,53.11185,45.7592)"/>
<use xlink:href="#font_2_55" transform="matrix(11.95517,0,0,-11.95517,57.499395,45.7592)"/>
<use xlink:href="#font_2_46" transform="matrix(11.95517,0,0,-11.95517,61.42069,45.7592)"/>
<use xlink:href="#font_2_53" transform="matrix(11.95517,0,0,-11.95517,66.56142,45.66356)"/>
<use xlink:href="#font_2_d" transform="matrix(11.95517,0,0,-11.95517,71.28371,47.229688)"/>
<symbol id="font_1_7d">
<path d="M .0019999999 .032 L .18 .032 L .178 0 L 0 0 L .0019999999 .032 Z "/>
</symbol>
<symbol id="font_1_59">
<path d="M 0 .103 C .004 .107 .009666667 .109000008 .017 .109000008 C .025 .109000008 .03066667 .107 .034 .103 L .034 .006000001 C .031333336 .0020000004 .025666669 0 .017 0 C .009000001 0 .0033333337 .0020000004 0 .006000001 L 0 .103 Z "/>
</symbol>
<symbol id="font_1_2a">
<path d="M 0 .319 L .019000002 .319 L .019000002 0 C .009666667 .0006666581 .0033333337 .0029999912 0 .0069999995 L 0 .319 Z "/>
</symbol>
<use xlink:href="#font_1_40" transform="matrix(25.84303,0,0,-25.84303,61.505006,18.791678)"/>
<use xlink:href="#font_1_7d" transform="matrix(25.84303,0,0,-25.84303,61.324106,7.280676)"/>
<use xlink:href="#font_1_59" transform="matrix(25.84303,0,0,-25.84303,63.211,24.586268)"/>
<use xlink:href="#font_1_2a" transform="matrix(25.84303,0,0,-25.84303,78.19299,8.454464)"/>
<symbol id="font_2_52">
<path d="M .31100003 .123 C .31100003 .040000008 .3 .036 .23900002 .033000009 C .23300001 .026999996 .23300001 .0059999974 .23900002 0 C .27400003 .001000002 .31100003 .002000004 .351 .002000004 C .39100004 .002000004 .42900003 .001000002 .462 0 C .46800003 .0059999974 .46800003 .026999996 .462 .033000009 C .40100003 .036 .39000003 .040000008 .39000003 .123 L .39000003 .651 C .39000003 .665 .38600005 .67600008 .37500004 .67600008 C .36800004 .67600008 .36200003 .66800007 .35400004 .657 C .34100003 .63900008 .337 .63600006 .32500003 .64400008 C .293 .66400006 .254 .67300006 .21200001 .67300006 C .09 .67300006 0 .573 0 .44100005 C 0 .34800003 .06300001 .224 .20700002 .224 C .23400003 .224 .26700003 .23000002 .284 .24000001 C .307 .25300003 .31100003 .25500003 .31100003 .23400001 L .31100003 .123 M .28700004 .60200008 C .307 .58000007 .31100003 .56500008 .31100003 .541 L .31100003 .31100003 C .31100003 .293 .31000004 .28800003 .29700003 .28100003 C .27400003 .26900003 .24700001 .268 .231 .268 C .17300001 .268 .08600001 .31 .08600001 .46100004 C .08600001 .56500008 .128 .63900008 .20800002 .63900008 C .238 .63900008 .26500003 .62700006 .28700004 .60200008 Z "/>
</symbol>
<symbol id="font_2_56">
<path d="M .19700001 .0029999996 C .23600002 .0029999996 .283 .023000002 .33200003 .063 C .337 .067 .34600003 .069000009 .347 .062000004 C .35 .037 .358 .0029999996 .358 .0029999996 C .366 0 .37100003 .0010000002 .377 .0029999996 C .39900003 .021000002 .43400003 .036000004 .49500004 .043 C .50100007 .049000004 .50100007 .064 .49500004 .07000001 C .43100003 .075 .42200003 .094 .42200003 .143 L .42200003 .33500005 C .42200003 .36500005 .426 .43800003 .426 .43800003 C .426 .44100005 .423 .44400005 .418 .44400005 C .41300003 .44300003 .398 .44200004 .38300003 .44200004 C .351 .44200004 .315 .44300003 .28100003 .44400005 C .275 .43800003 .275 .41700004 .28100003 .41100005 C .33 .40800003 .343 .39600004 .343 .33 L .343 .13700001 C .343 .118 .34100003 .11 .327 .098000008 C .29 .066 .252 .05 .22700002 .05 C .19700001 .05 .14700002 .064 .14700002 .153 L .14700002 .33500005 C .14700002 .36500005 .15100001 .43800003 .15100001 .43800003 C .15100001 .44100005 .14800002 .44400005 .143 .44400005 C .13800001 .44300003 .123 .44200004 .108 .44200004 C .076 .44200004 .04 .44300003 .005999999 .44400005 C 0 .43800003 0 .41700004 .005999999 .41100005 C .053999999 .40700004 .068 .39600004 .068 .33100004 L .068 .139 C .068 .07000001 .098000008 .0029999996 .19700001 .0029999996 Z "/>
</symbol>
<symbol id="font_2_4a">
<path d="M .157 .124000009 L .157 .323 C .157 .37300004 .161 .43700005 .161 .43700005 C .161 .441 .156 .44400005 .148 .44400005 C .120000008 .43300004 .08 .42400003 .011 .41500003 C .009 .409 .011 .39300005 .013 .38700003 C .068 .38200004 .07800001 .37600003 .07800001 .319 L .07800001 .124000009 C .07800001 .041 .067 .038000004 .006000001 .033 C 0 .027 0 .006 .006000001 0 C .039 .001 .07800001 .002 .118 .002 C .158 .002 .19600001 .001 .22900002 0 C .235 .006 .235 .027 .22900002 .033 C .168 .037 .157 .041 .157 .124000009 M .066 .601 C .066 .575 .09 .549 .11400001 .549 C .142 .549 .16600001 .576 .16600001 .597 C .16600001 .621 .14500001 .649 .118 .649 C .09400001 .649 .066 .625 .066 .601 Z "/>
</symbol>
<use xlink:href="#font_2_52" transform="matrix(11.95517,0,0,-11.95517,79.66343,48.437158)"/>
<use xlink:href="#font_2_56" transform="matrix(11.95517,0,0,-11.95517,85.49756,45.795068)"/>
<use xlink:href="#font_2_4a" transform="matrix(11.95517,0,0,-11.95517,91.89357,45.66356)"/>
<use xlink:href="#font_1_40" transform="matrix(25.84303,0,0,-25.84303,91.08099,22.86199)"/>
<use xlink:href="#font_2_46" transform="matrix(11.95517,0,0,-11.95517,103.96534,45.7592)"/>
<use xlink:href="#font_2_54" transform="matrix(11.95517,0,0,-11.95517,109.4408,45.7592)"/>
<use xlink:href="#font_1_40" transform="matrix(25.84303,0,0,-25.84303,104.05,14.721365)"/>
<use xlink:href="#font_2_4a" transform="matrix(11.95517,0,0,-11.95517,119.094928,45.66356)"/>
<use xlink:href="#font_2_4f" transform="matrix(11.95517,0,0,-11.95517,122.28696,45.66356)"/>
<use xlink:href="#font_1_40" transform="matrix(25.84303,0,0,-25.84303,118.283008,18.791678)"/>
<symbol id="font_2_44">
<path d="M .36100004 .101 C .35700003 .11 .349 .114 .34 .115 C .30600003 .071 .263 .049000004 .22 .049000004 C .14700002 .049000004 .086 .123 .086 .24000001 C .086 .35 .134 .416 .20000002 .416 C .259 .416 .26700003 .381 .27100004 .34600003 C .27400003 .319 .28800003 .31 .30900003 .31 C .33 .31 .358 .323 .358 .354 C .358 .409 .30100004 .449 .20500002 .449 C .106000009 .449 0 .36 0 .21800001 C 0 .089 .072000008 0 .19800002 0 C .25800003 0 .31100003 .019000002 .36100004 .101 Z "/>
</symbol>
<symbol id="font_2_a6">
<path d="M .22600001 .394 C .24900002 .37 .25800003 .33900003 .259 .26 C .172 .254 .106000009 .24100001 .06300001 .21500002 C .026999999 .19400002 0 .15200001 0 .112 C 0 .07 .015000001 .038000004 .049000008 .018000002 C .07100001 .0060000007 .10700001 0 .143 0 C .18 0 .231 .015000001 .277 .062000004 C .289 .074 .293 .078 .301 .069000009 C .32200004 .045 .361 0 .45200003 0 C .51800009 0 .57600006 .039 .6050001 .093 C .60200008 .098000008 .59400007 .108 .58500006 .109000008 C .55500009 .074 .52000007 .049000004 .466 .049000004 C .391 .049000004 .33200003 .13800001 .33200003 .22800002 C .5630001 .23100002 .609 .268 .609 .349 C .609 .38300003 .56500008 .449 .451 .449 C .39400003 .449 .342 .42400003 .30900003 .379 C .272 .446 .19500001 .449 .171 .449 C .089 .449 .011 .405 .011 .347 C .011 .327 .020000004 .30200003 .051000004 .30200003 C .076000008 .30200003 .09 .319 .09 .335 C .09 .342 .089 .349 .087 .35300002 C .08500001 .356 .08400001 .363 .08400001 .373 C .08400001 .402 .12200001 .416 .161 .416 C .18200001 .416 .211 .409 .22600001 .394 M .259 .22500001 C .259 .17500001 .25800003 .142 .254 .123 C .23900002 .083000008 .187 .042000005 .155 .042000005 C .09900001 .042000005 .07200001 .074 .07200001 .117000009 C .07200001 .14000002 .08400001 .16200002 .109 .18 C .14 .20300001 .19000001 .22000002 .259 .22500001 M .333 .263 C .34100003 .34800003 .38200004 .416 .45000003 .416 C .498 .416 .53300008 .37800003 .53300008 .34600003 C .53300008 .285 .48600004 .26500003 .333 .263 Z "/>
</symbol>
<use xlink:href="#font_2_44" transform="matrix(11.95517,0,0,-11.95517,134.24733,45.7592)"/>
<use xlink:href="#font_2_a6" transform="matrix(11.95517,0,0,-11.95517,139.38805,45.7592)"/>
<use xlink:href="#font_2_e" transform="matrix(11.95517,0,0,-11.95517,147.6132,42.973646)"/>
<use xlink:href="#font_1_40" transform="matrix(25.84303,0,0,-25.84303,140.883,22.86199)"/>
<symbol id="font_2_4d">
<path d="M .07800001 .124000009 C .07800001 .041 .067 .036000004 .006000001 .033 C 0 .027 0 .006 .006000001 0 C .041 .001 .07800001 .002 .118 .002 C .158 .002 .19600001 .001 .229 0 C .235 .006 .235 .027 .229 .033 C .168 .036000004 .157 .041 .157 .124000009 L .157 .585 C .157 .65 .161 .69 .161 .69 C .161 .697 .157 .7 .148 .7 C .122999999 .69 .048000006 .676 .007999999 .673 C .006000001 .665 .007999999 .649 .014 .643 C .072 .639 .07800001 .636 .07800001 .561 L .07800001 .124000009 Z "/>
</symbol>
<symbol id="font_2_1b">
<path d="M 0 .053000004 C 0 .024 .024000004 0 .053000004 0 C .08200001 0 .10600001 .024 .10600001 .053000004 C .10600001 .082 .08200001 .106000009 .053000004 .106000009 C .024000004 .106000009 0 .082 0 .053000004 M 0 .351 C 0 .32200004 .024000004 .298 .053000004 .298 C .08200001 .298 .10600001 .32200004 .10600001 .351 C .10600001 .38000003 .08200001 .404 .053000004 .404 C .024000004 .404 0 .38000003 0 .351 Z "/>
</symbol>
<use xlink:href="#font_2_4d" transform="matrix(11.95517,0,0,-11.95517,151.83823,45.66356)"/>
<use xlink:href="#font_2_4a" transform="matrix(11.95517,0,0,-11.95517,155.07808,45.66356)"/>
<use xlink:href="#font_2_54" transform="matrix(11.95517,0,0,-11.95517,158.60486,45.7592)"/>
<use xlink:href="#font_2_1b" transform="matrix(11.95517,0,0,-11.95517,166.5192,45.55596)"/>
<symbol id="font_1_b">
<path d="M .060000004 .010000005 C .052666669 .0033333377 .044333336 .0000000037252905 .035 .0000000037252905 C .026333334 .0000000037252905 .018333335 .0033333377 .011000001 .010000005 C .003666667 .016666674 0 .025000006 0 .035000009 C 0 .045666677 .003666667 .054333345 .011000001 .061000009 C .018333335 .06766667 .026333334 .07100001 .035 .07100001 C .044333336 .07100001 .052666669 .06766667 .060000004 .061000009 C .06733333 .054333345 .071 .045666677 .071 .035000009 C .071 .025000006 .06733333 .016666674 .060000004 .010000005 Z "/>
</symbol>
<symbol id="font_1_34">
<path d="M .019000002 .68200007 L .019000002 .0029999912 C .009000001 .002333333 .0026666669 .001333336 0 0 L 0 .679 C .0033333337 .68100008 .009666667 .682 .019000002 .68200007 Z "/>
</symbol>
<use xlink:href="#font_1_40" transform="matrix(25.84303,0,0,-25.84303,154.266,26.932303)"/>
<use xlink:href="#font_1_b" transform="matrix(25.84303,0,0,-25.84303,160.01,25.3318)"/>
<use xlink:href="#font_1_34" transform="matrix(25.84303,0,0,-25.84303,169.577,25.510865)"/>
<use xlink:href="#font_2_54" transform="matrix(11.95517,0,0,-11.95517,174.95885,45.7592)"/>
<use xlink:href="#font_2_42" transform="matrix(11.95517,0,0,-11.95517,179.4779,45.7592)"/>
<use xlink:href="#font_1_40" transform="matrix(25.84303,0,0,-25.84303,179.634,22.86199)"/>
<use xlink:href="#font_2_4f" transform="matrix(11.95517,0,0,-11.95517,184.7501,45.66356)"/>
<use xlink:href="#font_2_44" transform="matrix(11.95517,0,0,-11.95517,191.43303,45.7592)"/>
<use xlink:href="#font_2_55" transform="matrix(11.95517,0,0,-11.95517,196.40639,45.7592)"/>
<use xlink:href="#font_2_4a" transform="matrix(11.95517,0,0,-11.95517,200.17227,45.66356)"/>
<use xlink:href="#font_2_e" transform="matrix(11.95517,0,0,-11.95517,203.6034,42.973646)"/>
<use xlink:href="#font_1_40" transform="matrix(25.84303,0,0,-25.84303,199.35999,26.932303)"/>
<symbol id="font_2_939">
<path d="M .448 .124000009 L .448 .335 C .448 .374 .45200003 .43800003 .45200003 .43800003 C .45200003 .44200004 .446 .44400005 .442 .44400005 C .412 .432 .38300003 .43100003 .348 .43100003 L .15100001 .43100003 L .15100001 .48800005 C .15100001 .583 .18500002 .666 .253 .666 C .296 .666 .33 .65500006 .338 .614 C .348 .564 .36900003 .549 .4 .549 C .42200003 .549 .44300003 .569 .44300003 .59 C .44300003 .652 .358 .7 .265 .7 C .21900001 .7 .164 .682 .12300001 .634 C .08100001 .585 .072000008 .524 .072000008 .44600005 L .072000008 .43100003 L .023 .43100003 C .004999999 .43100003 0 .41900004 0 .411 L 0 .39800004 C 0 .39300005 .0010000002 .39200003 .004999999 .39200003 L .072000008 .39200003 L .072000008 .124000009 C .072000008 .041 .061000006 .037 .0069999995 .033 C .0010000002 .027 .0010000002 .006 .0069999995 0 C .041 .001 .07700001 .002 .112 .002 C .14700002 .002 .19200002 .001 .22500001 0 C .23100002 .006 .23100002 .027 .22500001 .033 C .16100002 .037 .15100001 .041 .15100001 .124000009 L .15100001 .39200003 L .33 .39200003 C .361 .39200003 .36900003 .372 .36900003 .321 L .36900003 .124000009 C .36900003 .041 .357 .037 .302 .033 C .296 .027 .296 .006 .302 0 C .337 .001 .373 .002 .409 .002 C .444 .002 .48299999 .001 .52000007 0 C .526 .006 .526 .027 .52000007 .033 C .45900003 .037 .448 .041 .448 .124000009 Z "/>
</symbol>
<use xlink:href="#font_2_939" transform="matrix(11.95517,0,0,-11.95517,208.24602,45.66356)"/>
<use xlink:href="#font_2_e" transform="matrix(11.95517,0,0,-11.95517,215.1561,42.973646)"/>
<use xlink:href="#font_1_40" transform="matrix(25.84303,0,0,-25.84303,210.913,22.86199)"/>
<symbol id="font_2_a9">
<path d="M .349 .103 C .312 .065000008 .28300003 .049000004 .22500003 .049000004 C .18900001 .049000004 .14700002 .07 .11600001 .12100001 C .096 .15400002 .08400001 .20000002 .08400001 .25800003 L .35000003 .256 C .36200003 .256 .36900003 .262 .36900003 .273 C .36900003 .357 .33900003 .447 .20000002 .447 C .113000009 .447 0 .364 0 .21200001 C 0 .15600002 .014000002 .102000009 .047000007 .064 C .08100001 .024 .128 0 .20000002 0 C .27600003 0 .33 .035 .37 .087000008 C .367 .097 .36100004 .102000009 .349 .103 M .087000008 .292 C .106000009 .405 .17600002 .414 .20000002 .414 C .238 .414 .28300003 .393 .28300003 .30900003 C .28300003 .3 .279 .29500003 .268 .29500003 L .087000008 .292 M .23300001 .681 L .157 .56200006 C .149 .549 .14600002 .545 .14600002 .53400006 C .14600002 .527 .15300001 .521 .16000001 .521 C .16700001 .521 .17500001 .52500006 .19000001 .54 L .305 .64900007 L .30200003 .66 C .279 .68200007 .25300003 .683 .24700001 .683 C .24200002 .683 .236 .68200007 .23300001 .681 Z "/>
</symbol>
<use xlink:href="#font_2_44" transform="matrix(11.95517,0,0,-11.95517,219.61934,45.7592)"/>
<use xlink:href="#font_2_a9" transform="matrix(11.95517,0,0,-11.95517,224.73616,45.7592)"/>
<use xlink:href="#font_2_e" transform="matrix(11.95517,0,0,-11.95517,230.116,42.973646)"/>
<use xlink:href="#font_1_40" transform="matrix(25.84303,0,0,-25.84303,224.82102,18.791678)"/>
<use xlink:href="#font_2_55" transform="matrix(11.95517,0,0,-11.95517,234.43688,45.7592)"/>
<use xlink:href="#font_2_56" transform="matrix(11.95517,0,0,-11.95517,238.15494,45.795068)"/>
<use xlink:href="#font_2_53" transform="matrix(11.95517,0,0,-11.95517,244.50315,45.66356)"/>
<symbol id="font_1_1b3">
<path d="M 0 .020999998 L 0 .48000003 C 0 .512 .028000003 .528 .08400001 .528 C .11200001 .528 .13266666 .524 .14600002 .51600006 C .15933335 .508 .16600001 .49600003 .16600001 .48000003 L .16600001 .326 C .17 .3526667 .19733334 .36600004 .24800001 .36600004 C .30400003 .36600004 .33200003 .35033337 .33200003 .319 L .33200003 .16200002 C .314 .18 .28633336 .18900001 .24900002 .18900001 C .21166666 .18900001 .18400002 .18 .16600001 .16200002 L .16600001 .323 C .14866667 .34033335 .121 .349 .083000008 .349 C .056333335 .349 .03466667 .3416667 .018000002 .32700003 L .018000002 .04699999 C .018000002 .035000009 .017666668 .026000014 .017 .02000001 C .017 .014000009 .016666668 .009666671 .016 .0069999995 C .016 .0036666692 .015666668 .001666675 .015000001 .0010000169 C .014333334 .00033333899 .013 0 .011000001 0 C .008333334 .00066667798 .0060000007 .002000014 .004 .004000008 C .0026666669 .005333344 .0016666668 .0076666774 .001 .011000007 C .00033333337 .013666679 0 .01700001 0 .020999998 Z "/>
</symbol>
<use xlink:href="#font_1_1b3" transform="matrix(25.84303,0,0,-25.84303,236.79999,31.105917)"/>
<use xlink:href="#font_2_4f" transform="matrix(11.95517,0,0,-11.95517,254.22812,45.66356)"/>
<use xlink:href="#font_2_50" transform="matrix(11.95517,0,0,-11.95517,260.9589,45.7592)"/>
<symbol id="font_1_104">
<path d="M .13100001 0 C .12566668 0 .11766667 .0003333334 .10700001 .0010000002 C .09633335 .0010000002 .08666667 .0010000002 .078 .0010000002 C .07 .0010000002 .06033333 .0010000002 .049000004 .0010000002 C .038333335 .0003333334 .03133333 0 .028 0 C .016 0 .008333334 .0006666668 .0050000005 .0020000004 C .0016666668 .002666667 0 .0050000005 0 .009 L 0 .143 C 0 .149 .002 .152 .006 .152 L .010000001 .152 C .014666668 .15133333 .036333335 .15100001 .075 .15100001 L .109000008 .15100001 C .12033334 .15100001 .128 .15100001 .132 .15100001 C .13666667 .15166666 .14033334 .153 .143 .155 C .14633334 .15766667 .148 .162 .148 .168 C .148 .198 .12833333 .213 .089 .213 C .057 .213 .031000002 .20600002 .011000001 .192 L .011000001 .321 C .011000001 .35433338 .037 .37100003 .089 .37100003 C .10966667 .37100003 .12766667 .367 .143 .35900004 C .15833335 .3516667 .16600001 .33900003 .16600001 .321 L .16600001 .01 C .16600001 .007999999 .16533335 .0063333327 .164 .004999999 C .16333334 .0036666666 .16133334 .002666667 .158 .0020000004 C .15466668 .0013333336 .15066667 .0010000002 .14600002 .0010000002 C .142 .0003333334 .13700001 0 .13100001 0 Z "/>
</symbol>
<use xlink:href="#font_1_104" transform="matrix(25.84303,0,0,-25.84303,261.337,26.699715)"/>
<symbol id="font_2_4e">
<path d="M .15 .36 C .14900002 .39000003 .14700002 .42600004 .142 .43600003 C .14000002 .441 .13800001 .44400005 .13000001 .44400005 C .102000009 .43300004 .076 .42400003 .0069999995 .41500003 C .004999999 .409 .0069999995 .39300005 .009 .38700003 C .063 .38200004 .074 .37700004 .074 .319 L .074 .124000009 C .074 .042000005 .060999998 .037 .005999999 .033 C 0 .027 0 .006 .005999999 0 C .036 .001 .074 .002 .114 .002 C .15400002 .002 .18500002 .001 .21500002 0 C .22100002 .006 .22100002 .027 .21500002 .033 C .16400002 .038000004 .15300001 .042000005 .15300001 .124000009 L .15300001 .28800003 C .15300001 .30900003 .16200002 .321 .17000002 .33 C .21000001 .36900003 .24700003 .38900004 .278 .38900004 C .316 .38900004 .344 .365 .344 .298 L .344 .124000009 C .344 .042000005 .336 .037 .282 .033 C .277 .027 .277 .006 .282 0 C .307 .001 .344 .002 .384 .002 C .42400003 .002 .45700003 .001 .48200003 0 C .48700003 .006 .48700003 .027 .48200003 .033 C .432 .037 .423 .042000005 .423 .124000009 L .423 .28300003 C .423 .29700003 .423 .31100003 .42200003 .323 C .47 .37600003 .51500007 .38900004 .554 .38900004 C .59200009 .38900004 .614 .367 .614 .3 L .614 .124000009 C .614 .042000005 .60400006 .037 .55200007 .033 C .54700008 .027 .54700008 .006 .55200007 0 C .577 .001 .614 .002 .65400007 .002 C .69400009 .002 .72900006 .001 .757 0 C .7620001 .006 .7620001 .027 .757 .033 C .7020001 .037 .6930001 .042000005 .6930001 .124000009 L .6930001 .282 C .6930001 .37100003 .67800006 .441 .59000006 .441 C .53900006 .441 .477 .42200003 .425 .367 C .42200003 .36400003 .416 .35900004 .414 .36800004 C .405 .409 .366 .441 .314 .441 C .256 .441 .20400001 .40700004 .16200002 .36 C .157 .35500003 .15100001 .34800003 .15 .36 Z "/>
</symbol>
<use xlink:href="#font_2_4e" transform="matrix(11.95517,0,0,-11.95517,266.7331,45.66356)"/>
<use xlink:href="#font_2_46" transform="matrix(11.95517,0,0,-11.95517,276.38093,45.7592)"/>
<use xlink:href="#font_2_4f" transform="matrix(11.95517,0,0,-11.95517,281.52165,45.66356)"/>
<use xlink:href="#font_1_40" transform="matrix(25.84303,0,0,-25.84303,276.466,18.791678)"/>
<use xlink:href="#font_2_55" transform="matrix(11.95517,0,0,-11.95517,293.3389,45.7592)"/>
<use xlink:href="#font_2_56" transform="matrix(11.95517,0,0,-11.95517,297.05696,45.795068)"/>
<use xlink:href="#font_2_e" transform="matrix(11.95517,0,0,-11.95517,303.64427,42.973646)"/>
<symbol id="font_1_14">
<path d="M 0 .049000004 L 0 .22800002 C .0060000007 .22266667 .011333334 .21833332 .016 .215 C .021333335 .21233332 .027 .21033335 .033 .20900002 C .039666669 .20833333 .04766667 .208 .057000005 .208 L .057000005 .535 C .057 .5543334 .059666676 .56400009 .065000008 .56400009 L .066 .56400009 C .072000008 .56400009 .075 .5586667 .075 .54800006 C .075 .54333338 .07433334 .5373333 .07300001 .53000006 L .07300001 0 C .024333336 .007333333 0 .023666667 0 .049000004 Z "/>
</symbol>
<use xlink:href="#font_1_104" transform="matrix(25.84303,0,0,-25.84303,297.847,22.629403)"/>
<use xlink:href="#font_1_14" transform="matrix(25.84303,0,0,-25.84303,308.64939,23.197949)"/>
<path transform="matrix(1,0,0,-1,1,58.635744)" stroke-width=".388" stroke-linecap="butt" stroke-miterlimit="10" stroke-linejoin="miter" fill="none" stroke="#000000" d="M 0 0 L 309.543 0 "/>
<path transform="matrix(1,0,0,-1,1,66.77637)" stroke-width=".388" stroke-linecap="butt" stroke-miterlimit="10" stroke-linejoin="miter" fill="none" stroke="#000000" d="M 0 0 L 309.543 0 "/>
<path transform="matrix(1,0,0,-1,1,74.91699)" stroke-width=".388" stroke-linecap="butt" stroke-miterlimit="10" stroke-linejoin="miter" fill="none" stroke="#000000" d="M 0 0 L 309.543 0 "/>
<path transform="matrix(1,0,0,-1,1,83.05762)" stroke-width=".388" stroke-linecap="butt" stroke-miterlimit="10" stroke-linejoin="miter" fill="none" stroke="#000000" d="M 0 0 L 309.543 0 "/>
<use xlink:href="#font_1_d" transform="matrix(25.84303,0,0,-25.84303,1,73.68997)"/>
<symbol id="font_2_1c">
<path d="M .061 .22800002 C .030000005 .22800002 .007999998 .207 .007999998 .179 C .007999998 .148 .033999999 .138 .052000006 .135 C .070999998 .133 .088 .127 .088 .104 C .088 .083000008 .052000006 .037 0 .023999997 C 0 .013999999 .0020000004 .0069999995 .009 0 C .069000009 .0109999929 .127 .059 .127 .12900001 C .127 .18900001 .100999999 .22800002 .061 .22800002 M .007999998 .48800005 C .007999998 .459 .032 .435 .061 .435 C .09 .435 .11400001 .459 .11400001 .48800005 C .11400001 .517 .09 .541 .061 .541 C .032 .541 .007999998 .517 .007999998 .48800005 Z "/>
</symbol>
<use xlink:href="#font_2_56" transform="matrix(11.95517,0,0,-11.95517,11.019102,100.58901)"/>
<use xlink:href="#font_2_4e" transform="matrix(11.95517,0,0,-11.95517,17.3673,100.457508)"/>
<use xlink:href="#font_2_1c" transform="matrix(11.95517,0,0,-11.95517,27.314005,102.02363)"/>
<symbol id="font_1_26">
<path d="M 0 .96000006 L .019000002 .96000006 L .019000002 0 L 0 0 L 0 .96000006 Z "/>
</symbol>
<use xlink:href="#font_1_40" transform="matrix(25.84303,0,0,-25.84303,11.808998,77.65594)"/>
<use xlink:href="#font_1_b" transform="matrix(25.84303,0,0,-25.84303,17.580002,73.205829)"/>
<use xlink:href="#font_1_26" transform="matrix(25.84303,0,0,-25.84303,26.654999,83.22605)"/>
<use xlink:href="#font_2_42" transform="matrix(11.95517,0,0,-11.95517,36.06339,100.55315)"/>
<use xlink:href="#font_1_40" transform="matrix(25.84303,0,0,-25.84303,36.22,73.5866)"/>
<symbol id="font_2_45">
<path d="M .29500003 .063 C .3 .067 .30900003 .069000009 .31 .062000004 C .31300003 .038000004 .321 .0029999996 .321 .0029999996 C .32900004 0 .33400003 .0010000002 .34 .0029999996 C .36200003 .021000002 .397 .036000004 .458 .043 C .46400003 .049000004 .46400003 .064 .458 .07000001 C .39400003 .075 .38500003 .094 .38500003 .143 L .38500003 .596 C .38500003 .661 .38900004 .70100006 .38900004 .70100006 C .38900004 .70800009 .38500003 .711 .37600003 .711 C .351 .70100006 .27600003 .68700006 .236 .684 C .234 .67600008 .236 .66 .24200002 .65400007 C .245 .65400007 .248 .65400007 .25100003 .65400007 C .29500003 .651 .30600003 .651 .30600003 .572 L .30600003 .44400005 C .30600003 .43700005 .30400003 .43500004 .29700003 .43500004 C .293 .43500004 .252 .45200003 .21900001 .45200003 C .153 .45200003 .109 .43000005 .069000009 .39200003 C .026000005 .34900005 0 .29000003 0 .216 C 0 .09300001 .062000004 .0029999996 .17 .0029999996 C .209 .0029999996 .24600002 .023000002 .29500003 .063 M .30600003 .13700001 C .30600003 .118 .30400003 .11 .29000003 .098000008 C .25300003 .066 .22100002 .05 .19600001 .05 C .142 .05 .085999999 .109 .085999999 .23400001 C .085999999 .30600003 .10000001 .34600003 .11500001 .367 C .146 .41400004 .18800001 .41700004 .208 .41700004 C .24400002 .41700004 .26900003 .40400005 .289 .38100005 C .303 .36500005 .30600003 .35800005 .30600003 .32700003 L .30600003 .13700001 Z "/>
</symbol>
<symbol id="font_2_57">
<path d="M .32000003 .41000004 C .374 .40600003 .38000003 .39400003 .35900004 .34300003 L .27800004 .147 C .26200003 .108 .25700004 .108 .24100001 .15 L .16900002 .34300003 C .15100001 .391 .14700002 .40300004 .20000002 .41000004 C .20600002 .416 .20600002 .437 .20000002 .44300003 C .16700001 .442 .13200002 .441 .099 .441 C .066 .441 .036000004 .442 .0060000007 .44300003 C 0 .437 0 .416 .0060000007 .41000004 C .059000005 .404 .066 .388 .086 .337 L .21400002 .021000002 C .22000002 .006 .22600001 0 .23900002 0 C .24900002 0 .256 .006 .263 .023000002 L .39600004 .336 C .41500003 .38000003 .42600004 .405 .48200003 .41000004 C .48800005 .416 .48800005 .437 .48200003 .44300003 C .462 .442 .43800003 .441 .41200004 .441 C .379 .441 .34500004 .442 .32000003 .44300003 C .314 .437 .314 .416 .32000003 .41000004 Z "/>
</symbol>
<use xlink:href="#font_2_45" transform="matrix(11.95517,0,0,-11.95517,41.56325,100.58901)"/>
<use xlink:href="#font_2_57" transform="matrix(11.95517,0,0,-11.95517,47.206094,100.57706)"/>
<use xlink:href="#font_2_a9" transform="matrix(11.95517,0,0,-11.95517,53.530378,100.55315)"/>
<use xlink:href="#font_2_e" transform="matrix(11.95517,0,0,-11.95517,58.9102,97.76759)"/>
<use xlink:href="#font_1_40" transform="matrix(25.84303,0,0,-25.84303,53.614999,69.51531)"/>
<use xlink:href="#font_2_4f" transform="matrix(11.95517,0,0,-11.95517,63.502107,100.457508)"/>
<use xlink:href="#font_2_4a" transform="matrix(11.95517,0,0,-11.95517,70.02963,100.457508)"/>
<use xlink:href="#font_2_e" transform="matrix(11.95517,0,0,-11.95517,73.46077,97.76759)"/>
<use xlink:href="#font_1_40" transform="matrix(25.84303,0,0,-25.84303,69.218,73.5866)"/>
<use xlink:href="#font_2_42" transform="matrix(11.95517,0,0,-11.95517,80.9444,100.55315)"/>
<use xlink:href="#font_2_55" transform="matrix(11.95517,0,0,-11.95517,86.276409,100.55315)"/>
<use xlink:href="#font_1_40" transform="matrix(25.84303,0,0,-25.84303,81.101,73.5866)"/>
<use xlink:href="#font_2_53" transform="matrix(11.95517,0,0,-11.95517,95.6031,100.457508)"/>
<use xlink:href="#font_2_46" transform="matrix(11.95517,0,0,-11.95517,100.15803,100.55315)"/>
<use xlink:href="#font_1_40" transform="matrix(25.84303,0,0,-25.84303,100.243,77.65594)"/>
<symbol id="font_2_48">
<path d="M .41200004 .625 C .43100003 .625 .44900004 .643 .44900004 .663 C .44900004 .684 .43 .70000007 .40300004 .70000007 C .377 .70000007 .32900004 .683 .303 .64900007 C .291 .65700009 .25800003 .67700007 .199 .67700007 C .11 .67700007 .028 .617 .028 .525 C .028 .47100003 .052000006 .44 .08 .41300003 C .052000006 .389 .036000004 .34600003 .036000004 .312 C .036000004 .27600003 .056000007 .24800001 .082 .235 C .028 .20300001 0 .157 0 .114 C 0 .026999996 .082 0 .15900001 0 C .294 0 .44000004 .065 .44000004 .17300001 C .44000004 .20500002 .425 .23 .39600004 .254 C .35700003 .286 .287 .287 .25 .287 C .232 .287 .207 .285 .183 .282 C .168 .28100003 .158 .28 .153 .28 C .124 .28 .089 .294 .089 .337 C .089 .357 .095 .37800003 .10700001 .395 C .131 .381 .15900001 .374 .198 .374 C .286 .374 .367 .42900003 .367 .527 C .367 .574 .35300002 .601 .324 .63100007 C .331 .64100006 .351 .65500006 .36400003 .65500006 C .37100003 .65500006 .37800003 .65200009 .384 .643 C .388 .635 .40100003 .625 .41200004 .625 M .099999997 .228 C .111 .22500001 .127 .223 .14 .223 C .171 .223 .199 .22600001 .213 .22600001 C .263 .22600001 .305 .22500001 .33400003 .209 C .37300004 .187 .38500003 .17300001 .38500003 .147 C .38500003 .075 .279 .037 .18900001 .037 C .153 .037 .069000009 .066 .069000009 .134 C .069000009 .16800002 .07100001 .193 .099999997 .228 M .287 .517 C .287 .42400003 .24000001 .40500004 .20300001 .40500004 C .119 .40500004 .11 .476 .11 .54 C .11 .61 .135 .646 .19000001 .646 C .25300003 .646 .287 .6 .287 .517 Z "/>
</symbol>
<use xlink:href="#font_2_48" transform="matrix(11.95517,0,0,-11.95517,105.442569,103.27892)"/>
<use xlink:href="#font_2_4f" transform="matrix(11.95517,0,0,-11.95517,111.27669,100.457508)"/>
<use xlink:href="#font_2_56" transform="matrix(11.95517,0,0,-11.95517,117.75639,100.58901)"/>
<use xlink:href="#font_2_4e" transform="matrix(11.95517,0,0,-11.95517,124.10458,100.457508)"/>
<use xlink:href="#font_1_40" transform="matrix(25.84303,0,0,-25.84303,118.546009,73.5866)"/>
<use xlink:href="#font_2_55" transform="matrix(11.95517,0,0,-11.95517,139.21788,100.55315)"/>
<use xlink:href="#font_2_56" transform="matrix(11.95517,0,0,-11.95517,142.93595,100.58901)"/>
<use xlink:href="#font_2_e" transform="matrix(11.95517,0,0,-11.95517,149.52324,97.76759)"/>
<use xlink:href="#font_1_40" transform="matrix(25.84303,0,0,-25.84303,143.726,77.65594)"/>
<use xlink:href="#font_2_56" transform="matrix(11.95517,0,0,-11.95517,154.8191,100.58901)"/>
<use xlink:href="#font_2_4e" transform="matrix(11.95517,0,0,-11.95517,161.1673,100.457508)"/>
<use xlink:href="#font_2_1c" transform="matrix(11.95517,0,0,-11.95517,171.114,102.02363)"/>
<use xlink:href="#font_1_40" transform="matrix(25.84303,0,0,-25.84303,155.609,81.72625)"/>
<use xlink:href="#font_1_b" transform="matrix(25.84303,0,0,-25.84303,161.38,80.126728)"/>
<use xlink:href="#font_1_34" transform="matrix(25.84303,0,0,-25.84303,171.626,80.305789)"/>
<use xlink:href="#font_2_939" transform="matrix(11.95517,0,0,-11.95517,179.69602,100.457508)"/>
<use xlink:href="#font_2_e" transform="matrix(11.95517,0,0,-11.95517,186.60611,97.76759)"/>
<use xlink:href="#font_1_40" transform="matrix(25.84303,0,0,-25.84303,182.363,73.5866)"/>
<use xlink:href="#font_2_42" transform="matrix(11.95517,0,0,-11.95517,194.0904,100.55315)"/>
<use xlink:href="#font_2_55" transform="matrix(11.95517,0,0,-11.95517,199.42238,100.55315)"/>
<use xlink:href="#font_1_40" transform="matrix(25.84303,0,0,-25.84303,194.24701,73.5866)"/>
<use xlink:href="#font_2_57" transform="matrix(11.95517,0,0,-11.95517,208.56978,100.57706)"/>
<use xlink:href="#font_2_50" transform="matrix(11.95517,0,0,-11.95517,214.84624,100.55315)"/>
<use xlink:href="#font_2_e" transform="matrix(11.95517,0,0,-11.95517,220.85968,97.76759)"/>
<use xlink:href="#font_1_40" transform="matrix(25.84303,0,0,-25.84303,215.224,77.65594)"/>
<symbol id="font_2_ba">
<path d="M .19700001 .0029999996 C .23600002 .0029999996 .283 .023000002 .33200003 .063 C .337 .067 .34600003 .069000009 .347 .062000004 C .35 .037 .358 .0029999996 .358 .0029999996 C .366 0 .37100003 .0010000002 .377 .0029999996 C .39900003 .021000002 .43400003 .036000004 .49500004 .043 C .50100007 .049000004 .50100007 .064 .49500004 .07000001 C .43100003 .075 .42200003 .094 .42200003 .143 L .42200003 .33500005 C .42200003 .36500005 .426 .43800003 .426 .43800003 C .426 .44100005 .423 .44400005 .418 .44400005 C .41300003 .44300003 .398 .44200004 .38300003 .44200004 C .351 .44200004 .315 .44300003 .28100003 .44400005 C .275 .43800003 .275 .41700004 .28100003 .41100005 C .33 .40800003 .343 .39600004 .343 .33 L .343 .13700001 C .343 .118 .34100003 .11 .327 .098000008 C .29 .066 .252 .05 .22700002 .05 C .19700001 .05 .14700002 .064 .14700002 .153 L .14700002 .33500005 C .14700002 .36500005 .15100001 .43800003 .15100001 .43800003 C .15100001 .44100005 .14800002 .44400005 .143 .44400005 C .13800001 .44300003 .123 .44200004 .108 .44200004 C .076 .44200004 .04 .44300003 .005999999 .44400005 C 0 .43800003 0 .41700004 .005999999 .41100005 C .053999999 .40700004 .068 .39600004 .068 .33100004 L .068 .139 C .068 .07000001 .098000008 .0029999996 .19700001 .0029999996 M .277 .684 L .20100002 .56500008 C .19300002 .55200007 .19000001 .54800006 .19000001 .53700008 C .19000001 .53000006 .19700001 .52400007 .20400001 .52400007 C .21100001 .52400007 .21900001 .52800008 .23400001 .54300007 L .349 .65200009 L .34600003 .66300007 C .323 .68500009 .297 .68600007 .291 .68600007 C .286 .68600007 .28 .68500009 .277 .684 Z "/>
</symbol>
<use xlink:href="#font_2_4d" transform="matrix(11.95517,0,0,-11.95517,225.41625,100.457508)"/>
<use xlink:href="#font_2_ba" transform="matrix(11.95517,0,0,-11.95517,228.60828,100.58901)"/>
<use xlink:href="#font_1_40" transform="matrix(25.84303,0,0,-25.84303,229.39801,73.5866)"/>
<use xlink:href="#font_2_4f" transform="matrix(11.95517,0,0,-11.95517,234.95612,100.457508)"/>
<use xlink:href="#font_2_55" transform="matrix(11.95517,0,0,-11.95517,241.49559,100.55315)"/>
<use xlink:href="#font_2_42" transform="matrix(11.95517,0,0,-11.95517,245.40494,100.55315)"/>
<use xlink:href="#font_2_54" transform="matrix(11.95517,0,0,-11.95517,251.0119,100.55315)"/>
<use xlink:href="#font_1_40" transform="matrix(25.84303,0,0,-25.84303,245.561,77.65594)"/>
<use xlink:href="#font_2_55" transform="matrix(11.95517,0,0,-11.95517,261.0079,100.55315)"/>
<use xlink:href="#font_2_56" transform="matrix(11.95517,0,0,-11.95517,264.72596,100.58901)"/>
<use xlink:href="#font_2_e" transform="matrix(11.95517,0,0,-11.95517,271.31327,97.76759)"/>
<use xlink:href="#font_1_40" transform="matrix(25.84303,0,0,-25.84303,265.516,77.65594)"/>
<use xlink:href="#font_2_42" transform="matrix(11.95517,0,0,-11.95517,277.24339,100.55315)"/>
<use xlink:href="#font_2_d" transform="matrix(11.95517,0,0,-11.95517,282.79057,102.02363)"/>
<use xlink:href="#font_1_40" transform="matrix(25.84303,0,0,-25.84303,277.4,81.72625)"/>
<use xlink:href="#font_1_b" transform="matrix(25.84303,0,0,-25.84303,283.17,80.126728)"/>
<use xlink:href="#font_1_34" transform="matrix(25.84303,0,0,-25.84303,290.15,80.305789)"/>
<use xlink:href="#font_2_54" transform="matrix(11.95517,0,0,-11.95517,294.05686,100.55315)"/>
<use xlink:href="#font_2_4a" transform="matrix(11.95517,0,0,-11.95517,298.43244,100.457508)"/>
<use xlink:href="#font_2_44" transform="matrix(11.95517,0,0,-11.95517,301.8277,100.55315)"/>
<use xlink:href="#font_2_e" transform="matrix(11.95517,0,0,-11.95517,306.98039,97.76759)"/>
<symbol id="font_1_16">
<path d="M 0 .049000004 L 0 .22800002 C .009333334 .22000003 .017666668 .21466668 .025 .21200001 C .032333334 .20933335 .043 .208 .057000005 .208 L .057000005 .42900003 C .057 .4416667 .059333337 .44800005 .064 .448 L .065000008 .448 C .07033334 .44733335 .07300001 .4366667 .07300001 .416 L .07300001 0 C .024333336 .007333333 0 .023666667 0 .049000004 Z "/>
</symbol>
<use xlink:href="#font_1_40" transform="matrix(25.84303,0,0,-25.84303,297.621,77.65594)"/>
<use xlink:href="#font_1_16" transform="matrix(25.84303,0,0,-25.84303,308.631,82.06221)"/>
<path transform="matrix(1,0,0,-1,1,113.42969)" stroke-width=".388" stroke-linecap="butt" stroke-miterlimit="10" stroke-linejoin="miter" fill="none" stroke="#000000" d="M 0 0 L 309.543 0 "/>
<path transform="matrix(1,0,0,-1,1,121.57129)" stroke-width=".388" stroke-linecap="butt" stroke-miterlimit="10" stroke-linejoin="miter" fill="none" stroke="#000000" d="M 0 0 L 309.543 0 "/>
<path transform="matrix(1,0,0,-1,1,129.71192)" stroke-width=".388" stroke-linecap="butt" stroke-miterlimit="10" stroke-linejoin="miter" fill="none" stroke="#000000" d="M 0 0 L 309.543 0 "/>
<path transform="matrix(1,0,0,-1,1,137.85157)" stroke-width=".388" stroke-linecap="butt" stroke-miterlimit="10" stroke-linejoin="miter" fill="none" stroke="#000000" d="M 0 0 L 309.543 0 "/>
<use xlink:href="#font_1_d" transform="matrix(25.84303,0,0,-25.84303,1,128.48392)"/>
<use xlink:href="#font_2_56" transform="matrix(11.95517,0,0,-11.95517,11.019102,155.38393)"/>
<use xlink:href="#font_2_55" transform="matrix(11.95517,0,0,-11.95517,17.427077,155.34807)"/>
<use xlink:href="#font_1_40" transform="matrix(25.84303,0,0,-25.84303,11.808998,136.52117)"/>
<use xlink:href="#font_2_4a" transform="matrix(11.95517,0,0,-11.95517,26.668929,155.25243)"/>
<use xlink:href="#font_2_4f" transform="matrix(11.95517,0,0,-11.95517,29.86096,155.25243)"/>
<use xlink:href="#font_1_40" transform="matrix(25.84303,0,0,-25.84303,25.857003,132.45183)"/>
<use xlink:href="#font_2_44" transform="matrix(11.95517,0,0,-11.95517,42.018339,155.34807)"/>
<use xlink:href="#font_2_a6" transform="matrix(11.95517,0,0,-11.95517,47.15906,155.34807)"/>
<use xlink:href="#font_2_e" transform="matrix(11.95517,0,0,-11.95517,55.38422,152.56252)"/>
<use xlink:href="#font_1_40" transform="matrix(25.84303,0,0,-25.84303,48.655,128.38054)"/>
<use xlink:href="#font_2_4d" transform="matrix(11.95517,0,0,-11.95517,59.807245,155.25243)"/>
<use xlink:href="#font_2_50" transform="matrix(11.95517,0,0,-11.95517,63.250326,155.34807)"/>
<use xlink:href="#font_2_d" transform="matrix(11.95517,0,0,-11.95517,69.29964,156.81856)"/>
<use xlink:href="#font_1_1b3" transform="matrix(25.84303,0,0,-25.84303,61.483,140.69576)"/>
<use xlink:href="#font_1_2a" transform="matrix(25.84303,0,0,-25.84303,75.776,118.043338)"/>
<use xlink:href="#font_2_46" transform="matrix(11.95517,0,0,-11.95517,81.89634,155.34807)"/>
<use xlink:href="#font_2_55" transform="matrix(11.95517,0,0,-11.95517,87.09684,155.34807)"/>
<use xlink:href="#font_1_104" transform="matrix(25.84303,0,0,-25.84303,81.981,136.28859)"/>
<use xlink:href="#font_2_4a" transform="matrix(11.95517,0,0,-11.95517,96.33792,155.25243)"/>
<use xlink:href="#font_2_4f" transform="matrix(11.95517,0,0,-11.95517,99.52995,155.25243)"/>
<use xlink:href="#font_1_40" transform="matrix(25.84303,0,0,-25.84303,95.526,128.38054)"/>
<use xlink:href="#font_2_55" transform="matrix(11.95517,0,0,-11.95517,111.54488,155.34807)"/>
<use xlink:href="#font_2_46" transform="matrix(11.95517,0,0,-11.95517,115.46618,155.34807)"/>
<use xlink:href="#font_1_104" transform="matrix(25.84303,0,0,-25.84303,115.550998,132.21926)"/>
<symbol id="font_2_f">
<path d="M 0 .053000004 C 0 .024 .023999997 0 .053000004 0 C .08200001 0 .106 .024 .106 .053000004 C .106 .082 .08200001 .106 .053000004 .106 C .023999997 .106 0 .082 0 .053000004 Z "/>
</symbol>
<use xlink:href="#font_2_53" transform="matrix(11.95517,0,0,-11.95517,120.6071,155.25243)"/>
<use xlink:href="#font_2_53" transform="matrix(11.95517,0,0,-11.95517,125.05443,155.25243)"/>
<use xlink:href="#font_2_42" transform="matrix(11.95517,0,0,-11.95517,129.69304,155.34807)"/>
<use xlink:href="#font_2_f" transform="matrix(11.95517,0,0,-11.95517,135.40761,155.34807)"/>
<use xlink:href="#font_1_40" transform="matrix(25.84303,0,0,-25.84303,129.849,132.45183)"/>
<use xlink:href="#font_1_b" transform="matrix(25.84303,0,0,-25.84303,135.609,127.99977)"/>
<use xlink:href="#font_1_26" transform="matrix(25.84303,0,0,-25.84303,142.812,138.01999)"/>
<use xlink:href="#font_2_31" transform="matrix(11.95517,0,0,-11.95517,143.5825,155.25243)"/>
<use xlink:href="#font_2_42" transform="matrix(11.95517,0,0,-11.95517,150.34914,155.34807)"/>
<use xlink:href="#font_1_40" transform="matrix(25.84303,0,0,-25.84303,150.505,136.52117)"/>
<use xlink:href="#font_2_4f" transform="matrix(11.95517,0,0,-11.95517,155.62111,155.25243)"/>
<use xlink:href="#font_2_46" transform="matrix(11.95517,0,0,-11.95517,162.30405,155.34807)"/>
<use xlink:href="#font_2_4e" transform="matrix(11.95517,0,0,-11.95517,167.44478,155.25243)"/>
<use xlink:href="#font_1_40" transform="matrix(25.84303,0,0,-25.84303,162.389,132.45183)"/>
<use xlink:href="#font_2_4f" transform="matrix(11.95517,0,0,-11.95517,182.3641,155.25243)"/>
<use xlink:href="#font_2_50" transform="matrix(11.95517,0,0,-11.95517,189.09487,155.34807)"/>
<use xlink:href="#font_1_40" transform="matrix(25.84303,0,0,-25.84303,189.47299,128.38054)"/>
<use xlink:href="#font_2_54" transform="matrix(11.95517,0,0,-11.95517,195.20487,155.34807)"/>
<use xlink:href="#font_2_55" transform="matrix(11.95517,0,0,-11.95517,199.59239,155.34807)"/>
<use xlink:href="#font_2_53" transform="matrix(11.95517,0,0,-11.95517,203.31046,155.25243)"/>
<use xlink:href="#font_2_56" transform="matrix(11.95517,0,0,-11.95517,207.75778,155.38393)"/>
<use xlink:href="#font_2_4e" transform="matrix(11.95517,0,0,-11.95517,214.10599,155.25243)"/>
<use xlink:href="#font_1_40" transform="matrix(25.84303,0,0,-25.84303,208.547,128.38054)"/>
<use xlink:href="#font_2_44" transform="matrix(11.95517,0,0,-11.95517,229.22835,155.34807)"/>
<use xlink:href="#font_2_50" transform="matrix(11.95517,0,0,-11.95517,234.39299,155.34807)"/>
<use xlink:href="#font_2_e" transform="matrix(11.95517,0,0,-11.95517,240.40644,152.56252)"/>
<use xlink:href="#font_1_40" transform="matrix(25.84303,0,0,-25.84303,234.771,128.38054)"/>
<use xlink:href="#font_2_55" transform="matrix(11.95517,0,0,-11.95517,244.92488,155.34807)"/>
<use xlink:href="#font_2_4a" transform="matrix(11.95517,0,0,-11.95517,248.69077,155.25243)"/>
<use xlink:href="#font_2_e" transform="matrix(11.95517,0,0,-11.95517,252.12189,152.56252)"/>
<use xlink:href="#font_1_40" transform="matrix(25.84303,0,0,-25.84303,247.87799,132.45183)"/>
<use xlink:href="#font_2_45" transform="matrix(11.95517,0,0,-11.95517,256.80726,155.38393)"/>
<use xlink:href="#font_2_4a" transform="matrix(11.95517,0,0,-11.95517,262.67726,155.25243)"/>
<use xlink:href="#font_2_e" transform="matrix(11.95517,0,0,-11.95517,266.10838,152.56252)"/>
<use xlink:href="#font_1_40" transform="matrix(25.84303,0,0,-25.84303,261.865,128.38054)"/>
<symbol id="font_2_a1">
<path d="M .257 .058000003 C .263 .027000003 .274 0 .324 0 C .36200003 0 .398 .017 .419 .037 C .417 .049000004 .41300003 .058000003 .402 .064 C .395 .058000003 .37800003 .048000006 .365 .048000006 C .336 .048000006 .335 .087000008 .335 .133 L .335 .28 C .335 .42200003 .257 .449 .18400002 .449 C .10200001 .449 .019000002 .395 .019000002 .338 C .019000002 .314 .031 .30200003 .054 .30200003 C .083000008 .30200003 .10100001 .323 .10100001 .336 C .10100001 .343 .10000001 .35 .098000008 .354 C .097 .357 .096 .363 .096 .374 C .096 .405 .13800001 .416 .17600002 .416 C .21000001 .416 .257 .39900003 .257 .286 C .257 .279 .254 .275 .251 .274 L .165 .25300003 C .069000009 .22900002 0 .17600002 0 .108 C 0 .026 .056000007 0 .126 0 C .16100002 0 .19100002 .008 .23500003 .042000005 L .255 .058000003 L .257 .058000003 M .257 .24300002 L .257 .111 C .257 .098000008 .251 .091 .24300002 .085 C .21700002 .064 .18300002 .041 .15500002 .041 C .105000007 .041 .083000008 .081 .083000008 .112 C .083000008 .157 .104 .20300001 .17800002 .22200002 L .257 .24300002 M .20800002 .681 L .13200002 .56200006 C .12400001 .549 .12100001 .545 .12100001 .53400006 C .12100001 .527 .128 .521 .135 .521 C .142 .521 .15 .52500006 .165 .54 L .28 .64900007 L .277 .66 C .254 .68200007 .228 .683 .22200002 .683 C .21700002 .683 .21100001 .68200007 .20800002 .681 Z "/>
</symbol>
<use xlink:href="#font_2_a1" transform="matrix(11.95517,0,0,-11.95517,273.4584,155.34807)"/>
<use xlink:href="#font_1_40" transform="matrix(25.84303,0,0,-25.84303,273.614,124.310237)"/>
<use xlink:href="#font_2_4f" transform="matrix(11.95517,0,0,-11.95517,278.7301,155.25243)"/>
<use xlink:href="#font_2_56" transform="matrix(11.95517,0,0,-11.95517,285.2098,155.38393)"/>
<use xlink:href="#font_2_4e" transform="matrix(11.95517,0,0,-11.95517,291.558,155.25243)"/>
<use xlink:href="#font_1_40" transform="matrix(25.84303,0,0,-25.84303,286,128.38054)"/>
<use xlink:href="#font_1_7d" transform="matrix(25.84303,0,0,-25.84303,285.8191,116.869548)"/>
<use xlink:href="#font_1_59" transform="matrix(25.84303,0,0,-25.84303,287.706,134.17514)"/>
<use xlink:href="#font_1_2a" transform="matrix(25.84303,0,0,-25.84303,301.62,118.043338)"/>
<use xlink:href="#font_1_16" transform="matrix(25.84303,0,0,-25.84303,308.62348,128.7165)"/>
<path transform="matrix(1,0,0,-1,1,168.22461)" stroke-width=".388" stroke-linecap="butt" stroke-miterlimit="10" stroke-linejoin="miter" fill="none" stroke="#000000" d="M 0 0 L 309.543 0 "/>
<path transform="matrix(1,0,0,-1,1,176.36621)" stroke-width=".388" stroke-linecap="butt" stroke-miterlimit="10" stroke-linejoin="miter" fill="none" stroke="#000000" d="M 0 0 L 309.543 0 "/>
<path transform="matrix(1,0,0,-1,1,184.50586)" stroke-width=".388" stroke-linecap="butt" stroke-miterlimit="10" stroke-linejoin="miter" fill="none" stroke="#000000" d="M 0 0 L 309.543 0 "/>
<path transform="matrix(1,0,0,-1,1,192.64746)" stroke-width=".388" stroke-linecap="butt" stroke-miterlimit="10" stroke-linejoin="miter" fill="none" stroke="#000000" d="M 0 0 L 309.543 0 "/>
<use xlink:href="#font_1_d" transform="matrix(25.84303,0,0,-25.84303,1,183.27884)"/>
<use xlink:href="#font_2_45" transform="matrix(11.95517,0,0,-11.95517,5.6392486,210.17885)"/>
<use xlink:href="#font_2_42" transform="matrix(11.95517,0,0,-11.95517,11.652699,210.14299)"/>
<use xlink:href="#font_1_40" transform="matrix(25.84303,0,0,-25.84303,11.808998,183.17546)"/>
<use xlink:href="#font_2_4f" transform="matrix(11.95517,0,0,-11.95517,21.556105,210.04735)"/>
<use xlink:href="#font_2_50" transform="matrix(11.95517,0,0,-11.95517,28.28687,210.14299)"/>
<use xlink:href="#font_2_e" transform="matrix(11.95517,0,0,-11.95517,34.30032,207.35744)"/>
<use xlink:href="#font_1_40" transform="matrix(25.84303,0,0,-25.84303,28.664002,187.24578)"/>
<symbol id="font_2_43">
<path d="M .16100002 .40600003 C .15500002 .4 .15100001 .402 .15100001 .411 L .15100001 .595 C .15100001 .66 .15500002 .70000007 .15500002 .70000007 C .15500002 .7070001 .15100001 .71000006 .142 .71000006 C .117000009 .70000007 .042 .68600007 .0020000004 .683 C 0 .6750001 .0020000004 .65900006 .008 .65300008 C .011000001 .65300008 .014000001 .65300008 .017 .65300008 C .061 .65000006 .072000008 .65000006 .072000008 .57100006 L .072000008 .083000008 C .072000008 .044 .07100001 .026 .068 .012 C .07300001 .0039999999 .07800001 0 .09 0 C .09600001 .006 .106000009 .015000001 .11400001 .024 C .12400001 .036 .13000001 .036 .141 .027 C .164 .007999999 .194 .0019999995 .22900002 .0019999995 C .331 .0019999995 .45000003 .095000009 .45000003 .254 C .45000003 .37600003 .36 .451 .273 .451 C .23000002 .451 .19200002 .43400003 .16100002 .40600003 M .16800002 .375 C .194 .398 .224 .407 .253 .407 C .314 .407 .364 .333 .364 .236 C .364 .12200001 .318 .036 .22300002 .036 C .19200002 .036 .171 .058000007 .15100001 .083000008 L .15100001 .333 C .15100001 .354 .15500002 .36400003 .16800002 .375 Z "/>
</symbol>
<use xlink:href="#font_2_43" transform="matrix(11.95517,0,0,-11.95517,37.93473,210.1669)"/>
<use xlink:href="#font_2_4a" transform="matrix(11.95517,0,0,-11.95517,44.04382,210.04735)"/>
<use xlink:href="#font_2_54" transform="matrix(11.95517,0,0,-11.95517,47.5706,210.14299)"/>
<use xlink:href="#font_1_40" transform="matrix(25.84303,0,0,-25.84303,43.231004,183.17546)"/>
<symbol id="font_2_49">
<path d="M .15500002 .28800003 C .15500002 .30900003 .16400002 .321 .17200002 .33 C .21000003 .367 .261 .38900004 .3 .38900004 C .32000003 .38900004 .34100003 .37600003 .35300002 .35300002 C .36300005 .33300004 .365 .30600003 .365 .27600003 L .365 .124000009 C .365 .042000005 .35500003 .038000004 .30300004 .033 C .298 .027 .298 .006 .30300004 0 C .33100004 .001 .365 .002 .40500004 .002 C .44500003 .002 .47800002 .001 .511 0 C .516 .006 .516 .027 .511 .033 C .455 .038000004 .44400005 .042000005 .44400005 .124000009 L .44400005 .27300004 C .44400005 .328 .44000004 .37700004 .41700004 .40700004 C .40000005 .42900003 .36900003 .441 .33400003 .441 C .28500004 .441 .22500003 .42800004 .16400002 .36 C .16400002 .35900004 .16300002 .35900004 .16200002 .358 C .15900001 .35400004 .15400002 .34800003 .15400002 .36 L .15500002 .585 C .15500002 .65 .15900001 .69 .15900001 .69 C .15900001 .697 .15500002 .7 .14600002 .7 C .121 .69 .046000005 .676 .006000001 .673 C .0040000008 .665 .006000001 .649 .012 .643 C .015000001 .643 .018000002 .643 .021 .643 C .065000008 .64 .076000008 .64 .076000008 .561 L .076000008 .124000009 C .076000008 .041 .064 .037 .006000001 .033 C 0 .027 0 .006 .006000001 0 C .039000006 .001 .076000008 .002 .116000007 .002 C .15400002 .002 .18700002 .001 .21500002 0 C .22100002 .006 .22100002 .027 .21500002 .033 C .16400002 .037 .15500002 .041 .15500002 .124000009 L .15500002 .28800003 Z "/>
</symbol>
<symbol id="font_2_b3">
<path d="M 0 .21500002 C 0 .113000009 .068 0 .21000001 0 C .27400003 0 .323 .023000002 .35700003 .056000007 C .402 .1 .42200003 .16300002 .42200003 .22400002 C .42200003 .328 .365 .449 .21200001 .449 C .146 .449 .092 .42200003 .055 .379 C .019000002 .336 0 .278 0 .21500002 M .197 .414 C .283 .414 .336 .336 .336 .19200002 C .336 .066 .271 .035 .224 .035 C .12000001 .035 .086 .16100002 .086 .23800002 C .086 .32500003 .107 .414 .197 .414 M .229 .681 L .153 .56200006 C .14500001 .549 .14200002 .545 .14200002 .53400006 C .14200002 .527 .14900002 .521 .15600002 .521 C .16300002 .521 .171 .52500006 .18600002 .54 L .301 .64900007 L .298 .66 C .275 .68200007 .24900002 .683 .243 .683 C .238 .683 .232 .68200007 .229 .681 Z "/>
</symbol>
<use xlink:href="#font_2_49" transform="matrix(11.95517,0,0,-11.95517,56.432466,210.04735)"/>
<use xlink:href="#font_2_b3" transform="matrix(11.95517,0,0,-11.95517,63.21105,210.14299)"/>
<use xlink:href="#font_2_e" transform="matrix(11.95517,0,0,-11.95517,69.2245,207.35744)"/>
<use xlink:href="#font_1_40" transform="matrix(25.84303,0,0,-25.84303,63.589006,187.24578)"/>
<use xlink:href="#font_2_45" transform="matrix(11.95517,0,0,-11.95517,73.25326,210.17885)"/>
<use xlink:href="#font_2_4a" transform="matrix(11.95517,0,0,-11.95517,79.123249,210.04735)"/>
<use xlink:href="#font_2_e" transform="matrix(11.95517,0,0,-11.95517,82.55438,207.35744)"/>
<use xlink:href="#font_1_40" transform="matrix(25.84303,0,0,-25.84303,78.312,191.31511)"/>
<use xlink:href="#font_2_46" transform="matrix(11.95517,0,0,-11.95517,89.32035,210.14299)"/>
<use xlink:href="#font_2_1c" transform="matrix(11.95517,0,0,-11.95517,94.96319,211.61348)"/>
<use xlink:href="#font_1_40" transform="matrix(25.84303,0,0,-25.84303,89.405,191.31511)"/>
<use xlink:href="#font_1_b" transform="matrix(25.84303,0,0,-25.84303,95.097,189.71559)"/>
<use xlink:href="#font_1_26" transform="matrix(25.84303,0,0,-25.84303,101.588,192.81491)"/>
<use xlink:href="#font_2_46" transform="matrix(11.95517,0,0,-11.95517,108.48435,210.14299)"/>
<use xlink:href="#font_2_55" transform="matrix(11.95517,0,0,-11.95517,113.68485,210.14299)"/>
<use xlink:href="#font_1_40" transform="matrix(25.84303,0,0,-25.84303,108.569,187.24578)"/>
<use xlink:href="#font_2_45" transform="matrix(11.95517,0,0,-11.95517,122.26125,210.17885)"/>
<use xlink:href="#font_2_4a" transform="matrix(11.95517,0,0,-11.95517,128.13124,210.04735)"/>
<use xlink:href="#font_1_40" transform="matrix(25.84303,0,0,-25.84303,127.319,191.31511)"/>
<symbol id="font_2_ad">
<path d="M .157 .124000009 L .157 .323 C .157 .37300004 .161 .43700005 .161 .43700005 C .161 .441 .156 .44400005 .148 .44400005 C .120000008 .43300004 .08 .42400003 .011 .41500003 C .009 .409 .011 .39300005 .013 .38700003 C .068 .38200004 .07800001 .37600003 .07800001 .319 L .07800001 .124000009 C .07800001 .041 .067 .038000004 .006000001 .033 C 0 .027 0 .006 .006000001 0 C .039 .001 .07800001 .002 .118 .002 C .158 .002 .19600001 .001 .22900002 0 C .235 .006 .235 .027 .22900002 .033 C .168 .037 .157 .041 .157 .124000009 M .139 .673 L .06300001 .554 C .055000005 .541 .052000006 .537 .052000006 .526 C .052000006 .519 .059000005 .513 .066 .513 C .073 .513 .081 .517 .096 .532 L .21100001 .64100006 L .208 .652 C .185 .674 .15900001 .675 .153 .675 C .148 .675 .142 .674 .139 .673 Z "/>
</symbol>
<use xlink:href="#font_2_4e" transform="matrix(11.95517,0,0,-11.95517,131.3231,210.04735)"/>
<use xlink:href="#font_2_ad" transform="matrix(11.95517,0,0,-11.95517,140.8155,210.04735)"/>
<use xlink:href="#font_1_40" transform="matrix(25.84303,0,0,-25.84303,140.003,187.24578)"/>
<use xlink:href="#font_2_55" transform="matrix(11.95517,0,0,-11.95517,144.06688,210.14299)"/>
<use xlink:href="#font_2_55" transform="matrix(11.95517,0,0,-11.95517,147.84471,210.14299)"/>
<use xlink:href="#font_2_46" transform="matrix(11.95517,0,0,-11.95517,151.766,210.14299)"/>
<use xlink:href="#font_1_40" transform="matrix(25.84303,0,0,-25.84303,151.851,183.17546)"/>
<use xlink:href="#font_2_4f" transform="matrix(11.95517,0,0,-11.95517,161.53711,210.04735)"/>
<use xlink:href="#font_2_50" transform="matrix(11.95517,0,0,-11.95517,168.26787,210.14299)"/>
<use xlink:href="#font_2_e" transform="matrix(11.95517,0,0,-11.95517,174.28133,207.35744)"/>
<use xlink:href="#font_1_40" transform="matrix(25.84303,0,0,-25.84303,168.646,179.10515)"/>
<use xlink:href="#font_2_43" transform="matrix(11.95517,0,0,-11.95517,177.91573,210.1669)"/>
<use xlink:href="#font_2_4a" transform="matrix(11.95517,0,0,-11.95517,184.02483,210.04735)"/>
<use xlink:href="#font_2_54" transform="matrix(11.95517,0,0,-11.95517,187.5516,210.14299)"/>
<use xlink:href="#font_1_40" transform="matrix(25.84303,0,0,-25.84303,183.213,183.17546)"/>
<use xlink:href="#font_1_59" transform="matrix(25.84303,0,0,-25.84303,184.919,188.97006)"/>
<use xlink:href="#font_2_45" transform="matrix(11.95517,0,0,-11.95517,196.73725,210.17885)"/>
<use xlink:href="#font_2_a9" transform="matrix(11.95517,0,0,-11.95517,202.76265,210.14299)"/>
<use xlink:href="#font_2_e" transform="matrix(11.95517,0,0,-11.95517,208.14249,207.35744)"/>
<use xlink:href="#font_1_40" transform="matrix(25.84303,0,0,-25.84303,202.84699,183.17546)"/>
<use xlink:href="#font_2_43" transform="matrix(11.95517,0,0,-11.95517,211.77672,210.1669)"/>
<use xlink:href="#font_2_4a" transform="matrix(11.95517,0,0,-11.95517,217.8858,210.04735)"/>
<use xlink:href="#font_2_e" transform="matrix(11.95517,0,0,-11.95517,221.31693,207.35744)"/>
<use xlink:href="#font_1_40" transform="matrix(25.84303,0,0,-25.84303,217.074,187.24578)"/>
<use xlink:href="#font_2_55" transform="matrix(11.95517,0,0,-11.95517,225.17888,210.14299)"/>
<use xlink:href="#font_2_42" transform="matrix(11.95517,0,0,-11.95517,229.08823,210.14299)"/>
<use xlink:href="#font_1_40" transform="matrix(25.84303,0,0,-25.84303,229.24399,183.17546)"/>
<use xlink:href="#font_2_4f" transform="matrix(11.95517,0,0,-11.95517,238.99011,210.04735)"/>
<use xlink:href="#font_2_50" transform="matrix(11.95517,0,0,-11.95517,245.72087,210.14299)"/>
<use xlink:href="#font_1_40" transform="matrix(25.84303,0,0,-25.84303,246.099,187.24578)"/>
<use xlink:href="#font_2_54" transform="matrix(11.95517,0,0,-11.95517,251.82987,210.14299)"/>
<use xlink:href="#font_2_55" transform="matrix(11.95517,0,0,-11.95517,256.2174,210.14299)"/>
<use xlink:href="#font_2_53" transform="matrix(11.95517,0,0,-11.95517,259.93547,210.04735)"/>
<use xlink:href="#font_2_42" transform="matrix(11.95517,0,0,-11.95517,264.57408,210.14299)"/>
<use xlink:href="#font_2_d" transform="matrix(11.95517,0,0,-11.95517,270.12126,211.61348)"/>
<use xlink:href="#font_1_40" transform="matrix(25.84303,0,0,-25.84303,264.731,191.31511)"/>
<use xlink:href="#font_1_b" transform="matrix(25.84303,0,0,-25.84303,270.423,189.71559)"/>
<use xlink:href="#font_1_34" transform="matrix(25.84303,0,0,-25.84303,276.914,189.89466)"/>
<use xlink:href="#font_2_54" transform="matrix(11.95517,0,0,-11.95517,280.33186,210.14299)"/>
<use xlink:href="#font_2_4a" transform="matrix(11.95517,0,0,-11.95517,284.70744,210.04735)"/>
<use xlink:href="#font_2_44" transform="matrix(11.95517,0,0,-11.95517,288.1027,210.14299)"/>
<use xlink:href="#font_2_e" transform="matrix(11.95517,0,0,-11.95517,293.25538,207.35744)"/>
<use xlink:href="#font_1_40" transform="matrix(25.84303,0,0,-25.84303,283.896,187.24578)"/>
<use xlink:href="#font_2_56" transform="matrix(11.95517,0,0,-11.95517,297.0571,210.17885)"/>
<use xlink:href="#font_2_55" transform="matrix(11.95517,0,0,-11.95517,303.4651,210.14299)"/>
<use xlink:href="#font_1_40" transform="matrix(25.84303,0,0,-25.84303,297.847,191.31511)"/>
<use xlink:href="#font_1_14" transform="matrix(25.84303,0,0,-25.84303,308.657,187.58174)"/>
<path transform="matrix(1,0,0,-1,1,223.01856)" stroke-width=".388" stroke-linecap="butt" stroke-miterlimit="10" stroke-linejoin="miter" fill="none" stroke="#000000" d="M 0 0 L 309.543 0 "/>
<path transform="matrix(1,0,0,-1,1,231.16016)" stroke-width=".388" stroke-linecap="butt" stroke-miterlimit="10" stroke-linejoin="miter" fill="none" stroke="#000000" d="M 0 0 L 309.543 0 "/>
<path transform="matrix(1,0,0,-1,1,239.30078)" stroke-width=".388" stroke-linecap="butt" stroke-miterlimit="10" stroke-linejoin="miter" fill="none" stroke="#000000" d="M 0 0 L 309.543 0 "/>
<path transform="matrix(1,0,0,-1,1,247.4414)" stroke-width=".388" stroke-linecap="butt" stroke-miterlimit="10" stroke-linejoin="miter" fill="none" stroke="#000000" d="M 0 0 L 309.543 0 "/>
<use xlink:href="#font_1_d" transform="matrix(25.84303,0,0,-25.84303,1,238.07279)"/>
<use xlink:href="#font_2_46" transform="matrix(11.95517,0,0,-11.95517,11.724339,264.9379)"/>
<use xlink:href="#font_2_55" transform="matrix(11.95517,0,0,-11.95517,16.92484,264.9379)"/>
<use xlink:href="#font_1_40" transform="matrix(25.84303,0,0,-25.84303,11.808998,242.0407)"/>
<use xlink:href="#font_2_4f" transform="matrix(11.95517,0,0,-11.95517,25.409102,264.84226)"/>
<use xlink:href="#font_2_50" transform="matrix(11.95517,0,0,-11.95517,32.139867,264.9379)"/>
<use xlink:href="#font_2_54" transform="matrix(11.95517,0,0,-11.95517,38.24896,264.9379)"/>
<use xlink:href="#font_1_40" transform="matrix(25.84303,0,0,-25.84303,32.517999,237.9694)"/>
<use xlink:href="#font_2_45" transform="matrix(11.95517,0,0,-11.95517,47.570249,264.9738)"/>
<use xlink:href="#font_2_4a" transform="matrix(11.95517,0,0,-11.95517,53.440237,264.84226)"/>
<use xlink:href="#font_1_40" transform="matrix(25.84303,0,0,-25.84303,52.628,242.0407)"/>
<use xlink:href="#font_2_4e" transform="matrix(11.95517,0,0,-11.95517,56.632104,264.84226)"/>
<use xlink:href="#font_2_ad" transform="matrix(11.95517,0,0,-11.95517,66.12451,264.84226)"/>
<use xlink:href="#font_2_55" transform="matrix(11.95517,0,0,-11.95517,69.37632,264.9379)"/>
<use xlink:href="#font_2_e" transform="matrix(11.95517,0,0,-11.95517,73.33348,262.15235)"/>
<use xlink:href="#font_1_40" transform="matrix(25.84303,0,0,-25.84303,65.313,237.9694)"/>
<use xlink:href="#font_2_55" transform="matrix(11.95517,0,0,-11.95517,77.19488,264.9379)"/>
<use xlink:href="#font_2_4a" transform="matrix(11.95517,0,0,-11.95517,80.960758,264.84226)"/>
<use xlink:href="#font_1_40" transform="matrix(25.84303,0,0,-25.84303,80.149,242.0407)"/>
<use xlink:href="#font_2_4e" transform="matrix(11.95517,0,0,-11.95517,84.15311,264.84226)"/>
<use xlink:href="#font_2_56" transform="matrix(11.95517,0,0,-11.95517,93.59769,264.9738)"/>
<use xlink:href="#font_2_54" transform="matrix(11.95517,0,0,-11.95517,100.28062,264.9379)"/>
<use xlink:href="#font_1_40" transform="matrix(25.84303,0,0,-25.84303,94.388,242.0407)"/>
<use xlink:href="#font_1_7d" transform="matrix(25.84303,0,0,-25.84303,94.2071,234.59903)"/>
<use xlink:href="#font_1_59" transform="matrix(25.84303,0,0,-25.84303,96.093,246.00327)"/>
<use xlink:href="#font_2_45" transform="matrix(11.95517,0,0,-11.95517,109.60125,264.9738)"/>
<use xlink:href="#font_2_46" transform="matrix(11.95517,0,0,-11.95517,115.626659,264.9379)"/>
<use xlink:href="#font_2_e" transform="matrix(11.95517,0,0,-11.95517,121.006488,262.15235)"/>
<use xlink:href="#font_1_40" transform="matrix(25.84303,0,0,-25.84303,115.711,246.11003)"/>
<use xlink:href="#font_2_43" transform="matrix(11.95517,0,0,-11.95517,124.64073,264.96183)"/>
<use xlink:href="#font_2_4a" transform="matrix(11.95517,0,0,-11.95517,130.74983,264.84226)"/>
<use xlink:href="#font_2_e" transform="matrix(11.95517,0,0,-11.95517,134.18097,262.15235)"/>
<use xlink:href="#font_1_40" transform="matrix(25.84303,0,0,-25.84303,129.938,242.0407)"/>
<use xlink:href="#font_2_55" transform="matrix(11.95517,0,0,-11.95517,138.04288,264.9379)"/>
<use xlink:href="#font_2_b3" transform="matrix(11.95517,0,0,-11.95517,142.012,264.9379)"/>
<use xlink:href="#font_2_e" transform="matrix(11.95517,0,0,-11.95517,148.02545,262.15235)"/>
<use xlink:href="#font_1_40" transform="matrix(25.84303,0,0,-25.84303,142.389,237.9694)"/>
<use xlink:href="#font_2_53" transform="matrix(11.95517,0,0,-11.95517,151.8271,264.84226)"/>
<use xlink:href="#font_2_4a" transform="matrix(11.95517,0,0,-11.95517,156.32225,264.84226)"/>
<use xlink:href="#font_2_e" transform="matrix(11.95517,0,0,-11.95517,159.75339,262.15235)"/>
<use xlink:href="#font_1_40" transform="matrix(25.84303,0,0,-25.84303,155.51,242.0407)"/>
<use xlink:href="#font_2_43" transform="matrix(11.95517,0,0,-11.95517,163.38773,264.96183)"/>
<use xlink:href="#font_2_56" transform="matrix(11.95517,0,0,-11.95517,169.449,264.9738)"/>
<use xlink:href="#font_2_54" transform="matrix(11.95517,0,0,-11.95517,176.13195,264.9379)"/>
<use xlink:href="#font_1_40" transform="matrix(25.84303,0,0,-25.84303,170.239,246.11003)"/>
<use xlink:href="#font_2_4f" transform="matrix(11.95517,0,0,-11.95517,185.2251,264.84226)"/>
<use xlink:href="#font_2_50" transform="matrix(11.95517,0,0,-11.95517,191.95586,264.9379)"/>
<use xlink:href="#font_1_40" transform="matrix(25.84303,0,0,-25.84303,192.33402,242.0407)"/>
<use xlink:href="#font_2_54" transform="matrix(11.95517,0,0,-11.95517,198.06586,264.9379)"/>
<use xlink:href="#font_2_55" transform="matrix(11.95517,0,0,-11.95517,202.45339,264.9379)"/>
<use xlink:href="#font_2_53" transform="matrix(11.95517,0,0,-11.95517,206.17145,264.84226)"/>
<use xlink:href="#font_2_4a" transform="matrix(11.95517,0,0,-11.95517,210.6666,264.84226)"/>
<use xlink:href="#font_2_54" transform="matrix(11.95517,0,0,-11.95517,214.19336,264.9379)"/>
<use xlink:href="#font_2_1c" transform="matrix(11.95517,0,0,-11.95517,219.02324,266.4084)"/>
<use xlink:href="#font_1_40" transform="matrix(25.84303,0,0,-25.84303,209.854,242.0407)"/>
<use xlink:href="#font_1_b" transform="matrix(25.84303,0,0,-25.84303,215.557,237.58864)"/>
<use xlink:href="#font_1_26" transform="matrix(25.84303,0,0,-25.84303,222.116,247.60886)"/>
<use xlink:href="#font_2_46" transform="matrix(11.95517,0,0,-11.95517,229.08034,264.9379)"/>
<use xlink:href="#font_2_55" transform="matrix(11.95517,0,0,-11.95517,234.28084,264.9379)"/>
<use xlink:href="#font_1_40" transform="matrix(25.84303,0,0,-25.84303,229.16501,254.25066)"/>
<use xlink:href="#font_2_4f" transform="matrix(11.95517,0,0,-11.95517,242.7651,264.84226)"/>
<use xlink:href="#font_2_46" transform="matrix(11.95517,0,0,-11.95517,249.44805,264.9379)"/>
<use xlink:href="#font_1_40" transform="matrix(25.84303,0,0,-25.84303,249.53299,246.11003)"/>
<use xlink:href="#font_2_4f" transform="matrix(11.95517,0,0,-11.95517,259.3551,264.84226)"/>
<use xlink:href="#font_2_50" transform="matrix(11.95517,0,0,-11.95517,266.08589,264.9379)"/>
<use xlink:href="#font_2_54" transform="matrix(11.95517,0,0,-11.95517,272.19496,264.9379)"/>
<use xlink:href="#font_1_40" transform="matrix(25.84303,0,0,-25.84303,266.463,242.0407)"/>
<use xlink:href="#font_2_4a" transform="matrix(11.95517,0,0,-11.95517,281.33595,264.84226)"/>
<use xlink:href="#font_1_40" transform="matrix(25.84303,0,0,-25.84303,280.524,242.0407)"/>
<use xlink:href="#font_2_4f" transform="matrix(11.95517,0,0,-11.95517,284.5281,264.84226)"/>
<use xlink:href="#font_2_45" transform="matrix(11.95517,0,0,-11.95517,291.23497,264.9738)"/>
<use xlink:href="#font_2_ba" transform="matrix(11.95517,0,0,-11.95517,297.05714,264.9738)"/>
<use xlink:href="#font_2_e" transform="matrix(11.95517,0,0,-11.95517,303.64445,262.15235)"/>
<use xlink:href="#font_1_40" transform="matrix(25.84303,0,0,-25.84303,297.847,237.9694)"/>
<use xlink:href="#font_1_14" transform="matrix(25.84303,0,0,-25.84303,308.657,242.37667)"/>
<path transform="matrix(1,0,0,-1,1,277.81446)" stroke-width=".388" stroke-linecap="butt" stroke-miterlimit="10" stroke-linejoin="miter" fill="none" stroke="#000000" d="M 0 0 L 309.543 0 "/>
<path transform="matrix(1,0,0,-1,1,285.95509)" stroke-width=".388" stroke-linecap="butt" stroke-miterlimit="10" stroke-linejoin="miter" fill="none" stroke="#000000" d="M 0 0 L 309.543 0 "/>
<path transform="matrix(1,0,0,-1,1,294.09474)" stroke-width=".388" stroke-linecap="butt" stroke-miterlimit="10" stroke-linejoin="miter" fill="none" stroke="#000000" d="M 0 0 L 309.543 0 "/>
<path transform="matrix(1,0,0,-1,1,302.23634)" stroke-width=".388" stroke-linecap="butt" stroke-miterlimit="10" stroke-linejoin="miter" fill="none" stroke="#000000" d="M 0 0 L 309.543 0 "/>
<use xlink:href="#font_1_d" transform="matrix(25.84303,0,0,-25.84303,1,292.8677)"/>
<use xlink:href="#font_2_44" transform="matrix(11.95517,0,0,-11.95517,6.548344,319.73185)"/>
<use xlink:href="#font_2_42" transform="matrix(11.95517,0,0,-11.95517,11.653203,319.73185)"/>
<use xlink:href="#font_2_54" transform="matrix(11.95517,0,0,-11.95517,17.260182,319.73185)"/>
<use xlink:href="#font_1_40" transform="matrix(25.84303,0,0,-25.84303,11.808998,296.83467)"/>
<use xlink:href="#font_1_59" transform="matrix(25.84303,0,0,-25.84303,13.514999,300.7972)"/>
<use xlink:href="#font_2_4a" transform="matrix(11.95517,0,0,-11.95517,26.454924,319.6362)"/>
<use xlink:href="#font_2_4f" transform="matrix(11.95517,0,0,-11.95517,29.646956,319.6362)"/>
<use xlink:href="#font_1_40" transform="matrix(25.84303,0,0,-25.84303,25.642998,296.83467)"/>
<use xlink:href="#font_2_55" transform="matrix(11.95517,0,0,-11.95517,41.00488,319.73185)"/>
<use xlink:href="#font_2_46" transform="matrix(11.95517,0,0,-11.95517,44.926176,319.73185)"/>
<use xlink:href="#font_1_40" transform="matrix(25.84303,0,0,-25.84303,45.011,296.83467)"/>
<use xlink:href="#font_2_4f" transform="matrix(11.95517,0,0,-11.95517,50.06711,319.6362)"/>
<use xlink:href="#font_2_55" transform="matrix(11.95517,0,0,-11.95517,56.606588,319.73185)"/>
<use xlink:href="#font_2_42" transform="matrix(11.95517,0,0,-11.95517,60.515928,319.73185)"/>
<use xlink:href="#font_2_e" transform="matrix(11.95517,0,0,-11.95517,66.02727,316.9463)"/>
<use xlink:href="#font_1_40" transform="matrix(25.84303,0,0,-25.84303,60.671998,300.904)"/>
<use xlink:href="#font_2_55" transform="matrix(11.95517,0,0,-11.95517,69.88888,319.73185)"/>
<use xlink:href="#font_2_4a" transform="matrix(11.95517,0,0,-11.95517,73.654758,319.6362)"/>
<use xlink:href="#font_2_e" transform="matrix(11.95517,0,0,-11.95517,77.08589,316.9463)"/>
<use xlink:href="#font_1_40" transform="matrix(25.84303,0,0,-25.84303,72.841999,296.83467)"/>
<use xlink:href="#font_2_b3" transform="matrix(11.95517,0,0,-11.95517,83.55816,319.73185)"/>
<use xlink:href="#font_2_e" transform="matrix(11.95517,0,0,-11.95517,89.57161,316.9463)"/>
<use xlink:href="#font_1_1b3" transform="matrix(25.84303,0,0,-25.84303,83.936008,305.07859)"/>
<use xlink:href="#font_2_4f" transform="matrix(11.95517,0,0,-11.95517,93.37311,319.6362)"/>
<use xlink:href="#font_2_46" transform="matrix(11.95517,0,0,-11.95517,100.05605,319.73185)"/>
<use xlink:href="#font_2_4e" transform="matrix(11.95517,0,0,-11.95517,105.19678,319.6362)"/>
<use xlink:href="#font_2_1c" transform="matrix(11.95517,0,0,-11.95517,115.14347,321.20234)"/>
<use xlink:href="#font_1_40" transform="matrix(25.84303,0,0,-25.84303,100.14101,300.904)"/>
<use xlink:href="#font_1_b" transform="matrix(25.84303,0,0,-25.84303,105.84801,299.30445)"/>
<use xlink:href="#font_1_26" transform="matrix(25.84303,0,0,-25.84303,116.578,302.40379)"/>
<use xlink:href="#font_2_54" transform="matrix(11.95517,0,0,-11.95517,123.183849,319.73185)"/>
<use xlink:href="#font_2_46" transform="matrix(11.95517,0,0,-11.95517,127.71487,319.73185)"/>
<use xlink:href="#font_2_45" transform="matrix(11.95517,0,0,-11.95517,133.16641,319.76774)"/>
<use xlink:href="#font_1_40" transform="matrix(25.84303,0,0,-25.84303,127.798999,300.904)"/>
<use xlink:href="#font_2_4d" transform="matrix(11.95517,0,0,-11.95517,143.77123,319.6362)"/>
<use xlink:href="#font_2_ad" transform="matrix(11.95517,0,0,-11.95517,147.01108,319.6362)"/>
<use xlink:href="#font_2_e" transform="matrix(11.95517,0,0,-11.95517,150.44222,316.9463)"/>
<use xlink:href="#font_1_40" transform="matrix(25.84303,0,0,-25.84303,146.199,296.83467)"/>
<use xlink:href="#font_2_43" transform="matrix(11.95517,0,0,-11.95517,154.07674,319.75578)"/>
<use xlink:href="#font_2_46" transform="matrix(11.95517,0,0,-11.95517,160.4608,319.73185)"/>
<use xlink:href="#font_2_e" transform="matrix(11.95517,0,0,-11.95517,165.84064,316.9463)"/>
<use xlink:href="#font_1_40" transform="matrix(25.84303,0,0,-25.84303,160.545,296.83467)"/>
<use xlink:href="#font_2_53" transform="matrix(11.95517,0,0,-11.95517,169.6421,319.6362)"/>
<use xlink:href="#font_2_42" transform="matrix(11.95517,0,0,-11.95517,174.28072,319.73185)"/>
<use xlink:href="#font_1_40" transform="matrix(25.84303,0,0,-25.84303,174.437,296.83467)"/>
<use xlink:href="#font_2_4f" transform="matrix(11.95517,0,0,-11.95517,184.3721,319.6362)"/>
<use xlink:href="#font_2_50" transform="matrix(11.95517,0,0,-11.95517,191.10286,319.73185)"/>
<use xlink:href="#font_2_54" transform="matrix(11.95517,0,0,-11.95517,197.21195,319.73185)"/>
<use xlink:href="#font_1_40" transform="matrix(25.84303,0,0,-25.84303,191.48001,296.83467)"/>
<use xlink:href="#font_2_42" transform="matrix(11.95517,0,0,-11.95517,206.54938,319.73185)"/>
<use xlink:href="#font_1_40" transform="matrix(25.84303,0,0,-25.84303,206.706,292.76435)"/>
<use xlink:href="#font_2_4e" transform="matrix(11.95517,0,0,-11.95517,216.64112,319.6362)"/>
<use xlink:href="#font_2_42" transform="matrix(11.95517,0,0,-11.95517,226.27698,319.73185)"/>
<use xlink:href="#font_2_e" transform="matrix(11.95517,0,0,-11.95517,231.7883,316.9463)"/>
<use xlink:href="#font_1_1b3" transform="matrix(25.84303,0,0,-25.84303,224.288,305.07859)"/>
<use xlink:href="#font_2_4d" transform="matrix(11.95517,0,0,-11.95517,235.85024,319.6362)"/>
<use xlink:href="#font_2_50" transform="matrix(11.95517,0,0,-11.95517,239.29332,319.73185)"/>
<use xlink:href="#font_2_f" transform="matrix(11.95517,0,0,-11.95517,245.51,319.73185)"/>
<use xlink:href="#font_1_40" transform="matrix(25.84303,0,0,-25.84303,239.67099,300.904)"/>
<use xlink:href="#font_1_b" transform="matrix(25.84303,0,0,-25.84303,245.379,299.30445)"/>
<use xlink:href="#font_1_26" transform="matrix(25.84303,0,0,-25.84303,251.96302,302.40379)"/>
<use xlink:href="#font_1_26" transform="matrix(25.84303,0,0,-25.84303,255.5552,302.40379)"/>
<use xlink:href="#font_1_16" transform="matrix(25.84303,0,0,-25.84303,262.632,301.23994)"/>
</g>
</g>
</svg>
