<?xml version="1.0" encoding="UTF-8" standalone="no"?>
<!DOCTYPE svg PUBLIC "-//W3C//DTD SVG 1.1//EN" "http://www.w3.org/Graphics/SVG/1.1/DTD/svg11.dtd">
<svg xmlns="http://www.w3.org/2000/svg" xmlns:xlink="http://www.w3.org/1999/xlink" version="1.1" width="311pt" height="280pt" viewBox="0 0 311 280">
<g enable-background="new">
<clipPath id="cp0">
<path transform="matrix(1,0,0,-1,-71,16251)" d="M 0 0 L 453.543 0 L 453.543 16322.79 L 0 16322.79 Z "/>
</clipPath>
<g clip-path="url(#cp0)">
<symbol id="font_1_39">
<path d="M .53700008 .104 L .38400004 .314 C .37400005 .32700003 .36800004 .337 .36800004 .34700004 C .36800004 .356 .36900003 .365 .37800003 .37700004 L .51500007 .554 C .55 .599 .58100005 .612 .62600007 .616 C .632 .622 .632 .643 .62600007 .649 C .596 .648 .559 .647 .536 .647 C .513 .647 .47100006 .648 .43100003 .649 C .42500005 .643 .42500005 .622 .43100003 .616 C .47500003 .613 .49400006 .607 .47000004 .574 L .34700004 .39900003 C .34100003 .39100004 .33500005 .38700003 .33100004 .38700003 C .32800005 .38700003 .32400004 .39100004 .31900005 .39800004 L .209 .562 C .18 .602 .176 .613 .23200001 .616 C .238 .622 .238 .643 .23200001 .649 C .19500001 .648 .158 .647 .118 .647 C .079 .647 .046000005 .648 .016 .649 C .010000001 .643 .011 .622 .017 .616 C .059000005 .613 .078 .608 .119 .549 L .26100005 .34600003 C .26900003 .33400003 .27500005 .326 .27500005 .316 C .27500005 .31000004 .27100004 .30100004 .26500003 .293 L .117000009 .095 C .083000008 .049000004 .051000004 .037 .006 .033 C 0 .027 0 .006 .006 0 C .036000004 .001 .073 .002 .096 .002 C .119 .002 .161 .001 .201 0 C .207 .006 .207 .027 .201 .033 C .157 .036000004 .13800001 .041 .162 .075 L .29400004 .26000003 C .30000005 .268 .30600003 .27400003 .30900003 .27400003 C .31300003 .27400003 .31700004 .27100004 .323 .263 L .44700004 .087 C .47500003 .047000003 .47900004 .036000004 .42300005 .033 C .41700004 .027 .41700004 .006 .42300005 0 C .46000005 .001 .49700005 .002 .53700008 .002 C .57600006 .002 .609 .001 .63900008 0 C .64500007 .006 .64400008 .027 .6380001 .033 C .596 .036000004 .57900008 .046000005 .53700008 .104 Z "/>
</symbol>
<symbol id="font_1_2a">
<path d="M .17800002 .124000009 L .17800002 .525 C .17800002 .608 .19500001 .613 .26500003 .616 C .271 .622 .271 .643 .26500003 .649 C .22100002 .648 .17400001 .647 .135 .647 C .102 .647 .053 .648 .006000001 .649 C 0 .643 0 .622 .006000001 .616 C .076000008 .613 .09300001 .608 .09300001 .525 L .09300001 .124000009 C .09300001 .041 .076000008 .036000004 .006000001 .033 C 0 .027 0 .006 .006000001 0 C .051000004 .001 .10000001 .002 .136 .002 C .172 .002 .22000002 .001 .26500003 0 C .271 .006 .271 .027 .26500003 .033 C .19500001 .036000004 .17800002 .041 .17800002 .124000009 Z "/>
</symbol>
<symbol id="font_1_37">
<path d="M .449 .62600007 C .523 .62100008 .523 .59400007 .50200006 .54 L .344 .139 L .34 .139 L .18 .54600009 C .157 .60600009 .163 .6190001 .231 .62600007 C .23700002 .632 .23700002 .65300008 .231 .65900006 C .19100002 .65800008 .14600002 .65700009 .11000001 .65700009 C .07400001 .65700009 .039 .65800008 .0060000007 .65900006 C 0 .65300008 .001 .632 .007 .62600007 C .062000004 .62100008 .07000001 .60400006 .097 .535 L .294 .023000002 C .3 .0069999999 .307 0 .317 0 C .328 0 .335 .009 .341 .023000002 L .54800006 .53300008 C .56700006 .58000007 .583 .6190001 .646 .62600007 C .652 .632 .652 .65300008 .646 .65900006 C .616 .65800008 .58100005 .65700009 .558 .65700009 C .535 .65700009 .49 .65800008 .449 .65900006 C .44300003 .65300008 .44300003 .632 .449 .62600007 Z "/>
</symbol>
<symbol id="font_1_f">
<path d="M 0 .053000004 C 0 .024 .023999997 0 .053000004 0 C .08200001 0 .106 .024 .106 .053000004 C .106 .082 .08200001 .106 .053000004 .106 C .023999997 .106 0 .082 0 .053000004 Z "/>
</symbol>
<symbol id="font_1_54">
<path d="M 0 .14800002 C .0040000008 .099 .007000003 .052000006 .007000003 .010000001 C .017000005 .012000001 .027000003 .013 .032000007 .013 C .039000006 .013 .045 .013 .052 .011000001 C .079 .0040000008 .10600001 0 .143 0 C .199 0 .30200003 .027000003 .30200003 .126 C .30200003 .19400002 .25300003 .23400001 .185 .259 C .125 .282 .085 .297 .085 .352 C .085 .393 .121000017 .416 .155 .416 C .17700002 .416 .23500002 .40800003 .248 .323 C .254 .317 .27400003 .31800003 .28 .324 C .28300003 .36 .285 .397 .286 .43 C .255 .435 .20700002 .449 .155 .449 C .08100001 .449 .014000002 .40100003 .014000002 .337 C .014000002 .264 .047000007 .23300001 .124000009 .20100002 C .20700002 .16700001 .22600001 .14600002 .22600001 .103 C .22600001 .054000006 .178 .033000005 .141 .033000005 C .102000009 .033000005 .080000009 .046000005 .07000001 .057000005 C .048 .08 .037 .124000009 .031000004 .14900002 C .025000006 .15500002 .006000001 .15400002 0 .14800002 Z "/>
</symbol>
<use xlink:href="#font_1_39" transform="matrix(10.90909,0,0,-10.90909,281.9179,7.290373)"/>
<use xlink:href="#font_1_2a" transform="matrix(10.90909,0,0,-10.90909,289.24885,7.290373)"/>
<use xlink:href="#font_1_37" transform="matrix(10.90909,0,0,-10.90909,292.59794,7.3994638)"/>
<use xlink:href="#font_1_f" transform="matrix(10.90909,0,0,-10.90909,299.3834,7.3776457)"/>
<use xlink:href="#font_1_54" transform="matrix(10.90909,0,0,-10.90909,304.41249,7.3776457)"/>
<use xlink:href="#font_1_f" transform="matrix(10.90909,0,0,-10.90909,308.7652,7.3776457)"/>
<symbol id="font_1_34">
<path d="M .368 .64100006 C .31 .64900007 .312 .66800007 .21400002 .66800007 C .113 .66800007 .024000003 .601 .024000003 .495 C .024000003 .39000003 .11100001 .342 .19900002 .308 C .259 .285 .333 .257 .333 .15900001 C .333 .078 .28800003 .036000004 .20800002 .036000004 C .115 .036000004 .055 .079 .033 .17800002 C .020000002 .18200001 .01 .18 0 .17500001 C .0040000008 .098000008 .007999999 .072000008 .020000002 .023000002 C .083000008 .023000002 .11100001 0 .20000002 0 C .24500002 0 .28800003 .011000001 .323 .033000005 C .381 .069000009 .41700004 .13000001 .41700004 .19400002 C .41700004 .3 .337 .347 .255 .37800003 C .19500003 .4 .095000009 .43800003 .095000009 .522 C .095000009 .578 .14600002 .634 .20500002 .634 C .30200003 .634 .333 .572 .35300002 .50600007 C .36400003 .504 .377 .50500008 .386 .512 C .382 .56 .37800003 .588 .368 .64100006 Z "/>
</symbol>
<use xlink:href="#font_1_34" transform="matrix(37.85803,0,0,-37.85803,7.6911656,60.289716)"/>
<symbol id="font_2_16">
<path d="M .27100004 .19800002 C .27100004 .1 .23600002 .044000005 .18100001 .044000005 C .16100002 .044000005 .142 .064 .126 .089 C .113000009 .109000008 .088 .128 .051000008 .128 C .015000001 .128 0 .103 0 .081 C 0 .064 .015000001 .041 .040000008 .028 C .07900001 .008 .13900002 0 .187 0 C .32 0 .407 .109000008 .407 .22900002 C .407 .329 .33500005 .404 .21700002 .404 C .186 .404 .12300001 .397 .09900001 .391 L .118 .523 C .15 .52000007 .221 .518 .263 .518 C .29900003 .518 .31700004 .52000007 .37800003 .524 L .397 .61 L .374 .623 C .301 .616 .264 .61 .20400001 .61 C .163 .61 .13100001 .616 .074 .62 L .034 .322 L .047000007 .314 C .120000008 .34100003 .13800001 .34800003 .18800001 .34800003 C .235 .34800003 .27100004 .298 .27100004 .19800002 Z "/>
</symbol>
<symbol id="font_2_f">
<path d="M 0 .068 C 0 .030000002 .031999999 0 .072000008 0 C .11200001 0 .146 .032 .146 .07 C .146 .109000008 .114 .13900002 .074 .13900002 C .034 .13900002 0 .107 0 .068 Z "/>
</symbol>
<use xlink:href="#font_2_16" transform="matrix(10.90909,0,0,-10.90909,12.2822699,23.696982)"/>
<use xlink:href="#font_2_f" transform="matrix(10.90909,0,0,-10.90909,17.856812,23.696982)"/>
<path transform="matrix(1,0,0,-1,30.699997,18.113282)" stroke-width=".388" stroke-linecap="butt" stroke-miterlimit="10" stroke-linejoin="miter" fill="none" stroke="#000000" d="M 0 0 L 279.844 0 "/>
<path transform="matrix(1,0,0,-1,30.699997,26.253907)" stroke-width=".388" stroke-linecap="butt" stroke-miterlimit="10" stroke-linejoin="miter" fill="none" stroke="#000000" d="M 0 0 L 279.844 0 "/>
<path transform="matrix(1,0,0,-1,30.699997,34.393556)" stroke-width=".388" stroke-linecap="butt" stroke-miterlimit="10" stroke-linejoin="miter" fill="none" stroke="#000000" d="M 0 0 L 279.844 0 "/>
<path transform="matrix(1,0,0,-1,30.699997,42.535158)" stroke-width=".388" stroke-linecap="butt" stroke-miterlimit="10" stroke-linejoin="miter" fill="none" stroke="#000000" d="M 0 0 L 279.844 0 "/>
<symbol id="font_3_d">
<path d="M 0 .106000009 L 0 .432 C 0 .46533335 .009666667 .49066673 .029000001 .508 C .048333337 .526 .07466667 .535 .108 .535 C .12666668 .5343334 .14100002 .52933338 .15100001 .52000007 C .16100002 .5113334 .16600001 .5 .16600001 .486 L .16600001 .31 L .156 .319 C .13666667 .33633337 .11200001 .345 .082 .345 C .054 .345 .033000005 .332 .019000002 .306 C .013000001 .29466669 .010000001 .282 .010000001 .268 C .010000001 .2546667 .013333335 .24200003 .020000002 .23000002 C .02666667 .21866668 .035333337 .20966669 .046000005 .20300001 C .057333337 .19633335 .06933334 .19300002 .082 .19300002 C .11266667 .19300002 .13733334 .20100002 .156 .21700001 L .16600001 .22700002 L .16600001 .050000006 C .16600001 .039333337 .163 .030333335 .157 .023000002 C .15166667 .0150000019 .14466667 .009333335 .136 .006000001 C .12733335 .0020000004 .118 0 .108 0 C .07466667 .000666668 .048333337 .010333336 .029000001 .029000003 C .009666667 .047000003 0 .07266667 0 .106000009 Z "/>
</symbol>
<use xlink:href="#font_3_d" transform="matrix(25.84303,0,0,-25.84303,30.699997,33.166536)"/>
<symbol id="font_1_22">
<path d="M .154 .081 L .209 .22600001 C .214 .23900002 .22000002 .24300002 .244 .24300002 L .45500005 .24300002 L .513 .074 C .52500006 .040000004 .48700006 .036000004 .43900005 .033 C .43300004 .027 .43300004 .006 .43900005 0 C .47600005 .001 .531 .002 .57000008 .002 C .61100009 .002 .64900007 .001 .6840001 0 C .69000008 .006 .69000008 .027 .6840001 .033 C .64500007 .037 .61100009 .040000004 .59400007 .088 L .38800005 .66 C .37300004 .651 .34600003 .64 .33300004 .64 L .106000009 .104 C .08 .042000005 .050000006 .036000004 .006 .033 C 0 .027 0 .006 .006 0 C .032 .001 .065 .002 .095 .002 C .136 .002 .186 .001 .223 0 C .229 .006 .229 .027 .223 .033 C .185 .036000004 .13800001 .040000004 .154 .081 M .26200003 .28500004 C .24000001 .28500004 .23300001 .28800003 .237 .298 L .33900003 .557 L .34500004 .557 L .43900005 .28500004 L .26200003 .28500004 Z "/>
</symbol>
<symbol id="font_1_4f">
<path d="M .16400002 .36 C .158 .35300002 .15200001 .351 .15200001 .36 C .15100001 .38700003 .14900002 .42600004 .14400001 .43600003 C .142 .441 .14000002 .44400005 .13200002 .44400005 C .104 .43300004 .078 .42400003 .009 .41500003 C .0069999995 .409 .009 .39300005 .011 .38700003 C .065 .38200004 .076 .37700004 .076 .319 L .076 .124000009 C .076 .042000005 .066 .038000004 .005999999 .033 C 0 .027 0 .006 .005999999 0 C .036 .001 .076 .002 .116000007 .002 C .15600002 .002 .18600002 .001 .21600002 0 C .22200002 .006 .22200002 .027 .21600002 .033 C .165 .038000004 .15500002 .042000005 .15500002 .124000009 L .15500002 .28800003 C .15500002 .30900003 .16400002 .321 .172 .33 C .21000001 .367 .255 .38900004 .294 .38900004 C .314 .38900004 .335 .37600003 .347 .35300002 C .357 .33300004 .359 .30600003 .359 .27600003 L .359 .124000009 C .359 .042000005 .349 .038000004 .297 .033 C .292 .027 .292 .006 .297 0 C .327 .001 .359 .002 .39900003 .002 C .439 .002 .47500003 .001 .50500008 0 C .51000007 .006 .51000007 .027 .50500008 .033 C .449 .038000004 .43800003 .042000005 .43800003 .124000009 L .43800003 .27300004 C .43800003 .328 .43400003 .37600003 .411 .40700004 C .39400003 .42900003 .363 .441 .328 .441 C .279 .441 .22300002 .42800004 .16400002 .36 Z "/>
</symbol>
<symbol id="font_1_e">
<path d="M .23100002 0 C .244 0 .25800003 .028000012 .25800003 .040000008 C .25800003 .049999998 .254 .060000019 .244 .060000019 L .025000003 .060000019 C .013 .060000019 0 .037000017 0 .019000009 C 0 .009000003 .006000001 0 .015000001 0 L .23100002 0 Z "/>
</symbol>
<use xlink:href="#font_1_22" transform="matrix(11.95517,0,0,-11.95517,39.511957,59.935045)"/>
<use xlink:href="#font_1_4f" transform="matrix(11.95517,0,0,-11.95517,48.04795,59.935045)"/>
<use xlink:href="#font_1_e" transform="matrix(11.95517,0,0,-11.95517,54.766759,57.24513)"/>
<symbol id="font_3_40">
<path d="M .082 .20500002 C .10066667 .205 .116000007 .20333334 .128 .2 C .14066667 .19666668 .14999999 .19133334 .156 .184 C .16266668 .17733334 .16600001 .16866668 .16600001 .158 L .16600001 0 C .14800002 .018666668 .120333347 .028000003 .083000008 .028 C .04566667 .028000003 .018000002 .018666668 0 0 L 0 .158 C 0 .18933334 .027333335 .205 .082 .20500002 Z "/>
</symbol>
<symbol id="font_3_1b4">
<path d="M 0 .020999998 L 0 .476 C 0 .5080001 .028000003 .52400007 .08400001 .52400007 C .13866668 .52400007 .16600001 .5080001 .16600001 .476 L .16600001 .19800002 C .17866667 .20466669 .2 .20800002 .23 .20800002 C .286 .20800002 .314 .19200002 .314 .16000001 L .314 .002000004 C .296 .020666669 .26833336 .030000002 .231 .030000002 C .19366668 .030000002 .16600001 .020666669 .148 .002000004 L .148 .32500003 C .14400001 .32833336 .13966668 .331 .135 .333 C .13033335 .33500005 .12533334 .337 .120000008 .33900003 C .11466667 .34033335 .108666669 .3416667 .102000009 .34300003 C .09600001 .34366668 .089666668 .34433333 .083000008 .34500004 C .071 .34500004 .058333339 .34233336 .045 .337 C .031666668 .33166669 .022666669 .32700003 .018000002 .323 L .018000002 .04699999 C .018000002 .035000009 .017666668 .026000014 .017 .02000001 C .017 .014000009 .016666668 .009666671 .016 .0069999995 C .016 .0036666692 .015666668 .001666675 .015000001 .0010000169 C .014333334 .00033333899 .013 0 .011000001 0 C .008333334 .00066667798 .0060000007 .002000014 .004 .004000008 C .0026666669 .005333344 .0016666668 .0076666774 .001 .011000007 C .00033333337 .013666679 0 .01700001 0 .020999998 Z "/>
</symbol>
<symbol id="font_3_51e">
<path d="M 0 .158 C 0 .18933334 .027333335 .205 .082 .20500002 C .13800001 .205 .16600001 .18933334 .16600001 .158 L .16600001 0 C .14800002 .018666668 .120333347 .028000003 .083000008 .028 C .04566667 .028000003 .018000002 .018666668 0 0 L 0 .158 M .16600001 .31500004 C .16600001 .34633336 .19333335 .36200003 .24800001 .36200003 C .30400003 .36200003 .33200003 .34633336 .33200003 .31500004 L .33200003 .158 C .314 .176 .28633336 .185 .24900002 .185 C .21166666 .185 .18400002 .176 .16600001 .158 L .16600001 .31500004 M .33200003 .158 C .33200003 .18933334 .35933338 .205 .41400004 .20500002 C .47000004 .205 .49800004 .18933334 .49800004 .158 L .49800004 0 C .48000003 .018666668 .45233337 .028000003 .41500003 .028 C .3776667 .028000003 .35000003 .018666668 .33200003 0 L .33200003 .158 Z "/>
</symbol>
<use xlink:href="#font_3_40" transform="matrix(25.84303,0,0,-25.84303,41.509004,28.993826)"/>
<use xlink:href="#font_3_1b4" transform="matrix(25.84303,0,0,-25.84303,47.866388,37.237756)"/>
<use xlink:href="#font_3_1b4" transform="matrix(25.84303,0,0,-25.84303,58.022005,45.377405)"/>
<use xlink:href="#font_3_51e" transform="matrix(25.84303,0,0,-25.84303,68.16,41.203786)"/>
<symbol id="font_1_44">
<path d="M .36100004 .101 C .35700003 .11 .349 .114 .34 .115 C .30600003 .071 .263 .049000004 .22 .049000004 C .14700002 .049000004 .086 .123 .086 .24000001 C .086 .35 .134 .416 .20000002 .416 C .259 .416 .26700003 .381 .27100004 .34600003 C .27400003 .319 .28800003 .31 .30900003 .31 C .33 .31 .358 .323 .358 .354 C .358 .409 .30100004 .449 .20500002 .449 C .106000009 .449 0 .36 0 .21800001 C 0 .089 .072000008 0 .19800002 0 C .25800003 0 .31100003 .019000002 .36100004 .101 Z "/>
</symbol>
<symbol id="font_1_55">
<path d="M .018000002 .439 C .0040000008 .439 0 .42700003 0 .419 L 0 .40600003 C 0 .40100003 .0010000002 .4 .005000001 .4 L .064 .4 L .064 .099 C .064 .028 .095000009 0 .141 0 C .187 0 .23700002 .022 .27600003 .066 C .27400003 .076 .268 .082 .25800003 .083000008 C .232 .063 .202 .055000005 .176 .055000005 C .149 .055000005 .143 .085 .143 .14700002 L .143 .4 L .24700001 .4 C .257 .4 .271 .404 .271 .41300003 L .271 .433 C .271 .437 .268 .439 .263 .439 L .143 .439 L .143 .47800002 C .143 .54300007 .147 .583 .147 .583 C .147 .58900007 .14400001 .592 .139 .592 C .135 .592 .126 .588 .117000009 .583 C .10600001 .577 .09600001 .572 .083000008 .569 C .071 .565 .061000006 .56200006 .061000006 .555 C .061000006 .54300007 .064 .55 .064 .439 L .018000002 .439 Z "/>
</symbol>
<symbol id="font_1_56">
<path d="M .19700001 .0029999996 C .23600002 .0029999996 .283 .023000002 .33200003 .063 C .337 .067 .34600003 .069000009 .347 .062000004 C .35 .037 .358 .0029999996 .358 .0029999996 C .366 0 .37100003 .0010000002 .377 .0029999996 C .39900003 .021000002 .43400003 .036000004 .49500004 .043 C .50100007 .049000004 .50100007 .064 .49500004 .07000001 C .43100003 .075 .42200003 .094 .42200003 .143 L .42200003 .33500005 C .42200003 .36500005 .426 .43800003 .426 .43800003 C .426 .44100005 .423 .44400005 .418 .44400005 C .41300003 .44300003 .398 .44200004 .38300003 .44200004 C .351 .44200004 .315 .44300003 .28100003 .44400005 C .275 .43800003 .275 .41700004 .28100003 .41100005 C .33 .40800003 .343 .39600004 .343 .33 L .343 .13700001 C .343 .118 .34100003 .11 .327 .098000008 C .29 .066 .252 .05 .22700002 .05 C .19700001 .05 .14700002 .064 .14700002 .153 L .14700002 .33500005 C .14700002 .36500005 .15100001 .43800003 .15100001 .43800003 C .15100001 .44100005 .14800002 .44400005 .143 .44400005 C .13800001 .44300003 .123 .44200004 .108 .44200004 C .076 .44200004 .04 .44300003 .005999999 .44400005 C 0 .43800003 0 .41700004 .005999999 .41100005 C .053999999 .40700004 .068 .39600004 .068 .33100004 L .068 .139 C .068 .07000001 .098000008 .0029999996 .19700001 .0029999996 Z "/>
</symbol>
<symbol id="font_1_d">
<path d="M .061 .22800002 C .030000005 .22800002 .008000001 .207 .008000001 .179 C .008000001 .148 .034000007 .138 .052000006 .135 C .07100001 .133 .088000018 .127 .088000018 .104 C .088000018 .083000008 .052000006 .037 0 .023999997 C 0 .013999999 .0020000004 .0069999995 .009 0 C .069000009 .0109999929 .127 .059 .127 .12900001 C .127 .18900001 .10100001 .22800002 .061 .22800002 Z "/>
</symbol>
<use xlink:href="#font_1_44" transform="matrix(11.95517,0,0,-11.95517,80.29334,60.030687)"/>
<use xlink:href="#font_1_55" transform="matrix(11.95517,0,0,-11.95517,85.266689,60.030687)"/>
<use xlink:href="#font_1_56" transform="matrix(11.95517,0,0,-11.95517,88.98474,60.06655)"/>
<use xlink:href="#font_1_54" transform="matrix(11.95517,0,0,-11.95517,95.66767,60.030687)"/>
<use xlink:href="#font_1_d" transform="matrix(11.95517,0,0,-11.95517,100.27042,61.50117)"/>
<symbol id="font_3_b">
<path d="M .060000004 .010000005 C .052666669 .0033333377 .044333336 .0000000037252905 .035 .0000000037252905 C .026333334 .0000000037252905 .018333335 .0033333377 .011000001 .010000005 C .003666667 .016666674 0 .025000006 0 .035000009 C 0 .045666677 .003666667 .054333345 .011000001 .061000009 C .018333335 .06766667 .026333334 .07100001 .035 .07100001 C .044333336 .07100001 .052666669 .06766667 .060000004 .061000009 C .06733333 .054333345 .071 .045666677 .071 .035000009 C .071 .025000006 .06733333 .016666674 .060000004 .010000005 Z "/>
</symbol>
<use xlink:href="#font_3_40" transform="matrix(25.84303,0,0,-25.84303,89.774,45.274099)"/>
<use xlink:href="#font_3_b" transform="matrix(25.84303,0,0,-25.84303,95.614,39.599378)"/>
<symbol id="font_4_25">
<path d="M .172 .18400003 L .172 .19100003 C .14533334 .17433335 .128 .16233336 .120000008 .15500002 C .11266667 .149 .09866667 .13400002 .077999997 .11000003 C .063999999 .09400002 .049999998 .086 .036 .08600001 C .013999999 .08933333 .0019999992 .10100001 0 .12100001 C 0 .14033336 .012999999 .15366669 .038999998 .16100003 C .045666666 .16300003 .05333334 .1646667 .062000008 .16600003 C .09733334 .17266669 .128 .18366669 .154 .19900002 C .15733333 .20100002 .16100002 .20333334 .165 .20600002 L .154 .21300002 C .13533335 .22566669 .10666666 .23566668 .068 .24300002 C .023999999 .25100003 .0013333311 .26666669 0 .29000003 C 0 .30733339 .0076666676 .31866674 .023000002 .32400007 C .027 .3253334 .030666667 .32600004 .034 .32600004 C .047999998 .32600004 .064 .31533338 .082 .29400004 C .10999999 .26333336 .13866668 .23966669 .16800002 .22300004 L .172 .22100003 L .172 .23400001 C .172 .26133339 .16700001 .29166673 .157 .32500006 C .15033333 .34833337 .147 .36533336 .147 .37600006 C .147 .3933334 .155 .40433339 .171 .40900005 C .17433334 .4103334 .17800002 .4110001 .18200001 .41100008 C .19866669 .4110001 .21000003 .40300004 .21600002 .38700003 C .21733333 .38300006 .218 .37866674 .218 .37400008 C .218 .3646667 .21466667 .34933339 .208 .32800008 C .19666668 .29600004 .19100003 .26833336 .19100002 .24500002 L .19100002 .21900003 L .19800002 .22300004 C .22066669 .23566669 .2446667 .257 .27 .287 C .29333333 .31433339 .312 .32800008 .326 .32800008 C .3446667 .32800008 .35633336 .31900008 .361 .30100007 C .36166669 .29700003 .36200003 .293 .36200003 .28900004 C .36200003 .2696667 .3516667 .25700007 .331 .25100006 C .32500003 .24966669 .31833337 .24833335 .31100003 .24700003 C .27700005 .24166669 .24433334 .23033338 .213 .21300002 L .199 .20500003 L .20700002 .20000004 C .23433334 .18333335 .26666669 .17200004 .30400003 .16600003 C .33800004 .16066669 .35733334 .15000002 .36200003 .13400002 L .363 .12200002 C .363 .10133334 .354 .08933333 .33600004 .08600001 L .328 .08500002 C .31133334 .085000019 .29133336 .099333349 .268 .128 C .242 .15933335 .21866668 .17933335 .19800002 .18800001 L .19100002 .19100003 L .19100002 .18400003 C .19100003 .14533337 .19766669 .10800002 .211 .07200001 C .21633335 .058000015 .21900003 .047333346 .21900001 .040000008 C .21900003 .022666678 .21100001 .010333344 .195 .003000006 C .19033332 .0010000119 .18533333 .000000014901162 .18 .000000014901162 C .16466667 .000000014901162 .154 .0076666825 .148 .023000017 C .14600002 .027666683 .14500001 .032333349 .14500001 .037000017 C .14500001 .04900002 .14866668 .06433336 .156 .08300002 C .16733335 .11300001 .17300003 .13800001 .17300001 .158 L .17300001 .16700001 L .172 .18400003 Z "/>
</symbol>
<use xlink:href="#font_4_25" transform="matrix(11.95517,0,0,-11.95517,111.2639,57.460325)"/>
<symbol id="font_3_2a">
<path d="M 0 .319 L .019000002 .319 L .019000002 0 C .009666667 .0006666581 .0033333337 .0029999912 0 .0069999995 L 0 .319 Z "/>
</symbol>
<use xlink:href="#font_3_2a" transform="matrix(25.84303,0,0,-25.84303,112.826999,22.725949)"/>
<symbol id="font_1_42">
<path d="M .257 .058000003 C .263 .027000003 .274 0 .324 0 C .36200003 0 .398 .017 .419 .037 C .417 .049000004 .41300003 .058000003 .402 .064 C .395 .058000003 .37800003 .048000006 .365 .048000006 C .336 .048000006 .335 .087000008 .335 .133 L .335 .28 C .335 .42200003 .257 .449 .18400002 .449 C .10200001 .449 .019000002 .395 .019000002 .338 C .019000002 .314 .031 .30200003 .054 .30200003 C .083000008 .30200003 .10100001 .323 .10100001 .336 C .10100001 .343 .10000001 .35 .098000008 .354 C .097 .357 .096 .363 .096 .374 C .096 .405 .13800001 .416 .17600002 .416 C .21000001 .416 .257 .39900003 .257 .286 C .257 .279 .254 .275 .251 .274 L .165 .25300003 C .069000009 .22900002 0 .17600002 0 .108 C 0 .026 .056000007 0 .126 0 C .16100002 0 .19100002 .008 .23500003 .042000005 L .255 .058000003 L .257 .058000003 M .257 .24300002 L .257 .111 C .257 .098000008 .251 .091 .24300002 .085 C .21700002 .064 .18300002 .041 .15500002 .041 C .105000007 .041 .083000008 .081 .083000008 .112 C .083000008 .157 .104 .20300001 .17800002 .22200002 L .257 .24300002 Z "/>
</symbol>
<use xlink:href="#font_1_34" transform="matrix(11.95517,0,0,-11.95517,124.46879,60.030687)"/>
<use xlink:href="#font_1_42" transform="matrix(11.95517,0,0,-11.95517,130.37465,60.030687)"/>
<use xlink:href="#font_1_4f" transform="matrix(11.95517,0,0,-11.95517,135.64688,59.935045)"/>
<use xlink:href="#font_1_e" transform="matrix(11.95517,0,0,-11.95517,142.36569,57.24513)"/>
<symbol id="font_3_1b3">
<path d="M 0 .020999998 L 0 .48000003 C 0 .512 .028000003 .528 .08400001 .528 C .11200001 .528 .13266666 .524 .14600002 .51600006 C .15933335 .508 .16600001 .49600003 .16600001 .48000003 L .16600001 .326 C .17 .3526667 .19733334 .36600004 .24800001 .36600004 C .30400003 .36600004 .33200003 .35033337 .33200003 .319 L .33200003 .16200002 C .314 .18 .28633336 .18900001 .24900002 .18900001 C .21166666 .18900001 .18400002 .18 .16600001 .16200002 L .16600001 .323 C .14866667 .34033335 .121 .349 .083000008 .349 C .056333335 .349 .03466667 .3416667 .018000002 .32700003 L .018000002 .04699999 C .018000002 .035000009 .017666668 .026000014 .017 .02000001 C .017 .014000009 .016666668 .009666671 .016 .0069999995 C .016 .0036666692 .015666668 .001666675 .015000001 .0010000169 C .014333334 .00033333899 .013 0 .011000001 0 C .008333334 .00066667798 .0060000007 .002000014 .004 .004000008 C .0026666669 .005333344 .0016666668 .0076666774 .001 .011000007 C .00033333337 .013666679 0 .01700001 0 .020999998 Z "/>
</symbol>
<use xlink:href="#font_3_40" transform="matrix(25.84303,0,0,-25.84303,130.531,37.133474)"/>
<use xlink:href="#font_3_1b3" transform="matrix(25.84303,0,0,-25.84303,136.8884,45.377405)"/>
<use xlink:href="#font_1_44" transform="matrix(11.95517,0,0,-11.95517,148.14833,60.030687)"/>
<use xlink:href="#font_1_55" transform="matrix(11.95517,0,0,-11.95517,153.12168,60.030687)"/>
<use xlink:href="#font_1_56" transform="matrix(11.95517,0,0,-11.95517,156.83974,60.06655)"/>
<use xlink:href="#font_1_54" transform="matrix(11.95517,0,0,-11.95517,163.52268,60.030687)"/>
<use xlink:href="#font_1_d" transform="matrix(11.95517,0,0,-11.95517,168.12541,61.50117)"/>
<use xlink:href="#font_3_40" transform="matrix(25.84303,0,0,-25.84303,157.63,45.274099)"/>
<use xlink:href="#font_3_b" transform="matrix(25.84303,0,0,-25.84303,163.47,39.599378)"/>
<use xlink:href="#font_3_2a" transform="matrix(25.84303,0,0,-25.84303,175.381,22.725949)"/>
<use xlink:href="#font_1_34" transform="matrix(11.95517,0,0,-11.95517,181.71979,60.030687)"/>
<use xlink:href="#font_1_42" transform="matrix(11.95517,0,0,-11.95517,187.62564,60.030687)"/>
<use xlink:href="#font_1_4f" transform="matrix(11.95517,0,0,-11.95517,192.89786,59.935045)"/>
<use xlink:href="#font_1_e" transform="matrix(11.95517,0,0,-11.95517,199.61667,57.24513)"/>
<symbol id="font_3_105">
<path d="M 0 .016 L 0 .169 C 0 .175 .002 .17800002 .006 .178 L .010000001 .178 C .031333336 .17400001 .051000004 .172 .069000009 .172 C .07300001 .172 .077 .172 .081 .172 C .085 .172 .08866668 .172 .09200001 .172 C .09600001 .17266667 .09933334 .17300003 .102000009 .17300001 C .116666678 .17300003 .128 .17566668 .136 .18100001 C .14400001 .18633335 .148 .19333335 .148 .202 L .148 .28900004 C .148 .29900003 .14600002 .3076667 .142 .31500004 C .13800001 .32300005 .13133334 .3296667 .12200001 .33500005 C .113333348 .34033338 .10233334 .34300003 .089 .34300003 C .057 .34300003 .031000002 .33600006 .011000001 .32200004 L .011000001 .45100004 C .011000001 .48366667 .037 .5 .089 .5 C .10966667 .5 .12766667 .49633337 .143 .48900003 C .15833335 .4816667 .16600001 .469 .16600001 .45100004 L .16600001 .017 C .16600001 .013000001 .15966667 .009333334 .147 .006000001 C .135 .0020000004 .12166667 0 .10700001 0 C .10366667 0 .09933334 .0003333334 .094000007 .0010000002 C .08866667 .0010000002 .082 .0010000002 .074 .0010000002 C .052 .0010000002 .036333335 .0016666669 .027 .0030000006 C .009000001 .0063333346 0 .010666668 0 .016 Z "/>
</symbol>
<symbol id="font_3_f2">
<path d="M 0 .395 C 0 .411 .0066666675 .423 .020000002 .43100003 C .034 .439 .055000005 .443 .083000008 .44300003 C .13833334 .443 .16600001 .42700003 .16600001 .395 L .16600001 .020999998 C .16600001 .008999993 .16233334 .001999994 .155 0 C .15300001 0 .15166669 .00033332906 .15100001 .0009999871 C .15033335 .0016666651 .14966667 .0036666692 .149 .0069999995 C .149 .009666671 .14866667 .014000009 .148 .02000001 C .148 .026000003 .148 .035 .148 .047000007 L .148 .24200002 C .13133334 .25666667 .10966667 .264 .083000008 .264 C .045 .264 .017333335 .25533334 0 .238 L 0 .395 Z "/>
</symbol>
<symbol id="font_3_1a">
<path d="M 0 .119 L .080000009 .25500003 L .185 .134 L .104 0 L 0 .119 Z "/>
</symbol>
<symbol id="font_3_59">
<path d="M 0 .103 C .004 .107 .009666667 .109000008 .017 .109000008 C .025 .109000008 .03066667 .107 .034 .103 L .034 .006000001 C .031333336 .0020000004 .025666669 0 .017 0 C .009000001 0 .0033333337 .0020000004 0 .006000001 L 0 .103 Z "/>
</symbol>
<use xlink:href="#font_3_105" transform="matrix(25.84303,0,0,-25.84303,187.78202,44.86061)"/>
<use xlink:href="#font_3_40" transform="matrix(25.84303,0,0,-25.84303,194.09601,28.993826)"/>
<use xlink:href="#font_3_40" transform="matrix(25.84303,0,0,-25.84303,200.4534,28.993826)"/>
<use xlink:href="#font_3_f2" transform="matrix(25.84303,0,0,-25.84303,206.784,22.829182)"/>
<use xlink:href="#font_3_1a" transform="matrix(25.84303,0,0,-25.84303,212.81299,21.446614)"/>
<use xlink:href="#font_3_1a" transform="matrix(25.84303,0,0,-25.84303,216.513,25.516926)"/>
<use xlink:href="#font_3_59" transform="matrix(25.84303,0,0,-25.84303,218.51001,30.717127)"/>
<use xlink:href="#font_3_40" transform="matrix(25.84303,0,0,-25.84303,223.37799,20.852225)"/>
<use xlink:href="#font_1_44" transform="matrix(11.95517,0,0,-11.95517,226.93135,60.030687)"/>
<use xlink:href="#font_1_55" transform="matrix(11.95517,0,0,-11.95517,231.90471,60.030687)"/>
<use xlink:href="#font_1_56" transform="matrix(11.95517,0,0,-11.95517,235.62277,60.06655)"/>
<use xlink:href="#font_1_54" transform="matrix(11.95517,0,0,-11.95517,242.30573,60.030687)"/>
<symbol id="font_3_1ae">
<path d="M 0 .020999998 L 0 .395 C 0 .42700003 .028000003 .443 .08400001 .44300003 C .11200001 .443 .13266666 .439 .14600002 .43100003 C .15933335 .423 .16600001 .411 .16600001 .395 L .16600001 .24100001 C .17 .26766668 .19733334 .28100003 .24800001 .28100003 C .30400003 .28100003 .33200003 .26533336 .33200003 .23400001 L .33200003 .07700001 C .314 .095000009 .28633336 .104 .24900002 .104 C .21166666 .104 .18400002 .095000009 .16600001 .07700001 L .16600001 .238 C .14866667 .25533334 .121 .264 .083000008 .264 C .056333335 .264 .03466667 .25666667 .018000002 .24200002 L .018000002 .047000007 C .018000002 .035 .017666668 .026000003 .017 .02000001 C .017 .014000009 .016666668 .009666671 .016 .0069999995 C .016 .0036666692 .015666668 .0016666651 .015000001 .0009999871 C .014333334 .00033332906 .013 0 .011000001 0 C .0076666676 .0006666581 .0050000005 .0029999912 .003 .0069999995 C .001 .010333329 0 .014999996 0 .020999998 Z "/>
</symbol>
<use xlink:href="#font_3_1ae" transform="matrix(25.84303,0,0,-25.84303,236.413,30.969807)"/>
<use xlink:href="#font_3_b" transform="matrix(25.84303,0,0,-25.84303,246.41,29.595473)"/>
<use xlink:href="#font_3_b" transform="matrix(25.84303,0,0,-25.84303,246.543,23.323012)"/>
<use xlink:href="#font_3_2a" transform="matrix(25.84303,0,0,-25.84303,256.425,22.725949)"/>
<symbol id="font_1_25">
<path d="M .135 .647 C .09900001 .647 .046000005 .648 .006000001 .649 C 0 .643 0 .622 .006000001 .616 C .076000008 .613 .09300001 .608 .09300001 .525 L .09300001 .124000009 C .09300001 .041 .076000008 .036000004 .006000001 .033 C 0 .027 0 .006 .006000001 0 C .045 .001 .098000008 .002 .136 .002 C .17300001 .002 .21500002 0 .31800003 0 C .45900003 0 .64500007 .064 .64500007 .31000004 C .64500007 .49600003 .49199999 .649 .3 .649 C .22900002 .649 .17400001 .647 .135 .647 M .17800002 .086 L .17800002 .566 C .17800002 .601 .21300002 .615 .262 .615 C .47800002 .615 .549 .44000004 .549 .286 C .549 .084 .428 .034 .287 .034 C .18900001 .034 .17800002 .054 .17800002 .086 Z "/>
</symbol>
<symbol id="font_1_b3">
<path d="M 0 .21500002 C 0 .113000009 .068 0 .21000001 0 C .27400003 0 .323 .023000002 .35700003 .056000007 C .402 .1 .42200003 .16300002 .42200003 .22400002 C .42200003 .328 .365 .449 .21200001 .449 C .146 .449 .092 .42200003 .055 .379 C .019000002 .336 0 .278 0 .21500002 M .197 .414 C .283 .414 .336 .336 .336 .19200002 C .336 .066 .271 .035 .224 .035 C .12000001 .035 .086 .16100002 .086 .23800002 C .086 .32500003 .107 .414 .197 .414 M .229 .681 L .153 .56200006 C .14500001 .549 .14200002 .545 .14200002 .53400006 C .14200002 .527 .14900002 .521 .15600002 .521 C .16300002 .521 .171 .52500006 .18600002 .54 L .301 .64900007 L .298 .66 C .275 .68200007 .24900002 .683 .243 .683 C .238 .683 .232 .68200007 .229 .681 Z "/>
</symbol>
<use xlink:href="#font_1_25" transform="matrix(11.95517,0,0,-11.95517,257.70445,59.935045)"/>
<use xlink:href="#font_1_b3" transform="matrix(11.95517,0,0,-11.95517,266.41978,60.030687)"/>
<use xlink:href="#font_3_40" transform="matrix(25.84303,0,0,-25.84303,266.798,16.781912)"/>
<use xlink:href="#font_3_59" transform="matrix(25.84303,0,0,-25.84303,268.503,22.577479)"/>
<symbol id="font_1_4e">
<path d="M .15 .36 C .14900002 .39000003 .14700002 .42600004 .142 .43600003 C .14000002 .441 .13800001 .44400005 .13000001 .44400005 C .102000009 .43300004 .076 .42400003 .0069999995 .41500003 C .004999999 .409 .0069999995 .39300005 .009 .38700003 C .063 .38200004 .074 .37700004 .074 .319 L .074 .124000009 C .074 .042000005 .060999998 .037 .005999999 .033 C 0 .027 0 .006 .005999999 0 C .036 .001 .074 .002 .114 .002 C .15400002 .002 .18500002 .001 .21500002 0 C .22100002 .006 .22100002 .027 .21500002 .033 C .16400002 .038000004 .15300001 .042000005 .15300001 .124000009 L .15300001 .28800003 C .15300001 .30900003 .16200002 .321 .17000002 .33 C .21000001 .36900003 .24700003 .38900004 .278 .38900004 C .316 .38900004 .344 .365 .344 .298 L .344 .124000009 C .344 .042000005 .336 .037 .282 .033 C .277 .027 .277 .006 .282 0 C .307 .001 .344 .002 .384 .002 C .42400003 .002 .45700003 .001 .48200003 0 C .48700003 .006 .48700003 .027 .48200003 .033 C .432 .037 .423 .042000005 .423 .124000009 L .423 .28300003 C .423 .29700003 .423 .31100003 .42200003 .323 C .47 .37600003 .51500007 .38900004 .554 .38900004 C .59200009 .38900004 .614 .367 .614 .3 L .614 .124000009 C .614 .042000005 .60400006 .037 .55200007 .033 C .54700008 .027 .54700008 .006 .55200007 0 C .577 .001 .614 .002 .65400007 .002 C .69400009 .002 .72900006 .001 .757 0 C .7620001 .006 .7620001 .027 .757 .033 C .7020001 .037 .6930001 .042000005 .6930001 .124000009 L .6930001 .282 C .6930001 .37100003 .67800006 .441 .59000006 .441 C .53900006 .441 .477 .42200003 .425 .367 C .42200003 .36400003 .416 .35900004 .414 .36800004 C .405 .409 .366 .441 .314 .441 C .256 .441 .20400001 .40700004 .16200002 .36 C .157 .35500003 .15100001 .34800003 .15 .36 Z "/>
</symbol>
<symbol id="font_1_4a">
<path d="M .157 .124000009 L .157 .323 C .157 .37300004 .161 .43700005 .161 .43700005 C .161 .441 .156 .44400005 .148 .44400005 C .120000008 .43300004 .08 .42400003 .011 .41500003 C .009 .409 .011 .39300005 .013 .38700003 C .068 .38200004 .07800001 .37600003 .07800001 .319 L .07800001 .124000009 C .07800001 .041 .067 .038000004 .006000001 .033 C 0 .027 0 .006 .006000001 0 C .039 .001 .07800001 .002 .118 .002 C .158 .002 .19600001 .001 .22900002 0 C .235 .006 .235 .027 .22900002 .033 C .168 .037 .157 .041 .157 .124000009 M .066 .601 C .066 .575 .09 .549 .11400001 .549 C .142 .549 .16600001 .576 .16600001 .597 C .16600001 .621 .14500001 .649 .118 .649 C .09400001 .649 .066 .625 .066 .601 Z "/>
</symbol>
<use xlink:href="#font_1_4e" transform="matrix(11.95517,0,0,-11.95517,272.1941,59.935045)"/>
<use xlink:href="#font_1_4a" transform="matrix(11.95517,0,0,-11.95517,281.6865,59.935045)"/>
<use xlink:href="#font_1_e" transform="matrix(11.95517,0,0,-11.95517,285.1176,57.24513)"/>
<use xlink:href="#font_3_40" transform="matrix(25.84303,0,0,-25.84303,280.875,20.852225)"/>
<use xlink:href="#font_1_4f" transform="matrix(11.95517,0,0,-11.95517,290.57713,59.935045)"/>
<use xlink:href="#font_1_56" transform="matrix(11.95517,0,0,-11.95517,297.05683,60.06655)"/>
<use xlink:href="#font_1_54" transform="matrix(11.95517,0,0,-11.95517,303.73979,60.030687)"/>
<symbol id="font_3_104">
<path d="M .13100001 0 C .12566668 0 .11766667 .0003333334 .10700001 .0010000002 C .09633335 .0010000002 .08666667 .0010000002 .078 .0010000002 C .07 .0010000002 .06033333 .0010000002 .049000004 .0010000002 C .038333335 .0003333334 .03133333 0 .028 0 C .016 0 .008333334 .0006666668 .0050000005 .0020000004 C .0016666668 .002666667 0 .0050000005 0 .009 L 0 .143 C 0 .149 .002 .152 .006 .152 L .010000001 .152 C .014666668 .15133333 .036333335 .15100001 .075 .15100001 L .109000008 .15100001 C .12033334 .15100001 .128 .15100001 .132 .15100001 C .13666667 .15166666 .14033334 .153 .143 .155 C .14633334 .15766667 .148 .162 .148 .168 C .148 .198 .12833333 .213 .089 .213 C .057 .213 .031000002 .20600002 .011000001 .192 L .011000001 .321 C .011000001 .35433338 .037 .37100003 .089 .37100003 C .10966667 .37100003 .12766667 .367 .143 .35900004 C .15833335 .3516667 .16600001 .33900003 .16600001 .321 L .16600001 .01 C .16600001 .007999999 .16533335 .0063333327 .164 .004999999 C .16333334 .0036666666 .16133334 .002666667 .158 .0020000004 C .15466668 .0013333336 .15066667 .0010000002 .14600002 .0010000002 C .142 .0003333334 .13700001 0 .13100001 0 Z "/>
</symbol>
<symbol id="font_3_13">
<path d="M .057000005 .241 C .042333336 .241 .03133333 .23966666 .024 .237 C .016666668 .23433334 .008666667 .22866667 0 .22 L 0 .399 C 0 .41300003 .0066666675 .42400003 .020000002 .432 C .034 .44066669 .051666667 .44633333 .07300001 .449 L .07300001 .032999994 C .07300001 .016333322 .07033334 .0053333246 .065000008 0 C .06433334 0 .06366667 0 .063 0 C .059000005 0 .057 .0066666656 .057000005 .019999996 L .057000005 .241 Z "/>
</symbol>
<use xlink:href="#font_3_104" transform="matrix(25.84303,0,0,-25.84303,297.847,24.689949)"/>
<use xlink:href="#font_3_13" transform="matrix(25.84303,0,0,-25.84303,308.657,22.72581)"/>
<path transform="matrix(1,0,0,-1,1,72.9082)" stroke-width=".388" stroke-linecap="butt" stroke-miterlimit="10" stroke-linejoin="miter" fill="none" stroke="#000000" d="M 0 0 L 309.543 0 "/>
<path transform="matrix(1,0,0,-1,1,81.04785)" stroke-width=".388" stroke-linecap="butt" stroke-miterlimit="10" stroke-linejoin="miter" fill="none" stroke="#000000" d="M 0 0 L 309.543 0 "/>
<path transform="matrix(1,0,0,-1,1,89.18945)" stroke-width=".388" stroke-linecap="butt" stroke-miterlimit="10" stroke-linejoin="miter" fill="none" stroke="#000000" d="M 0 0 L 309.543 0 "/>
<path transform="matrix(1,0,0,-1,1,97.3291)" stroke-width=".388" stroke-linecap="butt" stroke-miterlimit="10" stroke-linejoin="miter" fill="none" stroke="#000000" d="M 0 0 L 309.543 0 "/>
<use xlink:href="#font_3_d" transform="matrix(25.84303,0,0,-25.84303,1,87.96048)"/>
<symbol id="font_1_46">
<path d="M .349 .103 C .312 .065000008 .28300003 .049000004 .22500003 .049000004 C .18900001 .049000004 .14700002 .07 .11600001 .12100001 C .096 .15400002 .08400001 .20000002 .08400001 .25800003 L .35000003 .256 C .36200003 .256 .36900003 .262 .36900003 .273 C .36900003 .357 .33900003 .447 .20000002 .447 C .113000009 .447 0 .364 0 .21200001 C 0 .15600002 .014000002 .102000009 .047000007 .064 C .08100001 .024 .128 0 .20000002 0 C .27600003 0 .33 .035 .37 .087000008 C .367 .097 .36100004 .102000009 .349 .103 M .087000008 .292 C .106000009 .405 .17600002 .414 .20000002 .414 C .238 .414 .28300003 .393 .28300003 .30900003 C .28300003 .3 .279 .29500003 .268 .29500003 L .087000008 .292 Z "/>
</symbol>
<use xlink:href="#font_1_25" transform="matrix(11.95517,0,0,-11.95517,3.0574177,114.729969)"/>
<use xlink:href="#font_1_46" transform="matrix(11.95517,0,0,-11.95517,11.724918,114.82561)"/>
<use xlink:href="#font_1_e" transform="matrix(11.95517,0,0,-11.95517,17.104748,112.040058)"/>
<use xlink:href="#font_3_f2" transform="matrix(25.84303,0,0,-25.84303,11.808998,77.6241)"/>
<use xlink:href="#font_3_1a" transform="matrix(25.84303,0,0,-25.84303,17.736,76.24154)"/>
<use xlink:href="#font_3_1a" transform="matrix(25.84303,0,0,-25.84303,21.422997,80.31185)"/>
<use xlink:href="#font_1_56" transform="matrix(11.95517,0,0,-11.95517,33.447107,114.86147)"/>
<use xlink:href="#font_1_54" transform="matrix(11.95517,0,0,-11.95517,40.130048,114.82561)"/>
<use xlink:href="#font_3_40" transform="matrix(25.84303,0,0,-25.84303,34.237,83.78777)"/>
<use xlink:href="#font_3_b" transform="matrix(25.84303,0,0,-25.84303,40.019998,78.11305)"/>
<symbol id="font_1_a1">
<path d="M .257 .058000003 C .263 .027000003 .274 0 .324 0 C .36200003 0 .398 .017 .419 .037 C .417 .049000004 .41300003 .058000003 .402 .064 C .395 .058000003 .37800003 .048000006 .365 .048000006 C .336 .048000006 .335 .087000008 .335 .133 L .335 .28 C .335 .42200003 .257 .449 .18400002 .449 C .10200001 .449 .019000002 .395 .019000002 .338 C .019000002 .314 .031 .30200003 .054 .30200003 C .083000008 .30200003 .10100001 .323 .10100001 .336 C .10100001 .343 .10000001 .35 .098000008 .354 C .097 .357 .096 .363 .096 .374 C .096 .405 .13800001 .416 .17600002 .416 C .21000001 .416 .257 .39900003 .257 .286 C .257 .279 .254 .275 .251 .274 L .165 .25300003 C .069000009 .22900002 0 .17600002 0 .108 C 0 .026 .056000007 0 .126 0 C .16100002 0 .19100002 .008 .23500003 .042000005 L .255 .058000003 L .257 .058000003 M .257 .24300002 L .257 .111 C .257 .098000008 .251 .091 .24300002 .085 C .21700002 .064 .18300002 .041 .15500002 .041 C .105000007 .041 .083000008 .081 .083000008 .112 C .083000008 .157 .104 .20300001 .17800002 .22200002 L .257 .24300002 M .20800002 .681 L .13200002 .56200006 C .12400001 .549 .12100001 .545 .12100001 .53400006 C .12100001 .527 .128 .521 .135 .521 C .142 .521 .15 .52500006 .165 .54 L .28 .64900007 L .277 .66 C .254 .68200007 .228 .683 .22200002 .683 C .21700002 .683 .21100001 .68200007 .20800002 .681 Z "/>
</symbol>
<use xlink:href="#font_1_34" transform="matrix(11.95517,0,0,-11.95517,50.382787,114.82561)"/>
<use xlink:href="#font_1_a1" transform="matrix(11.95517,0,0,-11.95517,56.28864,114.82561)"/>
<use xlink:href="#font_1_e" transform="matrix(11.95517,0,0,-11.95517,61.79997,112.040058)"/>
<symbol id="font_3_3a">
<path d="M 0 .065000008 L 0 .128 L .027000003 .124 L .076000008 .097 C .102000009 .08166667 .11866667 .06966667 .126 .061000006 C .13333334 .052333338 .13700001 .040333336 .13700001 .024999999 C .13700001 .008333333 .12866669 0 .112 0 C .10133334 0 .08666667 .005333333 .068 .015999999 C .049333335 .027333335 .033333336 .038333335 .02 .049000004 L 0 .065000008 Z "/>
</symbol>
<use xlink:href="#font_3_3a" transform="matrix(25.84303,0,0,-25.84303,50.45065,86.72002)" fill="#ffffff"/>
<symbol id="font_3_39">
<path d="M .046000005 .22600001 C .058000003 .22600001 .07 .22433335 .082 .22100002 C .094000007 .21833335 .10466667 .21433334 .11400001 .209 C .123333338 .20366669 .13166668 .19800002 .13900002 .19200002 C .14633334 .186 .15200001 .17966669 .156 .17300001 C .16000001 .16633334 .162 .16033334 .162 .155 L .16000001 0 C .09600001 0 .044666668 .020333335 .006 .061000006 C .002 .16033334 0 .22500001 0 .255 L 0 .341 C 0 .359 .0043333338 .368 .013 .368 C .020333333 .368 .023999999 .35933338 .024 .342 L .021000002 .120000008 C .057 .080000009 .091 .060000004 .123 .060000004 C .13833334 .060000004 .14600002 .068 .14600002 .08400001 C .14600002 .097333338 .14266669 .108 .136 .11600001 C .12933333 .12400001 .114 .135 .09 .149 L .046000005 .17400001 L .046000005 .22600001 Z "/>
</symbol>
<use xlink:href="#font_3_39" transform="matrix(25.84303,0,0,-25.84303,50.063005,88.14138)"/>
<use xlink:href="#font_3_1b4" transform="matrix(25.84303,0,0,-25.84303,56.445,100.172328)"/>
<use xlink:href="#font_3_f2" transform="matrix(25.84303,0,0,-25.84303,66.558,93.90437)"/>
<use xlink:href="#font_3_1a" transform="matrix(25.84303,0,0,-25.84303,72.48399,92.52279)"/>
<use xlink:href="#font_3_1a" transform="matrix(25.84303,0,0,-25.84303,76.172,96.5931)"/>
<use xlink:href="#font_3_59" transform="matrix(25.84303,0,0,-25.84303,78.16901,101.7933)"/>
<use xlink:href="#font_3_40" transform="matrix(25.84303,0,0,-25.84303,82.985,91.9284)"/>
<symbol id="font_1_43">
<path d="M .16100002 .40600003 C .15500002 .4 .15100001 .402 .15100001 .411 L .15100001 .595 C .15100001 .66 .15500002 .70000007 .15500002 .70000007 C .15500002 .7070001 .15100001 .71000006 .142 .71000006 C .117000009 .70000007 .042 .68600007 .0020000004 .683 C 0 .6750001 .0020000004 .65900006 .008 .65300008 C .011000001 .65300008 .014000001 .65300008 .017 .65300008 C .061 .65000006 .072000008 .65000006 .072000008 .57100006 L .072000008 .083000008 C .072000008 .044 .07100001 .026 .068 .012 C .07300001 .0039999999 .07800001 0 .09 0 C .09600001 .006 .106000009 .015000001 .11400001 .024 C .12400001 .036 .13000001 .036 .141 .027 C .164 .007999999 .194 .0019999995 .22900002 .0019999995 C .331 .0019999995 .45000003 .095000009 .45000003 .254 C .45000003 .37600003 .36 .451 .273 .451 C .23000002 .451 .19200002 .43400003 .16100002 .40600003 M .16800002 .375 C .194 .398 .224 .407 .253 .407 C .314 .407 .364 .333 .364 .236 C .364 .12200001 .318 .036 .22300002 .036 C .19200002 .036 .171 .058000007 .15100001 .083000008 L .15100001 .333 C .15100001 .354 .15500002 .36400003 .16800002 .375 Z "/>
</symbol>
<use xlink:href="#font_1_43" transform="matrix(11.95517,0,0,-11.95517,88.899738,114.84952)"/>
<use xlink:href="#font_1_42" transform="matrix(11.95517,0,0,-11.95517,95.1523,114.82561)"/>
<use xlink:href="#font_1_e" transform="matrix(11.95517,0,0,-11.95517,100.663639,112.040058)"/>
<use xlink:href="#font_3_1ae" transform="matrix(25.84303,0,0,-25.84303,95.308,102.045978)"/>
<symbol id="font_1_50">
<path d="M 0 .21500002 C 0 .113000009 .068 0 .21000001 0 C .27400003 0 .323 .023000002 .35700003 .056000007 C .402 .1 .42200003 .16300002 .42200003 .22400002 C .42200003 .328 .365 .449 .21200001 .449 C .146 .449 .092 .42200003 .055 .379 C .019000002 .336 0 .278 0 .21500002 M .197 .414 C .283 .414 .336 .336 .336 .19200002 C .336 .066 .271 .035 .224 .035 C .12000001 .035 .086 .16100002 .086 .23800002 C .086 .32500003 .107 .414 .197 .414 Z "/>
</symbol>
<symbol id="font_1_49">
<path d="M .15500002 .28800003 C .15500002 .30900003 .16400002 .321 .17200002 .33 C .21000003 .367 .261 .38900004 .3 .38900004 C .32000003 .38900004 .34100003 .37600003 .35300002 .35300002 C .36300005 .33300004 .365 .30600003 .365 .27600003 L .365 .124000009 C .365 .042000005 .35500003 .038000004 .30300004 .033 C .298 .027 .298 .006 .30300004 0 C .33100004 .001 .365 .002 .40500004 .002 C .44500003 .002 .47800002 .001 .511 0 C .516 .006 .516 .027 .511 .033 C .455 .038000004 .44400005 .042000005 .44400005 .124000009 L .44400005 .27300004 C .44400005 .328 .44000004 .37700004 .41700004 .40700004 C .40000005 .42900003 .36900003 .441 .33400003 .441 C .28500004 .441 .22500003 .42800004 .16400002 .36 C .16400002 .35900004 .16300002 .35900004 .16200002 .358 C .15900001 .35400004 .15400002 .34800003 .15400002 .36 L .15500002 .585 C .15500002 .65 .15900001 .69 .15900001 .69 C .15900001 .697 .15500002 .7 .14600002 .7 C .121 .69 .046000005 .676 .006000001 .673 C .0040000008 .665 .006000001 .649 .012 .643 C .015000001 .643 .018000002 .643 .021 .643 C .065000008 .64 .076000008 .64 .076000008 .561 L .076000008 .124000009 C .076000008 .041 .064 .037 .006000001 .033 C 0 .027 0 .006 .006000001 0 C .039000006 .001 .076000008 .002 .116000007 .002 C .15400002 .002 .18700002 .001 .21500002 0 C .22100002 .006 .22100002 .027 .21500002 .033 C .16400002 .037 .15500002 .041 .15500002 .124000009 L .15500002 .28800003 Z "/>
</symbol>
<use xlink:href="#font_1_50" transform="matrix(11.95517,0,0,-11.95517,111.54417,114.82561)"/>
<use xlink:href="#font_1_55" transform="matrix(11.95517,0,0,-11.95517,117.37829,114.82561)"/>
<use xlink:href="#font_1_49" transform="matrix(11.95517,0,0,-11.95517,121.0007,114.729969)"/>
<use xlink:href="#font_1_f" transform="matrix(11.95517,0,0,-11.95517,127.970569,114.82561)"/>
<symbol id="font_3_26">
<path d="M 0 .96000006 L .019000002 .96000006 L .019000002 0 L 0 0 L 0 .96000006 Z "/>
</symbol>
<use xlink:href="#font_3_40" transform="matrix(25.84303,0,0,-25.84303,111.922,100.06805)"/>
<use xlink:href="#font_3_b" transform="matrix(25.84303,0,0,-25.84303,117.705,94.3943)"/>
<use xlink:href="#font_3_26" transform="matrix(25.84303,0,0,-25.84303,133.055,97.49656)"/>
<symbol id="font_1_31">
<path d="M .093 .525 L .093 .124000009 C .093 .041 .076000008 .036000004 .006 .033 C 0 .027 0 .006 .006 0 C .051000004 .001 .10000001 .002 .13599999 .002 C .171 .002 .23 .001 .28 0 C .286 .006 .286 .027 .28 .033 C .202 .037 .178 .041 .178 .124000009 L .178 .29400004 C .2 .28700004 .224 .284 .259 .284 C .441 .284 .49600003 .40300004 .49600003 .48800005 C .49600003 .547 .45700003 .654 .272 .654 C .234 .654 .175 .647 .135 .647 C .098000008 .647 .046000005 .648 .006 .649 C 0 .643 0 .622 .006 .616 C .076000008 .613 .093 .608 .093 .525 M .178 .556 C .178 .585 .193 .62 .26500003 .62 C .33400003 .62 .40300004 .597 .40300004 .47000004 C .40300004 .36200003 .351 .31800003 .254 .31800003 C .229 .31800003 .189 .32000003 .178 .323 L .178 .556 Z "/>
</symbol>
<symbol id="font_1_4d">
<path d="M .07800001 .124000009 C .07800001 .041 .067 .036000004 .006000001 .033 C 0 .027 0 .006 .006000001 0 C .041 .001 .07800001 .002 .118 .002 C .158 .002 .19600001 .001 .229 0 C .235 .006 .235 .027 .229 .033 C .168 .036000004 .157 .041 .157 .124000009 L .157 .585 C .157 .65 .161 .69 .161 .69 C .161 .697 .157 .7 .148 .7 C .122999999 .69 .048000006 .676 .007999999 .673 C .006000001 .665 .007999999 .649 .014 .643 C .072 .639 .07800001 .636 .07800001 .561 L .07800001 .124000009 Z "/>
</symbol>
<use xlink:href="#font_1_31" transform="matrix(11.95517,0,0,-11.95517,138.7325,114.729969)"/>
<use xlink:href="#font_1_4d" transform="matrix(11.95517,0,0,-11.95517,145.41544,114.729969)"/>
<use xlink:href="#font_1_46" transform="matrix(11.95517,0,0,-11.95517,148.8107,114.82561)"/>
<use xlink:href="#font_1_e" transform="matrix(11.95517,0,0,-11.95517,154.19054,112.040058)"/>
<use xlink:href="#font_3_40" transform="matrix(25.84303,0,0,-25.84303,148.895,91.9284)"/>
<use xlink:href="#font_1_4f" transform="matrix(11.95517,0,0,-11.95517,158.9391,114.729969)"/>
<use xlink:href="#font_1_4a" transform="matrix(11.95517,0,0,-11.95517,165.46663,114.729969)"/>
<use xlink:href="#font_3_1b3" transform="matrix(25.84303,0,0,-25.84303,164.655,100.172328)"/>
<use xlink:href="#font_1_54" transform="matrix(11.95517,0,0,-11.95517,177.56786,114.82561)"/>
<use xlink:href="#font_1_56" transform="matrix(11.95517,0,0,-11.95517,181.89563,114.86147)"/>
<use xlink:href="#font_1_4f" transform="matrix(11.95517,0,0,-11.95517,188.24384,114.729969)"/>
<use xlink:href="#font_1_55" transform="matrix(11.95517,0,0,-11.95517,194.78331,114.82561)"/>
<use xlink:href="#font_3_40" transform="matrix(25.84303,0,0,-25.84303,182.685,100.06805)"/>
<use xlink:href="#font_3_59" transform="matrix(25.84303,0,0,-25.84303,184.391,104.03158)"/>
<use xlink:href="#font_1_44" transform="matrix(11.95517,0,0,-11.95517,204.47035,114.82561)"/>
<use xlink:href="#font_1_42" transform="matrix(11.95517,0,0,-11.95517,209.57523,114.82561)"/>
<use xlink:href="#font_1_46" transform="matrix(11.95517,0,0,-11.95517,215.05068,114.82561)"/>
<use xlink:href="#font_1_e" transform="matrix(11.95517,0,0,-11.95517,220.43051,112.040058)"/>
<use xlink:href="#font_3_40" transform="matrix(25.84303,0,0,-25.84303,212.40302,95.99871)"/>
<use xlink:href="#font_1_4d" transform="matrix(11.95517,0,0,-11.95517,225.14324,114.729969)"/>
<use xlink:href="#font_1_4a" transform="matrix(11.95517,0,0,-11.95517,228.38309,114.729969)"/>
<use xlink:href="#font_3_40" transform="matrix(25.84303,0,0,-25.84303,227.57102,91.9284)"/>
<use xlink:href="#font_3_59" transform="matrix(25.84303,0,0,-25.84303,229.27701,95.89095)"/>
<use xlink:href="#font_1_46" transform="matrix(11.95517,0,0,-11.95517,241.22734,114.82561)"/>
<use xlink:href="#font_1_55" transform="matrix(11.95517,0,0,-11.95517,246.42784,114.82561)"/>
<use xlink:href="#font_3_40" transform="matrix(25.84303,0,0,-25.84303,241.31201,83.78777)"/>
<symbol id="font_1_53">
<path d="M .15600002 .36 C .15400002 .40000005 .15300001 .42600004 .14800002 .43600003 C .14600002 .441 .14400001 .44400005 .136 .44400005 C .108 .43300004 .082 .42400003 .012999998 .41500003 C .011 .409 .012999998 .39300005 .014999999 .38700003 C .069 .38200004 .08 .37700004 .08 .319 L .08 .124000009 C .08 .041 .068 .037 .005999999 .033 C 0 .027 0 .006 .005999999 0 C .041 .001 .08 .002 .12 .002 C .16000001 .002 .20600002 .001 .24100001 0 C .24700003 .006 .24700003 .027 .24100001 .033 C .17100002 .038000004 .15900001 .041 .15900001 .124000009 L .15900001 .263 C .15900001 .289 .17100002 .312 .18300002 .33 C .19400002 .34600003 .21700002 .379 .22900002 .379 C .23800002 .379 .24700003 .37700004 .255 .36600004 C .262 .356 .274 .34300003 .291 .34300003 C .315 .34300003 .338 .36800004 .338 .39300005 C .338 .41200004 .32 .441 .278 .441 C .23100002 .441 .19000001 .397 .16700001 .358 C .16100002 .34700004 .15600002 .35500003 .15600002 .36 Z "/>
</symbol>
<use xlink:href="#font_1_55" transform="matrix(11.95517,0,0,-11.95517,255.97087,114.82561)"/>
<use xlink:href="#font_1_46" transform="matrix(11.95517,0,0,-11.95517,259.89219,114.82561)"/>
<use xlink:href="#font_1_53" transform="matrix(11.95517,0,0,-11.95517,265.0329,114.729969)"/>
<use xlink:href="#font_1_e" transform="matrix(11.95517,0,0,-11.95517,269.71934,112.040058)"/>
<symbol id="font_3_1de">
<path d="M 0 .020999998 L 0 .444 C .0006666667 .45266668 .007333334 .45700003 .020000002 .45700003 C .055999999 .45633338 .10066667 .44666673 .15400002 .42800004 C .16333334 .42533336 .16800003 .4216667 .16800002 .417 L .16800002 .12200001 C .16800003 .118 .16733335 .11466666 .16600001 .112 C .16466667 .10866668 .16266668 .106000009 .16000001 .104 C .15733333 .102 .154 .10033333 .15 .09900001 C .14666668 .09766667 .14266669 .097 .13800001 .097 C .123333338 .097 .11066667 .102 .1 .112 C .09 .122 .085 .13333334 .085 .146 L .085 .22800002 C .095 .216 .10933334 .20966667 .128 .209 C .13266666 .209 .13700001 .21166666 .141 .21700001 C .14566668 .22233336 .14833333 .22833336 .149 .23500002 C .14766668 .2436667 .14400001 .24933334 .13800001 .252 C .126 .256 .109000008 .26000003 .087000008 .264 C .065000008 .26733337 .04766667 .26900003 .035 .26900003 C .031666668 .26900003 .028000003 .2676667 .024 .26500003 C .020666669 .2616667 .018666668 .25800003 .018000002 .254 L .018000002 .047000007 C .018000002 .035 .017666668 .026000003 .017 .02000001 C .017 .014000009 .016666668 .009666671 .016 .0069999995 C .016 .0036666692 .015666668 .0016666651 .015000001 .0009999871 C .014333334 .00033332906 .013 0 .011000001 0 C .0076666676 .0006666581 .0050000005 .0029999912 .003 .0069999995 C .001 .010333329 0 .014999996 0 .020999998 Z "/>
</symbol>
<use xlink:href="#font_3_51e" transform="matrix(25.84303,0,0,-25.84303,259.977,79.71746)"/>
<use xlink:href="#font_3_1de" transform="matrix(25.84303,0,0,-25.84303,274.83674,85.764728)"/>
<use xlink:href="#font_1_53" transform="matrix(11.95517,0,0,-11.95517,282.4251,114.729969)"/>
<use xlink:href="#font_1_42" transform="matrix(11.95517,0,0,-11.95517,287.06373,114.82561)"/>
<use xlink:href="#font_3_40" transform="matrix(25.84303,0,0,-25.84303,287.22,83.78777)"/>
<use xlink:href="#font_3_b" transform="matrix(25.84303,0,0,-25.84303,293.003,78.11305)"/>
<use xlink:href="#font_3_2a" transform="matrix(25.84303,0,0,-25.84303,301.646,77.5199)"/>
<use xlink:href="#font_3_13" transform="matrix(25.84303,0,0,-25.84303,308.657,77.52073)"/>
<path transform="matrix(1,0,0,-1,1,127.70215)" stroke-width=".388" stroke-linecap="butt" stroke-miterlimit="10" stroke-linejoin="miter" fill="none" stroke="#000000" d="M 0 0 L 309.543 0 "/>
<path transform="matrix(1,0,0,-1,1,135.84278)" stroke-width=".388" stroke-linecap="butt" stroke-miterlimit="10" stroke-linejoin="miter" fill="none" stroke="#000000" d="M 0 0 L 309.543 0 "/>
<path transform="matrix(1,0,0,-1,1,143.9834)" stroke-width=".388" stroke-linecap="butt" stroke-miterlimit="10" stroke-linejoin="miter" fill="none" stroke="#000000" d="M 0 0 L 309.543 0 "/>
<path transform="matrix(1,0,0,-1,1,152.12403)" stroke-width=".388" stroke-linecap="butt" stroke-miterlimit="10" stroke-linejoin="miter" fill="none" stroke="#000000" d="M 0 0 L 309.543 0 "/>
<use xlink:href="#font_3_d" transform="matrix(25.84303,0,0,-25.84303,1,142.7554)"/>
<symbol id="font_1_48">
<path d="M .41200004 .625 C .43100003 .625 .44900004 .643 .44900004 .663 C .44900004 .684 .43 .70000007 .40300004 .70000007 C .377 .70000007 .32900004 .683 .303 .64900007 C .291 .65700009 .25800003 .67700007 .199 .67700007 C .11 .67700007 .028 .617 .028 .525 C .028 .47100003 .052000006 .44 .08 .41300003 C .052000006 .389 .036000004 .34600003 .036000004 .312 C .036000004 .27600003 .056000007 .24800001 .082 .235 C .028 .20300001 0 .157 0 .114 C 0 .026999996 .082 0 .15900001 0 C .294 0 .44000004 .065 .44000004 .17300001 C .44000004 .20500002 .425 .23 .39600004 .254 C .35700003 .286 .287 .287 .25 .287 C .232 .287 .207 .285 .183 .282 C .168 .28100003 .158 .28 .153 .28 C .124 .28 .089 .294 .089 .337 C .089 .357 .095 .37800003 .10700001 .395 C .131 .381 .15900001 .374 .198 .374 C .286 .374 .367 .42900003 .367 .527 C .367 .574 .35300002 .601 .324 .63100007 C .331 .64100006 .351 .65500006 .36400003 .65500006 C .37100003 .65500006 .37800003 .65200009 .384 .643 C .388 .635 .40100003 .625 .41200004 .625 M .099999997 .228 C .111 .22500001 .127 .223 .14 .223 C .171 .223 .199 .22600001 .213 .22600001 C .263 .22600001 .305 .22500001 .33400003 .209 C .37300004 .187 .38500003 .17300001 .38500003 .147 C .38500003 .075 .279 .037 .18900001 .037 C .153 .037 .069000009 .066 .069000009 .134 C .069000009 .16800002 .07100001 .193 .099999997 .228 M .287 .517 C .287 .42400003 .24000001 .40500004 .20300001 .40500004 C .119 .40500004 .11 .476 .11 .54 C .11 .61 .135 .646 .19000001 .646 C .25300003 .646 .287 .6 .287 .517 Z "/>
</symbol>
<use xlink:href="#font_1_48" transform="matrix(11.95517,0,0,-11.95517,2.7995654,172.34534)"/>
<use xlink:href="#font_1_4d" transform="matrix(11.95517,0,0,-11.95517,8.597822,169.52391)"/>
<use xlink:href="#font_1_b3" transform="matrix(11.95517,0,0,-11.95517,12.040913,169.61956)"/>
<use xlink:href="#font_1_e" transform="matrix(11.95517,0,0,-11.95517,18.054364,166.834)"/>
<use xlink:href="#font_3_40" transform="matrix(25.84303,0,0,-25.84303,12.418999,126.37176)"/>
<use xlink:href="#font_1_53" transform="matrix(11.95517,0,0,-11.95517,22.045104,169.52391)"/>
<use xlink:href="#font_1_4a" transform="matrix(11.95517,0,0,-11.95517,26.54025,169.52391)"/>
<use xlink:href="#font_1_e" transform="matrix(11.95517,0,0,-11.95517,29.971386,166.834)"/>
<use xlink:href="#font_3_1b3" transform="matrix(25.84303,0,0,-25.84303,25.728997,138.68502)"/>
<use xlink:href="#font_1_42" transform="matrix(11.95517,0,0,-11.95517,41.427389,169.61956)"/>
<use xlink:href="#font_3_1b4" transform="matrix(25.84303,0,0,-25.84303,41.584,146.82662)"/>
<use xlink:href="#font_1_55" transform="matrix(11.95517,0,0,-11.95517,54.67188,169.61956)"/>
<use xlink:href="#font_1_56" transform="matrix(11.95517,0,0,-11.95517,58.38994,169.65541)"/>
<use xlink:href="#font_1_e" transform="matrix(11.95517,0,0,-11.95517,64.977237,166.834)"/>
<use xlink:href="#font_3_3a" transform="matrix(25.84303,0,0,-25.84303,53.185644,141.51494)" fill="#ffffff"/>
<use xlink:href="#font_3_39" transform="matrix(25.84303,0,0,-25.84303,52.797998,142.93631)"/>
<use xlink:href="#font_3_f2" transform="matrix(25.84303,0,0,-25.84303,59.18123,148.6993)"/>
<use xlink:href="#font_3_1a" transform="matrix(25.84303,0,0,-25.84303,64.996,147.31673)"/>
<use xlink:href="#font_3_1a" transform="matrix(25.84303,0,0,-25.84303,68.67,151.38704)"/>
<use xlink:href="#font_1_42" transform="matrix(11.95517,0,0,-11.95517,80.5694,169.61956)"/>
<use xlink:href="#font_1_f" transform="matrix(11.95517,0,0,-11.95517,86.283969,169.61956)"/>
<symbol id="font_3_34">
<path d="M .019000002 .68200007 L .019000002 .0029999912 C .009000001 .002333333 .0026666669 .001333336 0 0 L 0 .679 C .0033333337 .68100008 .009666667 .682 .019000002 .68200007 Z "/>
</symbol>
<use xlink:href="#font_3_1ae" transform="matrix(25.84303,0,0,-25.84303,80.726,156.83992)"/>
<use xlink:href="#font_3_b" transform="matrix(25.84303,0,0,-25.84303,90.72301,155.46559)"/>
<use xlink:href="#font_3_b" transform="matrix(25.84303,0,0,-25.84303,90.73801,149.19216)"/>
<use xlink:href="#font_3_34" transform="matrix(25.84303,0,0,-25.84303,97.644,149.37122)"/>
<symbol id="font_1_29">
<path d="M .605 .124000009 L .605 .525 C .605 .608 .62200006 .613 .69200006 .616 C .698 .622 .698 .643 .69200006 .649 C .651 .648 .6 .647 .56200006 .647 C .52500006 .647 .477 .648 .433 .649 C .42700003 .643 .42700003 .622 .433 .616 C .503 .613 .52000007 .608 .52000007 .525 L .52000007 .365 L .17800002 .365 L .17800002 .525 C .17800002 .608 .19500001 .613 .26500003 .616 C .271 .622 .271 .643 .26500003 .649 C .22700002 .648 .18600002 .647 .135 .647 C .08500001 .647 .044000005 .648 .006000001 .649 C 0 .643 0 .622 .006000001 .616 C .076000008 .613 .09300001 .608 .09300001 .525 L .09300001 .124000009 C .09300001 .041 .076000008 .036000004 .006000001 .033 C 0 .027 0 .006 .006000001 0 C .05 .001 .098000008 .002 .136 .002 C .172 .002 .22100002 .001 .26500003 0 C .271 .006 .271 .027 .26500003 .033 C .19500001 .036000004 .17800002 .041 .17800002 .124000009 L .17800002 .323 L .52000007 .323 L .52000007 .124000009 C .52000007 .041 .503 .036000004 .433 .033 C .42700003 .027 .42700003 .006 .433 0 C .47800002 .001 .526 .002 .563 .002 C .6 .002 .648 .001 .69200006 0 C .698 .006 .698 .027 .69200006 .033 C .62200006 .036000004 .605 .041 .605 .124000009 Z "/>
</symbol>
<use xlink:href="#font_1_29" transform="matrix(11.95517,0,0,-11.95517,95.60142,169.52391)"/>
<use xlink:href="#font_1_50" transform="matrix(11.95517,0,0,-11.95517,104.663448,169.61956)"/>
<use xlink:href="#font_1_e" transform="matrix(11.95517,0,0,-11.95517,110.676898,166.834)"/>
<use xlink:href="#font_3_40" transform="matrix(25.84303,0,0,-25.84303,105.041,146.72234)"/>
<use xlink:href="#font_1_54" transform="matrix(11.95517,0,0,-11.95517,115.002849,169.61956)"/>
<use xlink:href="#font_1_a1" transform="matrix(11.95517,0,0,-11.95517,119.52191,169.61956)"/>
<use xlink:href="#font_1_4f" transform="matrix(11.95517,0,0,-11.95517,124.79414,169.52391)"/>
<use xlink:href="#font_1_e" transform="matrix(11.95517,0,0,-11.95517,131.51296,166.834)"/>
<use xlink:href="#font_3_51e" transform="matrix(25.84303,0,0,-25.84303,119.67799,138.58269)"/>
<use xlink:href="#font_1_4f" transform="matrix(11.95517,0,0,-11.95517,135.50312,169.52391)"/>
<use xlink:href="#font_1_42" transform="matrix(11.95517,0,0,-11.95517,142.1741,169.61956)"/>
<use xlink:href="#font_3_40" transform="matrix(25.84303,0,0,-25.84303,142.331,138.58269)"/>
<use xlink:href="#font_3_40" transform="matrix(25.84303,0,0,-25.84303,148.585,138.58269)"/>
<use xlink:href="#font_1_4a" transform="matrix(11.95517,0,0,-11.95517,162.39293,169.52391)"/>
<use xlink:href="#font_1_4f" transform="matrix(11.95517,0,0,-11.95517,165.58496,169.52391)"/>
<use xlink:href="#font_3_40" transform="matrix(25.84303,0,0,-25.84303,161.581,146.72234)"/>
<use xlink:href="#font_3_59" transform="matrix(25.84303,0,0,-25.84303,163.286,150.6849)"/>
<use xlink:href="#font_1_46" transform="matrix(11.95517,0,0,-11.95517,177.27533,169.61956)"/>
<use xlink:href="#font_3_40" transform="matrix(25.84303,0,0,-25.84303,177.36,154.86296)"/>
<symbol id="font_1_59">
<path d="M .16700001 .36 C .14400001 .39400003 .15100001 .395 .19600001 .40000005 C .202 .40600003 .202 .42700003 .19600001 .43300004 C .16900002 .432 .125 .43100003 .095000009 .43100003 C .065000008 .43100003 .035 .432 .009 .43300004 C .0030000006 .42700003 .0030000006 .40600003 .009 .40000005 C .043 .397 .071 .38000003 .09900001 .33900003 L .186 .21200001 C .19100002 .20500002 .19100002 .202 .187 .19700001 L .10300001 .089 C .063 .038000004 .041 .035 .006000001 .033 C 0 .027 0 .006 .006000001 0 C .026 .001 .048 .002 .078 .002 C .108 .002 .136 .001 .162 0 C .16800002 .006 .16800002 .027 .162 .033 C .126 .037 .118 .041 .14 .073 L .20300001 .164 C .21100001 .17600002 .215 .17500001 .22100002 .16600001 L .27899999 .086 C .314 .038000004 .29800005 .036000004 .26600004 .033 C .26 .027 .26 .006 .26600004 0 C .296 .001 .329 .002 .365 .002 C .403 .002 .43 .001 .454 0 C .46000005 .006 .46000005 .027 .454 .033 C .40900005 .036000004 .394 .039 .35400004 .096 L .264 .22300002 C .26 .22900002 .259 .23200001 .264 .23800002 L .348 .34500004 C .385 .39200003 .40900005 .397 .445 .40000005 C .45100004 .40600003 .45100004 .42700003 .445 .43300004 C .425 .432 .402 .43100003 .37200005 .43100003 C .342 .43100003 .314 .432 .288 .43300004 C .282 .42700003 .282 .40600003 .288 .40000005 C .325 .39600004 .33600004 .39300005 .31200005 .35900004 L .24700003 .268 C .24000003 .25800003 .23600002 .259 .22800002 .27 L .16700001 .36 Z "/>
</symbol>
<symbol id="font_1_a9">
<path d="M .349 .103 C .312 .065000008 .28300003 .049000004 .22500003 .049000004 C .18900001 .049000004 .14700002 .07 .11600001 .12100001 C .096 .15400002 .08400001 .20000002 .08400001 .25800003 L .35000003 .256 C .36200003 .256 .36900003 .262 .36900003 .273 C .36900003 .357 .33900003 .447 .20000002 .447 C .113000009 .447 0 .364 0 .21200001 C 0 .15600002 .014000002 .102000009 .047000007 .064 C .08100001 .024 .128 0 .20000002 0 C .27600003 0 .33 .035 .37 .087000008 C .367 .097 .36100004 .102000009 .349 .103 M .087000008 .292 C .106000009 .405 .17600002 .414 .20000002 .414 C .238 .414 .28300003 .393 .28300003 .30900003 C .28300003 .3 .279 .29500003 .268 .29500003 L .087000008 .292 M .23300001 .681 L .157 .56200006 C .149 .549 .14600002 .545 .14600002 .53400006 C .14600002 .527 .15300001 .521 .16000001 .521 C .16700001 .521 .17500001 .52500006 .19000001 .54 L .305 .64900007 L .30200003 .66 C .279 .68200007 .25300003 .683 .24700001 .683 C .24200002 .683 .236 .68200007 .23300001 .681 Z "/>
</symbol>
<use xlink:href="#font_1_59" transform="matrix(11.95517,0,0,-11.95517,182.35633,169.52391)"/>
<use xlink:href="#font_1_44" transform="matrix(11.95517,0,0,-11.95517,188.47737,169.61956)"/>
<use xlink:href="#font_1_a9" transform="matrix(11.95517,0,0,-11.95517,193.5942,169.61956)"/>
<use xlink:href="#font_1_4d" transform="matrix(11.95517,0,0,-11.95517,198.69905,169.52391)"/>
<use xlink:href="#font_1_e" transform="matrix(11.95517,0,0,-11.95517,202.13019,166.834)"/>
<use xlink:href="#font_3_51e" transform="matrix(25.84303,0,0,-25.84303,193.67899,150.79265)"/>
<use xlink:href="#font_1_54" transform="matrix(11.95517,0,0,-11.95517,210.26087,169.61956)"/>
<use xlink:href="#font_1_4a" transform="matrix(11.95517,0,0,-11.95517,214.63645,169.52391)"/>
<use xlink:href="#font_1_54" transform="matrix(11.95517,0,0,-11.95517,218.16321,169.61956)"/>
<use xlink:href="#font_1_f" transform="matrix(11.95517,0,0,-11.95517,222.9333,169.61956)"/>
<use xlink:href="#font_3_1ae" transform="matrix(25.84303,0,0,-25.84303,213.824,156.83992)"/>
<use xlink:href="#font_3_b" transform="matrix(25.84303,0,0,-25.84303,223.82102,155.46559)"/>
<use xlink:href="#font_3_b" transform="matrix(25.84303,0,0,-25.84303,223.836,149.19216)"/>
<use xlink:href="#font_3_26" transform="matrix(25.84303,0,0,-25.84303,230.913,152.29148)"/>
<symbol id="font_1_23">
<path d="M .135 .647 C .09900001 .647 .045 .648 .006000001 .649 C 0 .643 0 .622 .006000001 .616 C .076000008 .613 .09300001 .608 .09300001 .525 L .09300001 .124000009 C .09300001 .041 .076000008 .036000004 .006000001 .033 C 0 .027 0 .006 .006000001 0 C .045 .001 .09900001 .002 .136 .002 C .172 .002 .19800002 0 .282 0 C .481 0 .53400006 .1 .53400006 .18600002 C .53400006 .282 .467 .337 .38 .36200003 L .38 .36400003 C .43 .38900004 .47500003 .441 .47500003 .49500004 C .47500003 .562 .446 .649 .26 .649 C .22500001 .649 .17100002 .647 .135 .647 M .17800002 .33400003 L .24700003 .33400003 C .384 .33400003 .441 .25700004 .441 .16700001 C .441 .094000007 .41300003 .033 .261 .033 C .19100002 .033 .17800002 .059000005 .17800002 .120000008 L .17800002 .33400003 M .17800002 .552 C .17800002 .605 .17800002 .615 .26500003 .615 C .321 .615 .394 .585 .394 .48300005 C .394 .39800004 .335 .36800004 .252 .36800004 L .17800002 .36800004 L .17800002 .552 Z "/>
</symbol>
<use xlink:href="#font_1_23" transform="matrix(11.95517,0,0,-11.95517,231.0804,169.52391)"/>
<use xlink:href="#font_1_46" transform="matrix(11.95517,0,0,-11.95517,238.39696,169.61956)"/>
<use xlink:href="#font_1_e" transform="matrix(11.95517,0,0,-11.95517,243.7768,166.834)"/>
<use xlink:href="#font_3_f2" transform="matrix(25.84303,0,0,-25.84303,238.48099,132.41902)"/>
<use xlink:href="#font_3_1a" transform="matrix(25.84303,0,0,-25.84303,244.297,131.03548)"/>
<use xlink:href="#font_3_1a" transform="matrix(25.84303,0,0,-25.84303,247.97101,135.10579)"/>
<use xlink:href="#font_3_59" transform="matrix(25.84303,0,0,-25.84303,249.96799,140.306)"/>
<use xlink:href="#font_3_40" transform="matrix(25.84303,0,0,-25.84303,254.729,130.44109)"/>
<use xlink:href="#font_1_4f" transform="matrix(11.95517,0,0,-11.95517,259.5271,169.52391)"/>
<use xlink:href="#font_1_46" transform="matrix(11.95517,0,0,-11.95517,266.21006,169.61956)"/>
<use xlink:href="#font_1_e" transform="matrix(11.95517,0,0,-11.95517,271.58988,166.834)"/>
<use xlink:href="#font_3_40" transform="matrix(25.84303,0,0,-25.84303,266.294,138.58269)"/>
<symbol id="font_1_45">
<path d="M .29500003 .063 C .3 .067 .30900003 .069000009 .31 .062000004 C .31300003 .038000004 .321 .0029999996 .321 .0029999996 C .32900004 0 .33400003 .0010000002 .34 .0029999996 C .36200003 .021000002 .397 .036000004 .458 .043 C .46400003 .049000004 .46400003 .064 .458 .07000001 C .39400003 .075 .38500003 .094 .38500003 .143 L .38500003 .596 C .38500003 .661 .38900004 .70100006 .38900004 .70100006 C .38900004 .70800009 .38500003 .711 .37600003 .711 C .351 .70100006 .27600003 .68700006 .236 .684 C .234 .67600008 .236 .66 .24200002 .65400007 C .245 .65400007 .248 .65400007 .25100003 .65400007 C .29500003 .651 .30600003 .651 .30600003 .572 L .30600003 .44400005 C .30600003 .43700005 .30400003 .43500004 .29700003 .43500004 C .293 .43500004 .252 .45200003 .21900001 .45200003 C .153 .45200003 .109 .43000005 .069000009 .39200003 C .026000005 .34900005 0 .29000003 0 .216 C 0 .09300001 .062000004 .0029999996 .17 .0029999996 C .209 .0029999996 .24600002 .023000002 .29500003 .063 M .30600003 .13700001 C .30600003 .118 .30400003 .11 .29000003 .098000008 C .25300003 .066 .22100002 .05 .19600001 .05 C .142 .05 .085999999 .109 .085999999 .23400001 C .085999999 .30600003 .10000001 .34600003 .11500001 .367 C .146 .41400004 .18800001 .41700004 .208 .41700004 C .24400002 .41700004 .26900003 .40400005 .289 .38100005 C .303 .36500005 .30600003 .35800005 .30600003 .32700003 L .30600003 .13700001 Z "/>
</symbol>
<symbol id="font_1_ad">
<path d="M .157 .124000009 L .157 .323 C .157 .37300004 .161 .43700005 .161 .43700005 C .161 .441 .156 .44400005 .148 .44400005 C .120000008 .43300004 .08 .42400003 .011 .41500003 C .009 .409 .011 .39300005 .013 .38700003 C .068 .38200004 .07800001 .37600003 .07800001 .319 L .07800001 .124000009 C .07800001 .041 .067 .038000004 .006000001 .033 C 0 .027 0 .006 .006000001 0 C .039 .001 .07800001 .002 .118 .002 C .158 .002 .19600001 .001 .22900002 0 C .235 .006 .235 .027 .22900002 .033 C .168 .037 .157 .041 .157 .124000009 M .139 .673 L .06300001 .554 C .055000005 .541 .052000006 .537 .052000006 .526 C .052000006 .519 .059000005 .513 .066 .513 C .073 .513 .081 .517 .096 .532 L .21100001 .64100006 L .208 .652 C .185 .674 .15900001 .675 .153 .675 C .148 .675 .142 .674 .139 .673 Z "/>
</symbol>
<use xlink:href="#font_1_45" transform="matrix(11.95517,0,0,-11.95517,275.80726,169.65541)"/>
<use xlink:href="#font_1_ad" transform="matrix(11.95517,0,0,-11.95517,281.67726,169.52391)"/>
<use xlink:href="#font_3_104" transform="matrix(25.84303,0,0,-25.84303,280.865,134.27883)"/>
<use xlink:href="#font_1_44" transform="matrix(11.95517,0,0,-11.95517,285.07237,169.61956)"/>
<use xlink:href="#font_1_55" transform="matrix(11.95517,0,0,-11.95517,290.04573,169.61956)"/>
<use xlink:href="#font_1_56" transform="matrix(11.95517,0,0,-11.95517,293.76377,169.65541)"/>
<use xlink:href="#font_1_54" transform="matrix(11.95517,0,0,-11.95517,300.44673,169.61956)"/>
<symbol id="font_3_16">
<path d="M 0 .049000004 L 0 .22800002 C .009333334 .22000003 .017666668 .21466668 .025 .21200001 C .032333334 .20933335 .043 .208 .057000005 .208 L .057000005 .42900003 C .057 .4416667 .059333337 .44800005 .064 .448 L .065000008 .448 C .07033334 .44733335 .07300001 .4366667 .07300001 .416 L .07300001 0 C .024333336 .007333333 0 .023666667 0 .049000004 Z "/>
</symbol>
<use xlink:href="#font_3_40" transform="matrix(25.84303,0,0,-25.84303,294.554,130.44109)"/>
<use xlink:href="#font_3_b" transform="matrix(25.84303,0,0,-25.84303,300.277,124.76735)"/>
<use xlink:href="#font_3_16" transform="matrix(25.84303,0,0,-25.84303,308.631,134.84737)"/>
<path transform="matrix(1,0,0,-1,1,182.49707)" stroke-width=".388" stroke-linecap="butt" stroke-miterlimit="10" stroke-linejoin="miter" fill="none" stroke="#000000" d="M 0 0 L 309.543 0 "/>
<path transform="matrix(1,0,0,-1,1,190.63672)" stroke-width=".388" stroke-linecap="butt" stroke-miterlimit="10" stroke-linejoin="miter" fill="none" stroke="#000000" d="M 0 0 L 309.543 0 "/>
<path transform="matrix(1,0,0,-1,1,198.77832)" stroke-width=".388" stroke-linecap="butt" stroke-miterlimit="10" stroke-linejoin="miter" fill="none" stroke="#000000" d="M 0 0 L 309.543 0 "/>
<path transform="matrix(1,0,0,-1,1,206.91797)" stroke-width=".388" stroke-linecap="butt" stroke-miterlimit="10" stroke-linejoin="miter" fill="none" stroke="#000000" d="M 0 0 L 309.543 0 "/>
<use xlink:href="#font_3_d" transform="matrix(25.84303,0,0,-25.84303,1,197.54935)"/>
<symbol id="font_1_52">
<path d="M .31100003 .123 C .31100003 .040000008 .3 .036 .23900002 .033000009 C .23300001 .026999996 .23300001 .0059999974 .23900002 0 C .27400003 .001000002 .31100003 .002000004 .351 .002000004 C .39100004 .002000004 .42900003 .001000002 .462 0 C .46800003 .0059999974 .46800003 .026999996 .462 .033000009 C .40100003 .036 .39000003 .040000008 .39000003 .123 L .39000003 .651 C .39000003 .665 .38600005 .67600008 .37500004 .67600008 C .36800004 .67600008 .36200003 .66800007 .35400004 .657 C .34100003 .63900008 .337 .63600006 .32500003 .64400008 C .293 .66400006 .254 .67300006 .21200001 .67300006 C .09 .67300006 0 .573 0 .44100005 C 0 .34800003 .06300001 .224 .20700002 .224 C .23400003 .224 .26700003 .23000002 .284 .24000001 C .307 .25300003 .31100003 .25500003 .31100003 .23400001 L .31100003 .123 M .28700004 .60200008 C .307 .58000007 .31100003 .56500008 .31100003 .541 L .31100003 .31100003 C .31100003 .293 .31000004 .28800003 .29700003 .28100003 C .27400003 .26900003 .24700001 .268 .231 .268 C .17300001 .268 .08600001 .31 .08600001 .46100004 C .08600001 .56500008 .128 .63900008 .20800002 .63900008 C .238 .63900008 .26500003 .62700006 .28700004 .60200008 Z "/>
</symbol>
<use xlink:href="#font_1_52" transform="matrix(11.95517,0,0,-11.95517,2.8354309,227.09244)"/>
<use xlink:href="#font_1_56" transform="matrix(11.95517,0,0,-11.95517,8.669554,224.45034)"/>
<use xlink:href="#font_1_4a" transform="matrix(11.95517,0,0,-11.95517,15.065573,224.31884)"/>
<use xlink:href="#font_3_104" transform="matrix(25.84303,0,0,-25.84303,14.253998,189.07375)"/>
<symbol id="font_1_57">
<path d="M .32000003 .41000004 C .374 .40600003 .38000003 .39400003 .35900004 .34300003 L .27800004 .147 C .26200003 .108 .25700004 .108 .24100001 .15 L .16900002 .34300003 C .15100001 .391 .14700002 .40300004 .20000002 .41000004 C .20600002 .416 .20600002 .437 .20000002 .44300003 C .16700001 .442 .13200002 .441 .099 .441 C .066 .441 .036000004 .442 .0060000007 .44300003 C 0 .437 0 .416 .0060000007 .41000004 C .059000005 .404 .066 .388 .086 .337 L .21400002 .021000002 C .22000002 .006 .22600001 0 .23900002 0 C .24900002 0 .256 .006 .263 .023000002 L .39600004 .336 C .41500003 .38000003 .42600004 .405 .48200003 .41000004 C .48800005 .416 .48800005 .437 .48200003 .44300003 C .462 .442 .43800003 .441 .41200004 .441 C .379 .441 .34500004 .442 .32000003 .44300003 C .314 .437 .314 .416 .32000003 .41000004 Z "/>
</symbol>
<use xlink:href="#font_1_57" transform="matrix(11.95517,0,0,-11.95517,23.071778,224.43839)"/>
<use xlink:href="#font_1_46" transform="matrix(11.95517,0,0,-11.95517,29.300419,224.41448)"/>
<use xlink:href="#font_1_e" transform="matrix(11.95517,0,0,-11.95517,34.68025,221.62892)"/>
<use xlink:href="#font_3_f2" transform="matrix(25.84303,0,0,-25.84303,29.385003,187.21297)"/>
<use xlink:href="#font_3_1a" transform="matrix(25.84303,0,0,-25.84303,35.197999,185.8304)"/>
<use xlink:href="#font_3_1a" transform="matrix(25.84303,0,0,-25.84303,38.872,189.90071)"/>
<use xlink:href="#font_1_4f" transform="matrix(11.95517,0,0,-11.95517,45.197107,224.31884)"/>
<use xlink:href="#font_1_4a" transform="matrix(11.95517,0,0,-11.95517,51.72463,224.31884)"/>
<use xlink:href="#font_1_55" transform="matrix(11.95517,0,0,-11.95517,54.976438,224.41448)"/>
<use xlink:href="#font_3_40" transform="matrix(25.84303,0,0,-25.84303,50.913003,193.37664)"/>
<use xlink:href="#font_3_b" transform="matrix(25.84303,0,0,-25.84303,56.634004,187.7029)"/>
<use xlink:href="#font_3_2a" transform="matrix(25.84303,0,0,-25.84303,62.599,187.10877)"/>
<use xlink:href="#font_1_4a" transform="matrix(11.95517,0,0,-11.95517,69.86693,224.31884)"/>
<use xlink:href="#font_1_4f" transform="matrix(11.95517,0,0,-11.95517,73.05896,224.31884)"/>
<use xlink:href="#font_3_40" transform="matrix(25.84303,0,0,-25.84303,69.05499,181.1657)"/>
<use xlink:href="#font_1_4f" transform="matrix(11.95517,0,0,-11.95517,84.532108,224.31884)"/>
<use xlink:href="#font_1_b3" transform="matrix(11.95517,0,0,-11.95517,91.26287,224.41448)"/>
<use xlink:href="#font_1_e" transform="matrix(11.95517,0,0,-11.95517,97.27632,221.62892)"/>
<symbol id="font_3_f3">
<path d="M 0 .48000003 C 0 .49600003 .0066666675 .508 .020000002 .51600006 C .034 .524 .055000005 .528 .083000008 .528 C .13833334 .528 .16600001 .512 .16600001 .48000003 L .16600001 .020999998 C .16600001 .008999993 .16233334 .001999994 .155 0 C .15300001 0 .15166669 .00033333899 .15100001 .0010000169 C .15033335 .001666675 .14966667 .0036666692 .149 .0069999995 C .149 .009666671 .14866667 .014000009 .148 .02000001 C .148 .026000014 .148 .035000009 .148 .04699999 L .148 .32700003 C .13133334 .3416667 .10966667 .349 .083000008 .349 C .045 .349 .017333335 .34033335 0 .323 L 0 .48000003 Z "/>
</symbol>
<use xlink:href="#font_3_f3" transform="matrix(25.84303,0,0,-25.84303,91.64,193.47994)"/>
<use xlink:href="#font_3_1a" transform="matrix(25.84303,0,0,-25.84303,97.453998,189.90071)"/>
<use xlink:href="#font_3_1a" transform="matrix(25.84303,0,0,-25.84303,101.127,193.97103)"/>
<use xlink:href="#font_3_104" transform="matrix(25.84303,0,0,-25.84303,107.878009,189.07375)"/>
<use xlink:href="#font_1_4e" transform="matrix(11.95517,0,0,-11.95517,110.74811,224.31884)"/>
<use xlink:href="#font_1_4a" transform="matrix(11.95517,0,0,-11.95517,120.24051,224.31884)"/>
<use xlink:href="#font_1_e" transform="matrix(11.95517,0,0,-11.95517,123.671649,221.62892)"/>
<use xlink:href="#font_3_1ae" transform="matrix(25.84303,0,0,-25.84303,119.42799,195.35359)"/>
<use xlink:href="#font_1_4f" transform="matrix(11.95517,0,0,-11.95517,128.5011,224.31884)"/>
<use xlink:href="#font_1_46" transform="matrix(11.95517,0,0,-11.95517,135.18404,224.41448)"/>
<use xlink:href="#font_3_40" transform="matrix(25.84303,0,0,-25.84303,135.269,193.37664)"/>
<use xlink:href="#font_3_b" transform="matrix(25.84303,0,0,-25.84303,140.99,187.7029)"/>
<use xlink:href="#font_1_25" transform="matrix(11.95517,0,0,-11.95517,145.2474,224.31884)"/>
<use xlink:href="#font_1_b3" transform="matrix(11.95517,0,0,-11.95517,153.96273,224.41448)"/>
<use xlink:href="#font_1_e" transform="matrix(11.95517,0,0,-11.95517,159.97618,221.62892)"/>
<use xlink:href="#font_3_3a" transform="matrix(25.84303,0,0,-25.84303,148.34564,196.30889)" fill="#ffffff"/>
<use xlink:href="#font_3_39" transform="matrix(25.84303,0,0,-25.84303,147.958,197.73026)"/>
<use xlink:href="#font_3_1b4" transform="matrix(25.84303,0,0,-25.84303,154.341,209.76119)"/>
<use xlink:href="#font_3_f2" transform="matrix(25.84303,0,0,-25.84303,164.425,203.49324)"/>
<use xlink:href="#font_3_1a" transform="matrix(25.84303,0,0,-25.84303,170.239,202.11165)"/>
<use xlink:href="#font_3_1a" transform="matrix(25.84303,0,0,-25.84303,173.912,206.18196)"/>
<use xlink:href="#font_3_59" transform="matrix(25.84303,0,0,-25.84303,175.909,211.38217)"/>
<use xlink:href="#font_3_40" transform="matrix(25.84303,0,0,-25.84303,180.67,201.51726)"/>
<use xlink:href="#font_1_4e" transform="matrix(11.95517,0,0,-11.95517,183.53911,224.31884)"/>
<use xlink:href="#font_1_4a" transform="matrix(11.95517,0,0,-11.95517,193.03153,224.31884)"/>
<use xlink:href="#font_1_e" transform="matrix(11.95517,0,0,-11.95517,196.46265,221.62892)"/>
<use xlink:href="#font_3_1ae" transform="matrix(25.84303,0,0,-25.84303,192.22,211.63484)"/>
<use xlink:href="#font_1_4f" transform="matrix(11.95517,0,0,-11.95517,202.3451,224.31884)"/>
<use xlink:href="#font_1_4a" transform="matrix(11.95517,0,0,-11.95517,208.87262,224.31884)"/>
<use xlink:href="#font_1_f" transform="matrix(11.95517,0,0,-11.95517,212.50698,224.41448)"/>
<use xlink:href="#font_3_40" transform="matrix(25.84303,0,0,-25.84303,208.06,209.6569)"/>
<use xlink:href="#font_3_b" transform="matrix(25.84303,0,0,-25.84303,213.78202,203.98317)"/>
<use xlink:href="#font_3_26" transform="matrix(25.84303,0,0,-25.84303,220.66199,207.08542)"/>
<use xlink:href="#font_1_29" transform="matrix(11.95517,0,0,-11.95517,222.99242,224.31884)"/>
<use xlink:href="#font_1_50" transform="matrix(11.95517,0,0,-11.95517,232.05443,224.41448)"/>
<use xlink:href="#font_1_e" transform="matrix(11.95517,0,0,-11.95517,238.06787,221.62892)"/>
<use xlink:href="#font_3_3a" transform="matrix(25.84303,0,0,-25.84303,226.43666,196.30889)" fill="#ffffff"/>
<use xlink:href="#font_3_39" transform="matrix(25.84303,0,0,-25.84303,226.04901,197.73026)"/>
<use xlink:href="#font_3_104" transform="matrix(25.84303,0,0,-25.84303,232.432,209.42433)"/>
<use xlink:href="#font_3_1b4" transform="matrix(25.84303,0,0,-25.84303,238.69199,209.76119)"/>
<use xlink:href="#font_3_104" transform="matrix(25.84303,0,0,-25.84303,249.97,205.355)"/>
<use xlink:href="#font_3_f2" transform="matrix(25.84303,0,0,-25.84303,254.26001,203.49324)"/>
<use xlink:href="#font_3_1a" transform="matrix(25.84303,0,0,-25.84303,260.074,202.11165)"/>
<use xlink:href="#font_3_1a" transform="matrix(25.84303,0,0,-25.84303,263.747,206.18196)"/>
<use xlink:href="#font_3_f3" transform="matrix(25.84303,0,0,-25.84303,270.504,209.76119)"/>
<use xlink:href="#font_3_b" transform="matrix(25.84303,0,0,-25.84303,276.226,195.84255)"/>
<use xlink:href="#font_3_105" transform="matrix(25.84303,0,0,-25.84303,280.031,209.24343)"/>
<use xlink:href="#font_1_54" transform="matrix(11.95517,0,0,-11.95517,286.90586,224.41448)"/>
<use xlink:href="#font_1_a1" transform="matrix(11.95517,0,0,-11.95517,291.4249,224.41448)"/>
<use xlink:href="#font_1_4f" transform="matrix(11.95517,0,0,-11.95517,296.6971,224.31884)"/>
<use xlink:href="#font_1_e" transform="matrix(11.95517,0,0,-11.95517,303.41593,221.62892)"/>
<symbol id="font_3_14">
<path d="M 0 .049000004 L 0 .22800002 C .0060000007 .22266667 .011333334 .21833332 .016 .215 C .021333335 .21233332 .027 .21033335 .033 .20900002 C .039666669 .20833333 .04766667 .208 .057000005 .208 L .057000005 .535 C .057 .5543334 .059666676 .56400009 .065000008 .56400009 L .066 .56400009 C .072000008 .56400009 .075 .5586667 .075 .54800006 C .075 .54333338 .07433334 .5373333 .07300001 .53000006 L .07300001 0 C .024333336 .007333333 0 .023666667 0 .049000004 Z "/>
</symbol>
<use xlink:href="#font_3_40" transform="matrix(25.84303,0,0,-25.84303,291.581,193.37664)"/>
<use xlink:href="#font_3_104" transform="matrix(25.84303,0,0,-25.84303,297.83503,193.14406)"/>
<use xlink:href="#font_3_14" transform="matrix(25.84303,0,0,-25.84303,308.63743,193.7126)"/>
<path transform="matrix(1,0,0,-1,1,237.29102)" stroke-width=".388" stroke-linecap="butt" stroke-miterlimit="10" stroke-linejoin="miter" fill="none" stroke="#000000" d="M 0 0 L 309.543 0 "/>
<path transform="matrix(1,0,0,-1,1,245.43164)" stroke-width=".388" stroke-linecap="butt" stroke-miterlimit="10" stroke-linejoin="miter" fill="none" stroke="#000000" d="M 0 0 L 309.543 0 "/>
<path transform="matrix(1,0,0,-1,1,253.57227)" stroke-width=".388" stroke-linecap="butt" stroke-miterlimit="10" stroke-linejoin="miter" fill="none" stroke="#000000" d="M 0 0 L 309.543 0 "/>
<path transform="matrix(1,0,0,-1,1,261.7129)" stroke-width=".388" stroke-linecap="butt" stroke-miterlimit="10" stroke-linejoin="miter" fill="none" stroke="#000000" d="M 0 0 L 309.543 0 "/>
<use xlink:href="#font_3_d" transform="matrix(25.84303,0,0,-25.84303,1,252.34427)"/>
<use xlink:href="#font_1_4f" transform="matrix(11.95517,0,0,-11.95517,4.9820997,279.11277)"/>
<use xlink:href="#font_1_42" transform="matrix(11.95517,0,0,-11.95517,11.653089,279.2084)"/>
<use xlink:href="#font_3_40" transform="matrix(25.84303,0,0,-25.84303,11.808998,248.17156)"/>
<use xlink:href="#font_3_b" transform="matrix(25.84303,0,0,-25.84303,17.516999,242.49684)"/>
<use xlink:href="#font_3_2a" transform="matrix(25.84303,0,0,-25.84303,23.185997,241.90369)"/>
<use xlink:href="#font_1_4a" transform="matrix(11.95517,0,0,-11.95517,30.157927,279.11277)"/>
<use xlink:href="#font_1_4f" transform="matrix(11.95517,0,0,-11.95517,33.34996,279.11277)"/>
<use xlink:href="#font_3_40" transform="matrix(25.84303,0,0,-25.84303,29.346,235.96062)"/>
<use xlink:href="#font_1_46" transform="matrix(11.95517,0,0,-11.95517,44.852346,279.2084)"/>
<use xlink:href="#font_1_59" transform="matrix(11.95517,0,0,-11.95517,49.84961,279.11277)"/>
<use xlink:href="#font_1_e" transform="matrix(11.95517,0,0,-11.95517,56.00652,276.42286)"/>
<use xlink:href="#font_3_f3" transform="matrix(25.84303,0,0,-25.84303,44.936998,248.27388)"/>
<use xlink:href="#font_3_1a" transform="matrix(25.84303,0,0,-25.84303,50.725,244.69466)"/>
<use xlink:href="#font_3_1a" transform="matrix(25.84303,0,0,-25.84303,54.394998,248.76595)"/>
<use xlink:href="#font_1_44" transform="matrix(11.95517,0,0,-11.95517,61.061346,279.2084)"/>
<use xlink:href="#font_1_a9" transform="matrix(11.95517,0,0,-11.95517,66.178157,279.2084)"/>
<use xlink:href="#font_1_4d" transform="matrix(11.95517,0,0,-11.95517,71.28301,279.11277)"/>
<use xlink:href="#font_1_e" transform="matrix(11.95517,0,0,-11.95517,74.71414,276.42286)"/>
<symbol id="font_3_524">
<path d="M 0 .158 C 0 .19000001 .028000003 .20600002 .08400001 .20600002 C .114 .20600002 .13533335 .20266669 .148 .19600001 L .148 .47300006 C .148 .50500008 .17533334 .521 .23 .521 C .286 .521 .314 .50500008 .314 .47300006 L .314 .19600001 C .32666669 .20266669 .34800003 .20600002 .37800003 .20600002 C .43400003 .20600002 .462 .19000001 .462 .158 L .462 0 C .444 .018666668 .41633336 .028000003 .379 .028 C .3416667 .028000003 .314 .018666668 .296 0 L .296 .329 C .27933336 .33833335 .25766669 .34300003 .231 .343 C .20433335 .34300003 .18266668 .33833335 .16600001 .329 L .16600001 0 C .16333334 .002666667 .16033334 .005333334 .157 .008000001 C .15433334 .010000002 .15133335 .012000002 .148 .014000002 C .14466667 .015333335 .14100002 .017 .13700001 .019000002 C .13366668 .020333335 .13 .021666669 .126 .023000002 C .122 .02366667 .11766667 .024333336 .113000009 .025000003 C .10833334 .025666669 .10333333 .026333338 .098000008 .027000003 C .09333334 .027666668 .08833334 .028000003 .083000008 .028 C .04566667 .028000003 .018000002 .018666668 0 0 L 0 .158 Z "/>
</symbol>
<use xlink:href="#font_3_f3" transform="matrix(25.84303,0,0,-25.84303,66.263,264.55516)"/>
<use xlink:href="#font_3_1a" transform="matrix(25.84303,0,0,-25.84303,72.050998,260.97593)"/>
<use xlink:href="#font_3_1a" transform="matrix(25.84303,0,0,-25.84303,75.72099,265.0472)"/>
<use xlink:href="#font_3_b" transform="matrix(25.84303,0,0,-25.84303,80.963,266.21754)"/>
<use xlink:href="#font_3_524" transform="matrix(25.84303,0,0,-25.84303,84.76199,256.36289)"/>
<use xlink:href="#font_3_51e" transform="matrix(25.84303,0,0,-25.84303,98.66499,264.45283)"/>
<use xlink:href="#font_1_54" transform="matrix(11.95517,0,0,-11.95517,115.05784,279.2084)"/>
<use xlink:href="#font_1_4a" transform="matrix(11.95517,0,0,-11.95517,119.43344,279.11277)"/>
<use xlink:href="#font_1_54" transform="matrix(11.95517,0,0,-11.95517,122.96021,279.2084)"/>
<use xlink:href="#font_1_f" transform="matrix(11.95517,0,0,-11.95517,127.73033,279.2084)"/>
<use xlink:href="#font_3_40" transform="matrix(25.84303,0,0,-25.84303,118.621,264.45283)"/>
<use xlink:href="#font_3_b" transform="matrix(25.84303,0,0,-25.84303,124.328998,258.77809)"/>
<use xlink:href="#font_3_26" transform="matrix(25.84303,0,0,-25.84303,132.597,261.88035)"/>
<use xlink:href="#font_3_26" transform="matrix(25.84303,0,0,-25.84303,136.18918,261.88035)"/>
</g>
</g>
</svg>
